#N canvas 827 239 527 327 12;
#X declare -lib Gem;
#X msg 74 135 create \, 1;
#X msg 148 135 0 \, destroy;
#X obj 74 103 declare -lib Gem;
#X obj 1079 905 gemhead;
#X obj 1135 1008 colorRGB;
#X obj 1135 1265 scaleXYZ;
#X obj 1135 1369 rotateXYZ;
#X obj 1153 951 nbx 4 18 0 1 0 1 empty empty empty 0 -8 0 10 #e4e4e4 #373737 #373737 0.27655 256;
#X obj 1217 951 nbx 4 19 0 1 0 1 empty empty empty 0 -8 0 10 #e4e4e4 #373737 #373737 0.4 256;
#X obj 1278 951 nbx 4 19 0 1 0 1 empty empty empty 0 -8 0 10 #e4e4e4 #373737 #373737 0.8 256;
#X obj 1150 1317 nbx 4 18 -360 360 0 1 empty empty empty 0 -8 0 10 #e4e4e4 #373737 #373737 -270 256;
#X obj 1218 1317 nbx 4 18 -360 360 0 0 empty empty empty 0 -8 0 10 #e4e4e4 #373737 #373737 0 256;
#X obj 1199 1089 bng 25 250 50 0 empty empty empty 17 7 0 10 #e4e4e4 #4d4d4d #373737;
#X obj 1175 1178 line;
#X obj 1304 1317 nbx 4 18 -360 360 0 0 empty empty empty 0 -8 0 10 #e4e4e4 #373737 #373737 0 256;
#X obj 1292 1234 snapshot~;
#X obj 1384 1152 tgl 21 0 empty empty empty 0 -11 0 12 #fcfcfc #000000 #000000 0 1;
#X obj 1292 1274 * 360;
#X obj 1175 1216 nbx 8 20 0 2.5 0 0 empty empty empty 0 -8 0 10 #e4e4e4 #373737 #373737 0 256;
#X obj 1135 1473 translateXYZ;
#X obj 1155 1418 nbx 4 18 -1e+37 1e+37 0 0 empty empty empty 0 -8 0 10 #e4e4e4 #373737 #373737 0 256;
#X obj 1218 1418 nbx 4 18 -1e+37 1e+37 0 1 empty empty empty 0 -8 0 10 #e4e4e4 #373737 #373737 0.4 256;
#X obj 1285 1418 nbx 5 20 -360 360 0 0 empty empty empty 0 -8 0 10 #e4e4e4 #373737 #373737 0 256;
#X obj 562 144 loadbang;
#X obj 560 269 s domain;
#X obj 660 181 bng 25 250 50 0 empty empty empty 17 7 0 10 #e4e4e4 #4d4d4d #373737;
#X obj 689 269 s arg;
#X obj 798 144 loadbang;
#X obj 798 269 s domain;
#X obj 905 181 bng 25 250 50 0 empty empty empty 17 7 0 10 #e4e4e4 #4d4d4d #373737;
#X obj 925 269 s arg;
#X msg 798 181 set point;
#X listbox 798 228 20 0 0 0 - - - 0;
#X obj 1081 852 tgl 21 0 empty empty empty 0 -11 0 12 #fcfcfc #000000 #000000 0 1;
#X msg 562 181 set blob;
#X listbox 560 230 20 0 0 0 - - - 0;
#X obj 1199 1051 notein 2;
#X obj 62 189 tgl 21 0 empty empty empty 0 -11 0 12 #fcfcfc #000000 #000000 0 1;
#X obj 658 573 gemhead;
#X obj 658 628 part_head;
#X obj 658 1004 part_render;
#X obj 483 1161 loadbang;
#X msg 483 1199 draw line;
#X obj 658 800 part_velocity;
#X obj 688 757 r domain;
#X obj 767 757 r arg;
#X obj 655 448 loadbang;
#X msg 658 489 1;
#X obj 658 526 tgl 21 0 empty empty empty 0 -11 0 12 #fcfcfc #000000 #000000 0 1;
#X obj 658 960 part_color;
#X obj 679 886 loadbang;
#X obj 658 1092 translateXYZ;
#X obj 678 1053 nbx 4 18 -1e+37 1e+37 0 1 empty empty empty 0 -8 0 10 #e4e4e4 #373737 #373737 66 256;
#X obj 739 1053 nbx 4 18 -1e+37 1e+37 0 1 empty empty empty 0 -8 0 10 #e4e4e4 #373737 #373737 -47 256;
#X obj 799 1053 nbx 5 20 -360 360 0 0 empty empty empty 0 -8 0 10 #e4e4e4 #373737 #373737 0 256;
#X obj 689 1207 nbx 4 18 -1e+37 1e+37 0 1 empty empty empty 0 -8 0 10 #e4e4e4 #373737 #373737 0.36 256;
#X obj 658 670 part_size 0.1;
#X obj 557 526 bng 25 250 50 0 empty empty empty 17 7 0 10 #e4e4e4 #4d4d4d #373737;
#X obj 466 526 bng 25 250 50 0 empty empty empty 17 7 0 10 #e4e4e4 #4d4d4d #373737;
#X msg 557 573 speed 0.03;
#X msg 689 228 0 0 0 0.5;
#X obj 1062 1632 loadbang;
#X obj 661 1171 rotateXYZ;
#X obj 692 1132 nbx 4 18 -360 360 0 0 empty empty empty 0 -8 0 10 #e4e4e4 #373737 #373737 0 256;
#X msg 925 230 0 0 0 0.1;
#X obj 466 489 notein 1;
#X obj 557 489 notein 2;
#X msg 466 573 speed 0.2;
#X obj 661 1244 circle;
#X obj 257 560 gemhead;
#X obj 257 608 part_head;
#X obj 257 980 part_render;
#X obj 85 1161 loadbang;
#X msg 85 1199 draw line;
#X obj 257 775 part_velocity;
#X obj 287 734 r domain;
#X obj 363 734 r arg;
#X obj 254 439 loadbang;
#X msg 257 474 1;
#X obj 257 513 tgl 21 0 empty empty empty 0 -11 0 12 #fcfcfc #000000 #000000 0 1;
#X obj 257 935 part_color;
#X obj 290 864 loadbang;
#X obj 260 1076 translateXYZ;
#X obj 338 1029 nbx 4 18 -1e+37 1e+37 0 1 empty empty empty 0 -8 0 10 #e4e4e4 #373737 #373737 47 256;
#X obj 401 1029 nbx 5 20 -360 360 0 0 empty empty empty 0 -8 0 10 #e4e4e4 #373737 #373737 0 256;
#X obj 290 1207 nbx 4 18 -1e+37 1e+37 0 1 empty empty empty 0 -8 0 10 #e4e4e4 #373737 #373737 0.36 256;
#X obj 257 648 part_size 0.1;
#X obj 156 513 bng 25 250 50 0 empty empty empty 17 7 0 10 #e4e4e4 #4d4d4d #373737;
#X obj 58 513 bng 25 250 50 0 empty empty empty 17 7 0 10 #e4e4e4 #4d4d4d #373737;
#X msg 156 560 speed 0.03;
#X obj 260 1171 rotateXYZ;
#X obj 291 1126 nbx 4 18 -360 360 0 0 empty empty empty 0 -8 0 10 #e4e4e4 #373737 #373737 0 256;
#X msg 58 560 speed 0.2;
#X obj 58 474 notein 1;
#X obj 156 474 notein 2;
#X obj 260 1244 triangle;
#X obj 280 1029 nbx 4 18 -1e+37 1e+37 0 1 empty empty empty 0 -8 0 10 #e4e4e4 #373737 #373737 -66 256;
#X msg 184 170 dimen 1080 1920;
#X obj 660 144 loadbang;
#X obj 2056 224 gemhead;
#X floatatom 2082 346 5 0 0 0 - - - 0;
#X floatatom 2119 346 5 0 0 0 - - - 0;
#X floatatom 2160 346 5 0 0 0 - - - 0;
#X obj 2056 391 rotateXYZ 0 0 0;
#N canvas 253 49 691 493 forme2 0;
#N canvas 0 0 353 257 tripleRnd 0;
#X obj 12 63 random 100;
#X obj 12 149 line;
#X obj 12 219 outlet;
#X obj 92 64 random 100;
#X obj 92 145 line;
#X obj 170 64 random 100;
#X obj 170 145 line;
#X obj 12 189 pack f f f;
#X obj 12 12 r bang_forme2;
#X obj 231 9 r line_forme2;
#X obj 12 121 pack 0 2000;
#X obj 92 122 pack 0 2000;
#X obj 170 122 pack 0 2000;
#X obj 58 104;
#X obj 12 90 / 20;
#X obj 92 91 / 20;
#X obj 170 91 / 20;
#X connect 0 0 14 0;
#X connect 1 0 7 0;
#X connect 3 0 15 0;
#X connect 4 0 7 1;
#X connect 5 0 16 0;
#X connect 6 0 7 2;
#X connect 7 0 2 0;
#X connect 8 0 0 0;
#X connect 8 0 3 0;
#X connect 8 0 5 0;
#X connect 9 0 10 1;
#X connect 9 0 11 1;
#X connect 9 0 12 1;
#X connect 10 0 1 0;
#X connect 11 0 4 0;
#X connect 12 0 6 0;
#X connect 14 0 10 0;
#X connect 15 0 11 0;
#X connect 16 0 12 0;
#X restore 28 92 pd tripleRnd;
#X msg 26 270 set 2 0 \$1 \$2 \$3;
#X msg 161 269 set 2 1 \$1 \$2 \$3;
#X msg 298 269 set 2 2 \$1 \$2 \$3;
#X msg 299 190 set 1 2 \$1 \$2 \$3;
#X msg 299 112 set 0 2 \$1 \$2 \$3;
#X msg 161 112 set 0 1 \$1 \$2 \$3;
#X msg 28 114 set 0 0 \$1 \$2 \$3;
#X msg 29 193 set 1 0 \$1 \$2 \$3;
#X msg 161 189 set 1 1 \$1 \$2 \$3;
#X msg 26 337 set 3 0 \$1 \$2 \$3;
#X msg 162 336 set 3 1 \$1 \$2 \$3;
#X msg 298 338 set 3 2 \$1 \$2 \$3;
#X msg 423 111 set 0 3 \$1 \$2 \$3;
#X msg 424 189 set 1 3 \$1 \$2 \$3;
#X msg 424 265 set 2 3 \$1 \$2 \$3;
#X msg 423 335 set 3 3 \$1 \$2 \$3;
#X msg 544 109 set 0 4 \$1 \$2 \$3;
#X msg 545 187 set 1 4 \$1 \$2 \$3;
#X msg 540 263 set 2 4 \$1 \$2 \$3;
#X msg 543 333 set 3 4 \$1 \$2 \$3;
#X msg 28 399 set 4 0 \$1 \$2 \$3;
#X msg 162 392 set 4 1 \$1 \$2 \$3;
#X msg 299 393 set 4 2 \$1 \$2 \$3;
#X msg 424 391 set 4 3 \$1 \$2 \$3;
#X msg 545 389 set 4 4 \$1 \$2 \$3;
#X obj 10 445 outlet;
#X obj 36 15 inlet;
#X obj 36 39 s bang_forme2;
#X obj 248 583;
#N canvas 0 0 353 257 tripleRnd 0;
#X obj 12 63 random 100;
#X obj 12 149 line;
#X obj 12 219 outlet;
#X obj 92 64 random 100;
#X obj 92 145 line;
#X obj 170 64 random 100;
#X obj 170 145 line;
#X obj 12 189 pack f f f;
#X obj 12 12 r bang_forme2;
#X obj 231 9 r line_forme2;
#X obj 12 121 pack 0 2000;
#X obj 92 122 pack 0 2000;
#X obj 170 122 pack 0 2000;
#X obj 58 104;
#X obj 12 90 / 20;
#X obj 92 91 / 20;
#X obj 170 91 / 20;
#X connect 0 0 14 0;
#X connect 1 0 7 0;
#X connect 3 0 15 0;
#X connect 4 0 7 1;
#X connect 5 0 16 0;
#X connect 6 0 7 2;
#X connect 7 0 2 0;
#X connect 8 0 0 0;
#X connect 8 0 3 0;
#X connect 8 0 5 0;
#X connect 9 0 10 1;
#X connect 9 0 11 1;
#X connect 9 0 12 1;
#X connect 10 0 1 0;
#X connect 11 0 4 0;
#X connect 12 0 6 0;
#X connect 14 0 10 0;
#X connect 15 0 11 0;
#X connect 16 0 12 0;
#X restore 29 164 pd tripleRnd;
#N canvas 0 0 353 257 tripleRnd 0;
#X obj 12 63 random 100;
#X obj 12 149 line;
#X obj 12 219 outlet;
#X obj 92 64 random 100;
#X obj 92 145 line;
#X obj 170 64 random 100;
#X obj 170 145 line;
#X obj 12 189 pack f f f;
#X obj 12 12 r bang_forme2;
#X obj 231 9 r line_forme2;
#X obj 12 121 pack 0 2000;
#X obj 92 122 pack 0 2000;
#X obj 170 122 pack 0 2000;
#X obj 58 104;
#X obj 12 90 / 20;
#X obj 92 91 / 20;
#X obj 170 91 / 20;
#X connect 0 0 14 0;
#X connect 1 0 7 0;
#X connect 3 0 15 0;
#X connect 4 0 7 1;
#X connect 5 0 16 0;
#X connect 6 0 7 2;
#X connect 7 0 2 0;
#X connect 8 0 0 0;
#X connect 8 0 3 0;
#X connect 8 0 5 0;
#X connect 9 0 10 1;
#X connect 9 0 11 1;
#X connect 9 0 12 1;
#X connect 10 0 1 0;
#X connect 11 0 4 0;
#X connect 12 0 6 0;
#X connect 14 0 10 0;
#X connect 15 0 11 0;
#X connect 16 0 12 0;
#X restore 29 238 pd tripleRnd;
#N canvas 0 0 353 257 tripleRnd 0;
#X obj 12 63 random 100;
#X obj 12 149 line;
#X obj 12 219 outlet;
#X obj 92 64 random 100;
#X obj 92 145 line;
#X obj 170 64 random 100;
#X obj 170 145 line;
#X obj 12 189 pack f f f;
#X obj 12 12 r bang_forme2;
#X obj 231 9 r line_forme2;
#X obj 12 121 pack 0 2000;
#X obj 92 122 pack 0 2000;
#X obj 170 122 pack 0 2000;
#X obj 58 104;
#X obj 12 90 / 20;
#X obj 92 91 / 20;
#X obj 170 91 / 20;
#X connect 0 0 14 0;
#X connect 1 0 7 0;
#X connect 3 0 15 0;
#X connect 4 0 7 1;
#X connect 5 0 16 0;
#X connect 6 0 7 2;
#X connect 7 0 2 0;
#X connect 8 0 0 0;
#X connect 8 0 3 0;
#X connect 8 0 5 0;
#X connect 9 0 10 1;
#X connect 9 0 11 1;
#X connect 9 0 12 1;
#X connect 10 0 1 0;
#X connect 11 0 4 0;
#X connect 12 0 6 0;
#X connect 14 0 10 0;
#X connect 15 0 11 0;
#X connect 16 0 12 0;
#X restore 29 309 pd tripleRnd;
#N canvas 0 0 353 257 tripleRnd 0;
#X obj 12 63 random 100;
#X obj 12 149 line;
#X obj 12 219 outlet;
#X obj 92 64 random 100;
#X obj 92 145 line;
#X obj 170 64 random 100;
#X obj 170 145 line;
#X obj 12 189 pack f f f;
#X obj 12 12 r bang_forme2;
#X obj 231 9 r line_forme2;
#X obj 12 121 pack 0 2000;
#X obj 92 122 pack 0 2000;
#X obj 170 122 pack 0 2000;
#X obj 58 104;
#X obj 12 90 / 20;
#X obj 92 91 / 20;
#X obj 170 91 / 20;
#X connect 0 0 14 0;
#X connect 1 0 7 0;
#X connect 3 0 15 0;
#X connect 4 0 7 1;
#X connect 5 0 16 0;
#X connect 6 0 7 2;
#X connect 7 0 2 0;
#X connect 8 0 0 0;
#X connect 8 0 3 0;
#X connect 8 0 5 0;
#X connect 9 0 10 1;
#X connect 9 0 11 1;
#X connect 9 0 12 1;
#X connect 10 0 1 0;
#X connect 11 0 4 0;
#X connect 12 0 6 0;
#X connect 14 0 10 0;
#X connect 15 0 11 0;
#X connect 16 0 12 0;
#X restore 26 366 pd tripleRnd;
#N canvas 0 0 353 257 tripleRnd 0;
#X obj 12 63 random 100;
#X obj 12 149 line;
#X obj 12 219 outlet;
#X obj 92 64 random 100;
#X obj 92 145 line;
#X obj 170 64 random 100;
#X obj 170 145 line;
#X obj 12 189 pack f f f;
#X obj 12 12 r bang_forme2;
#X obj 231 9 r line_forme2;
#X obj 12 121 pack 0 2000;
#X obj 92 122 pack 0 2000;
#X obj 170 122 pack 0 2000;
#X obj 58 104;
#X obj 12 90 / 20;
#X obj 92 91 / 20;
#X obj 170 91 / 20;
#X connect 0 0 14 0;
#X connect 1 0 7 0;
#X connect 3 0 15 0;
#X connect 4 0 7 1;
#X connect 5 0 16 0;
#X connect 6 0 7 2;
#X connect 7 0 2 0;
#X connect 8 0 0 0;
#X connect 8 0 3 0;
#X connect 8 0 5 0;
#X connect 9 0 10 1;
#X connect 9 0 11 1;
#X connect 9 0 12 1;
#X connect 10 0 1 0;
#X connect 11 0 4 0;
#X connect 12 0 6 0;
#X connect 14 0 10 0;
#X connect 15 0 11 0;
#X connect 16 0 12 0;
#X restore 161 82 pd tripleRnd;
#N canvas 0 0 353 257 tripleRnd 0;
#X obj 12 63 random 100;
#X obj 12 149 line;
#X obj 12 219 outlet;
#X obj 92 64 random 100;
#X obj 92 145 line;
#X obj 170 64 random 100;
#X obj 170 145 line;
#X obj 12 189 pack f f f;
#X obj 12 12 r bang_forme2;
#X obj 231 9 r line_forme2;
#X obj 12 121 pack 0 2000;
#X obj 92 122 pack 0 2000;
#X obj 170 122 pack 0 2000;
#X obj 58 104;
#X obj 12 90 / 20;
#X obj 92 91 / 20;
#X obj 170 91 / 20;
#X connect 0 0 14 0;
#X connect 1 0 7 0;
#X connect 3 0 15 0;
#X connect 4 0 7 1;
#X connect 5 0 16 0;
#X connect 6 0 7 2;
#X connect 7 0 2 0;
#X connect 8 0 0 0;
#X connect 8 0 3 0;
#X connect 8 0 5 0;
#X connect 9 0 10 1;
#X connect 9 0 11 1;
#X connect 9 0 12 1;
#X connect 10 0 1 0;
#X connect 11 0 4 0;
#X connect 12 0 6 0;
#X connect 14 0 10 0;
#X connect 15 0 11 0;
#X connect 16 0 12 0;
#X restore 299 82 pd tripleRnd;
#N canvas 0 0 353 257 tripleRnd 0;
#X obj 12 63 random 100;
#X obj 12 149 line;
#X obj 12 219 outlet;
#X obj 92 64 random 100;
#X obj 92 145 line;
#X obj 170 64 random 100;
#X obj 170 145 line;
#X obj 12 189 pack f f f;
#X obj 12 12 r bang_forme2;
#X obj 231 9 r line_forme2;
#X obj 12 121 pack 0 2000;
#X obj 92 122 pack 0 2000;
#X obj 170 122 pack 0 2000;
#X obj 58 104;
#X obj 12 90 / 20;
#X obj 92 91 / 20;
#X obj 170 91 / 20;
#X connect 0 0 14 0;
#X connect 1 0 7 0;
#X connect 3 0 15 0;
#X connect 4 0 7 1;
#X connect 5 0 16 0;
#X connect 6 0 7 2;
#X connect 7 0 2 0;
#X connect 8 0 0 0;
#X connect 8 0 3 0;
#X connect 8 0 5 0;
#X connect 9 0 10 1;
#X connect 9 0 11 1;
#X connect 9 0 12 1;
#X connect 10 0 1 0;
#X connect 11 0 4 0;
#X connect 12 0 6 0;
#X connect 14 0 10 0;
#X connect 15 0 11 0;
#X connect 16 0 12 0;
#X restore 423 82 pd tripleRnd;
#N canvas 0 0 353 257 tripleRnd 0;
#X obj 12 63 random 100;
#X obj 12 149 line;
#X obj 12 219 outlet;
#X obj 92 64 random 100;
#X obj 92 145 line;
#X obj 170 64 random 100;
#X obj 170 145 line;
#X obj 12 189 pack f f f;
#X obj 12 12 r bang_forme2;
#X obj 231 9 r line_forme2;
#X obj 12 121 pack 0 2000;
#X obj 92 122 pack 0 2000;
#X obj 170 122 pack 0 2000;
#X obj 58 104;
#X obj 12 90 / 20;
#X obj 92 91 / 20;
#X obj 170 91 / 20;
#X connect 0 0 14 0;
#X connect 1 0 7 0;
#X connect 3 0 15 0;
#X connect 4 0 7 1;
#X connect 5 0 16 0;
#X connect 6 0 7 2;
#X connect 7 0 2 0;
#X connect 8 0 0 0;
#X connect 8 0 3 0;
#X connect 8 0 5 0;
#X connect 9 0 10 1;
#X connect 9 0 11 1;
#X connect 9 0 12 1;
#X connect 10 0 1 0;
#X connect 11 0 4 0;
#X connect 12 0 6 0;
#X connect 14 0 10 0;
#X connect 15 0 11 0;
#X connect 16 0 12 0;
#X restore 558 82 pd tripleRnd;
#N canvas 0 0 353 257 tripleRnd 0;
#X obj 12 63 random 100;
#X obj 12 149 line;
#X obj 12 219 outlet;
#X obj 92 64 random 100;
#X obj 92 145 line;
#X obj 170 64 random 100;
#X obj 170 145 line;
#X obj 12 189 pack f f f;
#X obj 12 12 r bang_forme2;
#X obj 231 9 r line_forme2;
#X obj 12 121 pack 0 2000;
#X obj 92 122 pack 0 2000;
#X obj 170 122 pack 0 2000;
#X obj 58 104;
#X obj 12 90 / 20;
#X obj 92 91 / 20;
#X obj 170 91 / 20;
#X connect 0 0 14 0;
#X connect 1 0 7 0;
#X connect 3 0 15 0;
#X connect 4 0 7 1;
#X connect 5 0 16 0;
#X connect 6 0 7 2;
#X connect 7 0 2 0;
#X connect 8 0 0 0;
#X connect 8 0 3 0;
#X connect 8 0 5 0;
#X connect 9 0 10 1;
#X connect 9 0 11 1;
#X connect 9 0 12 1;
#X connect 10 0 1 0;
#X connect 11 0 4 0;
#X connect 12 0 6 0;
#X connect 14 0 10 0;
#X connect 15 0 11 0;
#X connect 16 0 12 0;
#X restore 161 152 pd tripleRnd;
#N canvas 0 0 353 257 tripleRnd 0;
#X obj 12 63 random 100;
#X obj 12 149 line;
#X obj 12 219 outlet;
#X obj 92 64 random 100;
#X obj 92 145 line;
#X obj 170 64 random 100;
#X obj 170 145 line;
#X obj 12 189 pack f f f;
#X obj 12 12 r bang_forme2;
#X obj 231 9 r line_forme2;
#X obj 12 121 pack 0 2000;
#X obj 92 122 pack 0 2000;
#X obj 170 122 pack 0 2000;
#X obj 58 104;
#X obj 12 90 / 20;
#X obj 92 91 / 20;
#X obj 170 91 / 20;
#X connect 0 0 14 0;
#X connect 1 0 7 0;
#X connect 3 0 15 0;
#X connect 4 0 7 1;
#X connect 5 0 16 0;
#X connect 6 0 7 2;
#X connect 7 0 2 0;
#X connect 8 0 0 0;
#X connect 8 0 3 0;
#X connect 8 0 5 0;
#X connect 9 0 10 1;
#X connect 9 0 11 1;
#X connect 9 0 12 1;
#X connect 10 0 1 0;
#X connect 11 0 4 0;
#X connect 12 0 6 0;
#X connect 14 0 10 0;
#X connect 15 0 11 0;
#X connect 16 0 12 0;
#X restore 161 238 pd tripleRnd;
#N canvas 0 0 353 257 tripleRnd 0;
#X obj 12 63 random 100;
#X obj 12 149 line;
#X obj 12 219 outlet;
#X obj 92 64 random 100;
#X obj 92 145 line;
#X obj 170 64 random 100;
#X obj 170 145 line;
#X obj 12 189 pack f f f;
#X obj 12 12 r bang_forme2;
#X obj 231 9 r line_forme2;
#X obj 12 121 pack 0 2000;
#X obj 92 122 pack 0 2000;
#X obj 170 122 pack 0 2000;
#X obj 58 104;
#X obj 12 90 / 20;
#X obj 92 91 / 20;
#X obj 170 91 / 20;
#X connect 0 0 14 0;
#X connect 1 0 7 0;
#X connect 3 0 15 0;
#X connect 4 0 7 1;
#X connect 5 0 16 0;
#X connect 6 0 7 2;
#X connect 7 0 2 0;
#X connect 8 0 0 0;
#X connect 8 0 3 0;
#X connect 8 0 5 0;
#X connect 9 0 10 1;
#X connect 9 0 11 1;
#X connect 9 0 12 1;
#X connect 10 0 1 0;
#X connect 11 0 4 0;
#X connect 12 0 6 0;
#X connect 14 0 10 0;
#X connect 15 0 11 0;
#X connect 16 0 12 0;
#X restore 162 309 pd tripleRnd;
#N canvas 0 0 353 257 tripleRnd 0;
#X obj 12 63 random 100;
#X obj 12 149 line;
#X obj 12 219 outlet;
#X obj 92 64 random 100;
#X obj 92 145 line;
#X obj 170 64 random 100;
#X obj 170 145 line;
#X obj 12 189 pack f f f;
#X obj 12 12 r bang_forme2;
#X obj 231 9 r line_forme2;
#X obj 12 121 pack 0 2000;
#X obj 92 122 pack 0 2000;
#X obj 170 122 pack 0 2000;
#X obj 58 104;
#X obj 12 90 / 20;
#X obj 92 91 / 20;
#X obj 170 91 / 20;
#X connect 0 0 14 0;
#X connect 1 0 7 0;
#X connect 3 0 15 0;
#X connect 4 0 7 1;
#X connect 5 0 16 0;
#X connect 6 0 7 2;
#X connect 7 0 2 0;
#X connect 8 0 0 0;
#X connect 8 0 3 0;
#X connect 8 0 5 0;
#X connect 9 0 10 1;
#X connect 9 0 11 1;
#X connect 9 0 12 1;
#X connect 10 0 1 0;
#X connect 11 0 4 0;
#X connect 12 0 6 0;
#X connect 14 0 10 0;
#X connect 15 0 11 0;
#X connect 16 0 12 0;
#X restore 162 366 pd tripleRnd;
#N canvas 0 0 353 257 tripleRnd 0;
#X obj 12 63 random 100;
#X obj 12 149 line;
#X obj 12 219 outlet;
#X obj 92 64 random 100;
#X obj 92 145 line;
#X obj 170 64 random 100;
#X obj 170 145 line;
#X obj 12 189 pack f f f;
#X obj 12 12 r bang_forme2;
#X obj 231 9 r line_forme2;
#X obj 12 121 pack 0 2000;
#X obj 92 122 pack 0 2000;
#X obj 170 122 pack 0 2000;
#X obj 58 104;
#X obj 12 90 / 20;
#X obj 92 91 / 20;
#X obj 170 91 / 20;
#X connect 0 0 14 0;
#X connect 1 0 7 0;
#X connect 3 0 15 0;
#X connect 4 0 7 1;
#X connect 5 0 16 0;
#X connect 6 0 7 2;
#X connect 7 0 2 0;
#X connect 8 0 0 0;
#X connect 8 0 3 0;
#X connect 8 0 5 0;
#X connect 9 0 10 1;
#X connect 9 0 11 1;
#X connect 9 0 12 1;
#X connect 10 0 1 0;
#X connect 11 0 4 0;
#X connect 12 0 6 0;
#X connect 14 0 10 0;
#X connect 15 0 11 0;
#X connect 16 0 12 0;
#X restore 298 366 pd tripleRnd;
#N canvas 0 0 353 257 tripleRnd 0;
#X obj 12 63 random 100;
#X obj 12 149 line;
#X obj 12 219 outlet;
#X obj 92 64 random 100;
#X obj 92 145 line;
#X obj 170 64 random 100;
#X obj 170 145 line;
#X obj 12 189 pack f f f;
#X obj 12 12 r bang_forme2;
#X obj 231 9 r line_forme2;
#X obj 12 121 pack 0 2000;
#X obj 92 122 pack 0 2000;
#X obj 170 122 pack 0 2000;
#X obj 58 104;
#X obj 12 90 / 20;
#X obj 92 91 / 20;
#X obj 170 91 / 20;
#X connect 0 0 14 0;
#X connect 1 0 7 0;
#X connect 3 0 15 0;
#X connect 4 0 7 1;
#X connect 5 0 16 0;
#X connect 6 0 7 2;
#X connect 7 0 2 0;
#X connect 8 0 0 0;
#X connect 8 0 3 0;
#X connect 8 0 5 0;
#X connect 9 0 10 1;
#X connect 9 0 11 1;
#X connect 9 0 12 1;
#X connect 10 0 1 0;
#X connect 11 0 4 0;
#X connect 12 0 6 0;
#X connect 14 0 10 0;
#X connect 15 0 11 0;
#X connect 16 0 12 0;
#X restore 424 366 pd tripleRnd;
#N canvas 0 0 353 257 tripleRnd 0;
#X obj 12 63 random 100;
#X obj 12 149 line;
#X obj 12 219 outlet;
#X obj 92 64 random 100;
#X obj 92 145 line;
#X obj 170 64 random 100;
#X obj 170 145 line;
#X obj 12 189 pack f f f;
#X obj 12 12 r bang_forme2;
#X obj 231 9 r line_forme2;
#X obj 12 121 pack 0 2000;
#X obj 92 122 pack 0 2000;
#X obj 170 122 pack 0 2000;
#X obj 58 104;
#X obj 12 90 / 20;
#X obj 92 91 / 20;
#X obj 170 91 / 20;
#X connect 0 0 14 0;
#X connect 1 0 7 0;
#X connect 3 0 15 0;
#X connect 4 0 7 1;
#X connect 5 0 16 0;
#X connect 6 0 7 2;
#X connect 7 0 2 0;
#X connect 8 0 0 0;
#X connect 8 0 3 0;
#X connect 8 0 5 0;
#X connect 9 0 10 1;
#X connect 9 0 11 1;
#X connect 9 0 12 1;
#X connect 10 0 1 0;
#X connect 11 0 4 0;
#X connect 12 0 6 0;
#X connect 14 0 10 0;
#X connect 15 0 11 0;
#X connect 16 0 12 0;
#X restore 557 360 pd tripleRnd;
#N canvas 0 0 353 257 tripleRnd 0;
#X obj 12 63 random 100;
#X obj 12 149 line;
#X obj 12 219 outlet;
#X obj 92 64 random 100;
#X obj 92 145 line;
#X obj 170 64 random 100;
#X obj 170 145 line;
#X obj 12 189 pack f f f;
#X obj 12 12 r bang_forme2;
#X obj 231 9 r line_forme2;
#X obj 12 121 pack 0 2000;
#X obj 92 122 pack 0 2000;
#X obj 170 122 pack 0 2000;
#X obj 58 104;
#X obj 12 90 / 20;
#X obj 92 91 / 20;
#X obj 170 91 / 20;
#X connect 0 0 14 0;
#X connect 1 0 7 0;
#X connect 3 0 15 0;
#X connect 4 0 7 1;
#X connect 5 0 16 0;
#X connect 6 0 7 2;
#X connect 7 0 2 0;
#X connect 8 0 0 0;
#X connect 8 0 3 0;
#X connect 8 0 5 0;
#X connect 9 0 10 1;
#X connect 9 0 11 1;
#X connect 9 0 12 1;
#X connect 10 0 1 0;
#X connect 11 0 4 0;
#X connect 12 0 6 0;
#X connect 14 0 10 0;
#X connect 15 0 11 0;
#X connect 16 0 12 0;
#X restore 298 309 pd tripleRnd;
#N canvas 0 0 353 257 tripleRnd 0;
#X obj 12 63 random 100;
#X obj 12 149 line;
#X obj 12 219 outlet;
#X obj 92 64 random 100;
#X obj 92 145 line;
#X obj 170 64 random 100;
#X obj 170 145 line;
#X obj 12 189 pack f f f;
#X obj 12 12 r bang_forme2;
#X obj 231 9 r line_forme2;
#X obj 12 121 pack 0 2000;
#X obj 92 122 pack 0 2000;
#X obj 170 122 pack 0 2000;
#X obj 58 104;
#X obj 12 90 / 20;
#X obj 92 91 / 20;
#X obj 170 91 / 20;
#X connect 0 0 14 0;
#X connect 1 0 7 0;
#X connect 3 0 15 0;
#X connect 4 0 7 1;
#X connect 5 0 16 0;
#X connect 6 0 7 2;
#X connect 7 0 2 0;
#X connect 8 0 0 0;
#X connect 8 0 3 0;
#X connect 8 0 5 0;
#X connect 9 0 10 1;
#X connect 9 0 11 1;
#X connect 9 0 12 1;
#X connect 10 0 1 0;
#X connect 11 0 4 0;
#X connect 12 0 6 0;
#X connect 14 0 10 0;
#X connect 15 0 11 0;
#X connect 16 0 12 0;
#X restore 434 309 pd tripleRnd;
#N canvas 0 0 353 257 tripleRnd 0;
#X obj 12 63 random 100;
#X obj 12 149 line;
#X obj 12 219 outlet;
#X obj 92 64 random 100;
#X obj 92 145 line;
#X obj 170 64 random 100;
#X obj 170 145 line;
#X obj 12 189 pack f f f;
#X obj 12 12 r bang_forme2;
#X obj 231 9 r line_forme2;
#X obj 12 121 pack 0 2000;
#X obj 92 122 pack 0 2000;
#X obj 170 122 pack 0 2000;
#X obj 58 104;
#X obj 12 90 / 20;
#X obj 92 91 / 20;
#X obj 170 91 / 20;
#X connect 0 0 14 0;
#X connect 1 0 7 0;
#X connect 3 0 15 0;
#X connect 4 0 7 1;
#X connect 5 0 16 0;
#X connect 6 0 7 2;
#X connect 7 0 2 0;
#X connect 8 0 0 0;
#X connect 8 0 3 0;
#X connect 8 0 5 0;
#X connect 9 0 10 1;
#X connect 9 0 11 1;
#X connect 9 0 12 1;
#X connect 10 0 1 0;
#X connect 11 0 4 0;
#X connect 12 0 6 0;
#X connect 14 0 10 0;
#X connect 15 0 11 0;
#X connect 16 0 12 0;
#X restore 553 298 pd tripleRnd;
#N canvas 0 0 353 257 tripleRnd 0;
#X obj 12 63 random 100;
#X obj 12 149 line;
#X obj 12 219 outlet;
#X obj 92 64 random 100;
#X obj 92 145 line;
#X obj 170 64 random 100;
#X obj 170 145 line;
#X obj 12 189 pack f f f;
#X obj 12 12 r bang_forme2;
#X obj 231 9 r line_forme2;
#X obj 12 121 pack 0 2000;
#X obj 92 122 pack 0 2000;
#X obj 170 122 pack 0 2000;
#X obj 58 104;
#X obj 12 90 / 20;
#X obj 92 91 / 20;
#X obj 170 91 / 20;
#X connect 0 0 14 0;
#X connect 1 0 7 0;
#X connect 3 0 15 0;
#X connect 4 0 7 1;
#X connect 5 0 16 0;
#X connect 6 0 7 2;
#X connect 7 0 2 0;
#X connect 8 0 0 0;
#X connect 8 0 3 0;
#X connect 8 0 5 0;
#X connect 9 0 10 1;
#X connect 9 0 11 1;
#X connect 9 0 12 1;
#X connect 10 0 1 0;
#X connect 11 0 4 0;
#X connect 12 0 6 0;
#X connect 14 0 10 0;
#X connect 15 0 11 0;
#X connect 16 0 12 0;
#X restore 298 238 pd tripleRnd;
#N canvas 0 0 353 257 tripleRnd 0;
#X obj 12 63 random 100;
#X obj 12 149 line;
#X obj 12 219 outlet;
#X obj 92 64 random 100;
#X obj 92 145 line;
#X obj 170 64 random 100;
#X obj 170 145 line;
#X obj 12 189 pack f f f;
#X obj 12 12 r bang_forme2;
#X obj 231 9 r line_forme2;
#X obj 12 121 pack 0 2000;
#X obj 92 122 pack 0 2000;
#X obj 170 122 pack 0 2000;
#X obj 58 104;
#X obj 12 90 / 20;
#X obj 92 91 / 20;
#X obj 170 91 / 20;
#X connect 0 0 14 0;
#X connect 1 0 7 0;
#X connect 3 0 15 0;
#X connect 4 0 7 1;
#X connect 5 0 16 0;
#X connect 6 0 7 2;
#X connect 7 0 2 0;
#X connect 8 0 0 0;
#X connect 8 0 3 0;
#X connect 8 0 5 0;
#X connect 9 0 10 1;
#X connect 9 0 11 1;
#X connect 9 0 12 1;
#X connect 10 0 1 0;
#X connect 11 0 4 0;
#X connect 12 0 6 0;
#X connect 14 0 10 0;
#X connect 15 0 11 0;
#X connect 16 0 12 0;
#X restore 435 230 pd tripleRnd;
#N canvas 0 0 353 257 tripleRnd 0;
#X obj 12 63 random 100;
#X obj 12 149 line;
#X obj 12 219 outlet;
#X obj 92 64 random 100;
#X obj 92 145 line;
#X obj 170 64 random 100;
#X obj 170 145 line;
#X obj 12 189 pack f f f;
#X obj 12 12 r bang_forme2;
#X obj 231 9 r line_forme2;
#X obj 12 121 pack 0 2000;
#X obj 92 122 pack 0 2000;
#X obj 170 122 pack 0 2000;
#X obj 58 104;
#X obj 12 90 / 20;
#X obj 92 91 / 20;
#X obj 170 91 / 20;
#X connect 0 0 14 0;
#X connect 1 0 7 0;
#X connect 3 0 15 0;
#X connect 4 0 7 1;
#X connect 5 0 16 0;
#X connect 6 0 7 2;
#X connect 7 0 2 0;
#X connect 8 0 0 0;
#X connect 8 0 3 0;
#X connect 8 0 5 0;
#X connect 9 0 10 1;
#X connect 9 0 11 1;
#X connect 9 0 12 1;
#X connect 10 0 1 0;
#X connect 11 0 4 0;
#X connect 12 0 6 0;
#X connect 14 0 10 0;
#X connect 15 0 11 0;
#X connect 16 0 12 0;
#X restore 572 222 pd tripleRnd;
#N canvas 0 0 353 257 tripleRnd 0;
#X obj 12 63 random 100;
#X obj 12 149 line;
#X obj 12 219 outlet;
#X obj 92 64 random 100;
#X obj 92 145 line;
#X obj 170 64 random 100;
#X obj 170 145 line;
#X obj 12 189 pack f f f;
#X obj 12 12 r bang_forme2;
#X obj 231 9 r line_forme2;
#X obj 12 121 pack 0 2000;
#X obj 92 122 pack 0 2000;
#X obj 170 122 pack 0 2000;
#X obj 58 104;
#X obj 12 90 / 20;
#X obj 92 91 / 20;
#X obj 170 91 / 20;
#X connect 0 0 14 0;
#X connect 1 0 7 0;
#X connect 3 0 15 0;
#X connect 4 0 7 1;
#X connect 5 0 16 0;
#X connect 6 0 7 2;
#X connect 7 0 2 0;
#X connect 8 0 0 0;
#X connect 8 0 3 0;
#X connect 8 0 5 0;
#X connect 9 0 10 1;
#X connect 9 0 11 1;
#X connect 9 0 12 1;
#X connect 10 0 1 0;
#X connect 11 0 4 0;
#X connect 12 0 6 0;
#X connect 14 0 10 0;
#X connect 15 0 11 0;
#X connect 16 0 12 0;
#X restore 299 158 pd tripleRnd;
#N canvas 0 0 353 257 tripleRnd 0;
#X obj 12 63 random 100;
#X obj 12 149 line;
#X obj 12 219 outlet;
#X obj 92 64 random 100;
#X obj 92 145 line;
#X obj 170 64 random 100;
#X obj 170 145 line;
#X obj 12 189 pack f f f;
#X obj 12 12 r bang_forme2;
#X obj 231 9 r line_forme2;
#X obj 12 121 pack 0 2000;
#X obj 92 122 pack 0 2000;
#X obj 170 122 pack 0 2000;
#X obj 58 104;
#X obj 12 90 / 20;
#X obj 92 91 / 20;
#X obj 170 91 / 20;
#X connect 0 0 14 0;
#X connect 1 0 7 0;
#X connect 3 0 15 0;
#X connect 4 0 7 1;
#X connect 5 0 16 0;
#X connect 6 0 7 2;
#X connect 7 0 2 0;
#X connect 8 0 0 0;
#X connect 8 0 3 0;
#X connect 8 0 5 0;
#X connect 9 0 10 1;
#X connect 9 0 11 1;
#X connect 9 0 12 1;
#X connect 10 0 1 0;
#X connect 11 0 4 0;
#X connect 12 0 6 0;
#X connect 14 0 10 0;
#X connect 15 0 11 0;
#X connect 16 0 12 0;
#X restore 424 158 pd tripleRnd;
#N canvas 0 0 353 257 tripleRnd 0;
#X obj 12 63 random 100;
#X obj 12 149 line;
#X obj 12 219 outlet;
#X obj 92 64 random 100;
#X obj 92 145 line;
#X obj 170 64 random 100;
#X obj 170 145 line;
#X obj 12 189 pack f f f;
#X obj 12 12 r bang_forme2;
#X obj 231 9 r line_forme2;
#X obj 12 121 pack 0 2000;
#X obj 92 122 pack 0 2000;
#X obj 170 122 pack 0 2000;
#X obj 58 104;
#X obj 12 90 / 20;
#X obj 92 91 / 20;
#X obj 170 91 / 20;
#X connect 0 0 14 0;
#X connect 1 0 7 0;
#X connect 3 0 15 0;
#X connect 4 0 7 1;
#X connect 5 0 16 0;
#X connect 6 0 7 2;
#X connect 7 0 2 0;
#X connect 8 0 0 0;
#X connect 8 0 3 0;
#X connect 8 0 5 0;
#X connect 9 0 10 1;
#X connect 9 0 11 1;
#X connect 9 0 12 1;
#X connect 10 0 1 0;
#X connect 11 0 4 0;
#X connect 12 0 6 0;
#X connect 14 0 10 0;
#X connect 15 0 11 0;
#X connect 16 0 12 0;
#X restore 569 152 pd tripleRnd;
#X connect 0 0 7 0;
#X connect 1 0 26 0;
#X connect 2 0 26 0;
#X connect 3 0 26 0;
#X connect 4 0 26 0;
#X connect 5 0 26 0;
#X connect 6 0 26 0;
#X connect 7 0 26 0;
#X connect 8 0 26 0;
#X connect 9 0 26 0;
#X connect 10 0 26 0;
#X connect 11 0 26 0;
#X connect 12 0 26 0;
#X connect 13 0 26 0;
#X connect 14 0 26 0;
#X connect 15 0 26 0;
#X connect 16 0 26 0;
#X connect 17 0 26 0;
#X connect 18 0 26 0;
#X connect 19 0 26 0;
#X connect 20 0 26 0;
#X connect 21 0 26 0;
#X connect 22 0 26 0;
#X connect 23 0 26 0;
#X connect 24 0 26 0;
#X connect 25 0 26 0;
#X connect 27 0 28 0;
#X connect 30 0 8 0;
#X connect 31 0 1 0;
#X connect 32 0 10 0;
#X connect 33 0 21 0;
#X connect 34 0 6 0;
#X connect 35 0 5 0;
#X connect 36 0 13 0;
#X connect 37 0 17 0;
#X connect 38 0 9 0;
#X connect 39 0 2 0;
#X connect 40 0 11 0;
#X connect 41 0 22 0;
#X connect 42 0 23 0;
#X connect 43 0 24 0;
#X connect 44 0 25 0;
#X connect 45 0 12 0;
#X connect 46 0 16 0;
#X connect 47 0 20 0;
#X connect 48 0 3 0;
#X connect 49 0 15 0;
#X connect 50 0 19 0;
#X connect 51 0 4 0;
#X connect 52 0 14 0;
#X connect 53 0 18 0;
#X restore 1585 374 pd forme2;
#X obj 1586 336 bng 23 250 50 0 empty empty empty 0 -6 0 8 #fcfcfc #000000 #000000;
#X obj 2056 639 curve3d 5 5;
#X obj 2056 305 translateXYZ 0 0 0;
#X obj 1292 1192 osc~ 0.014;
#X obj 1585 303 notein 1;
#X obj 2672 1823;
#X obj 257 688 part_source 20;
#X obj 658 718 part_source 20;
#X msg 290 895 1 1 1;
#X msg 679 921 1 1 1;
#X obj 257 822 part_killold 12;
#X obj 658 844 part_killold 12;
#X obj 2088 267 nbx 4 18 -1e+37 1e+37 0 1 empty empty empty 0 -8 0 10 #191919 #ffffff #ffffff -2.5 256;
#X obj 2150 267 nbx 4 18 -1e+37 1e+37 0 1 empty empty empty 0 -8 0 10 #191919 #ffffff #ffffff -2.5 256;
#X obj 2213 267 nbx 4 18 -1e+37 1e+37 0 1 empty empty empty 0 -8 0 10 #191919 #ffffff #ffffff 0 256;
#X obj 1382 1114 loadbang;
#X obj 1234 234 line;
#X obj 1301 166 bng 25 250 50 0 empty empty empty 17 7 0 10 #e4e4e4 #4d4d4d #373737;
#X obj 1234 267 nbx 4 18 -1e+37 1e+37 0 0 empty empty empty 0 -8 0 10 #e4e4e4 #373737 #373737 0 256;
#X obj 1234 166 bng 25 250 50 0 empty empty empty 17 7 0 10 #e4e4e4 #4d4d4d #373737;
#X msg 1234 204 0 10;
#X obj 1372 166 bng 25 250 50 0 empty empty empty 17 7 0 10 #e4e4e4 #4d4d4d #373737;
#X obj 1301 133 delay 10;
#X obj 1234 133 notein 1;
#X obj 1142 394 color;
#X obj 1174 356 pack f f f f;
#X obj 1294 294 tgl 25 0 empty empty empty 17 7 0 10 #e4e4e4 #4d4d4d #373737 0 1;
#X obj 1246 329 metro 50;
#X obj 1154 294 loadbang;
#X obj 1075 322 gemhead;
#X obj 1107 356 alpha 1;
#X obj 1061 394 loadbang;
#X msg 1061 428 draw line;
#X obj 2293 343 vsl 24 92 0 127 0 0 empty empty empty 0 -9 0 10 #e4e4e4 #4d4d4d #373737 0 1;
#X obj 2293 459 nbx 4 18 -1e+37 1e+37 0 0 empty empty empty 0 -8 0 10 #e4e4e4 #373737 #373737 0 256;
#X obj 2056 525 color;
#X obj 2148 499 pack f f f f;
#X obj 2224 413 tgl 25 0 empty empty empty 17 7 0 10 #e4e4e4 #4d4d4d #373737 0 1;
#X obj 2214 459 metro 50;
#X obj 2148 425 loadbang;
#X obj 2056 471 alpha 1;
#X obj 2293 252 line;
#X obj 2293 295 nbx 4 18 -1e+37 1e+37 0 0 empty empty empty 0 -8 0 10 #e4e4e4 #373737 #373737 0 256;
#X obj 2362 163 bng 25 250 50 0 empty empty empty 17 7 0 10 #e4e4e4 #4d4d4d #373737;
#X obj 2294 163 bng 25 250 50 0 empty empty empty 17 7 0 10 #e4e4e4 #4d4d4d #373737;
#X obj 2362 128 delay 10;
#X msg 2294 203 0 10;
#X msg 99 272 gemwin FSAA 8;
#X obj 1135 1712 sphere;
#X msg 1062 1668 draw line;
#X msg 566 1199 width 2.5;
#X msg 169 1199 width 2.5;
#X msg 1203 428 width 2.5;
#X obj 99 243 gemwin 60;
#X obj 982 1632 loadbang;
#X obj 566 1161 loadbang;
#X obj 169 1161 loadbang;
#X obj 1384 1192 metro 20;
#X msg 1287 204 0.75 500;
#X obj 1142 456 circle;
#X obj 1203 394 loadbang;
#X obj 1167 1668 nbx 4 18 -1e+37 1e+37 0 0 empty empty empty 0 -8 0 10 #191919 #ffffff #ffffff 0 256;
#X obj 1170 1579 bng 25 250 50 0 empty empty empty 17 7 0 10 #e4e4e4 #4d4d4d #373737;
#X obj 1170 1537 notein 2;
#X obj 1167 1626 random 20;
#X msg 1372 204 0;
#X obj 1372 133 notein 2;
#X msg 1225 1137 2.5 1200;
#X msg 1175 1137 0.8;
#X msg 982 1668 width 3;
#X obj 2821 227 gemhead;
#X floatatom 2847 362 5 0 0 0 - - - 0;
#X floatatom 2889 362 5 0 0 0 - - - 0;
#X floatatom 2931 362 5 0 0 0 - - - 0;
#X obj 2821 403 rotateXYZ 0 0 0;
#X obj 2821 646 curve3d 5 5;
#X obj 2821 320 translateXYZ 0 0 0;
#X obj 2853 274 nbx 4 18 -1e+37 1e+37 0 1 empty empty empty 0 -8 0 10 #191919 #ffffff #ffffff -2.5 256;
#X obj 2911 274 nbx 4 18 -1e+37 1e+37 0 1 empty empty empty 0 -8 0 10 #191919 #ffffff #ffffff -2.5 256;
#X obj 2973 274 nbx 4 18 -1e+37 1e+37 0 1 empty empty empty 0 -8 0 10 #191919 #ffffff #ffffff -3 256;
#X obj 3057 345 vsl 24 92 0 127 0 0 empty empty empty 0 -9 0 10 #e4e4e4 #4d4d4d #373737 0 1;
#X obj 3057 455 nbx 4 18 -1e+37 1e+37 0 0 empty empty empty 0 -8 0 10 #e4e4e4 #373737 #373737 0 256;
#X obj 2821 541 color;
#X obj 2893 503 pack f f f f;
#X obj 2973 409 tgl 25 0 empty empty empty 17 7 0 10 #e4e4e4 #4d4d4d #373737 0 1;
#X obj 2973 455 metro 50;
#X obj 2893 433 loadbang;
#X obj 2821 488 alpha 1;
#X obj 3056 251 line;
#X obj 3056 281 nbx 4 18 -1e+37 1e+37 0 0 empty empty empty 0 -8 0 10 #e4e4e4 #373737 #373737 0 256;
#X obj 3116 166 bng 25 250 50 0 empty empty empty 17 7 0 10 #e4e4e4 #4d4d4d #373737;
#X obj 3055 166 bng 25 250 50 0 empty empty empty 17 7 0 10 #e4e4e4 #4d4d4d #373737;
#X obj 3116 131 delay 10;
#X msg 3055 206 0 10;
#N canvas 253 49 691 493 forme2 0;
#N canvas 0 0 353 257 tripleRnd 0;
#X obj 12 63 random 100;
#X obj 12 149 line;
#X obj 12 219 outlet;
#X obj 92 64 random 100;
#X obj 92 145 line;
#X obj 170 64 random 100;
#X obj 170 145 line;
#X obj 12 189 pack f f f;
#X obj 12 12 r bang_forme2;
#X obj 231 9 r line_forme2;
#X obj 12 121 pack 0 2000;
#X obj 92 122 pack 0 2000;
#X obj 170 122 pack 0 2000;
#X obj 58 104;
#X obj 12 90 / 20;
#X obj 92 91 / 20;
#X obj 170 91 / 20;
#X connect 0 0 14 0;
#X connect 1 0 7 0;
#X connect 3 0 15 0;
#X connect 4 0 7 1;
#X connect 5 0 16 0;
#X connect 6 0 7 2;
#X connect 7 0 2 0;
#X connect 8 0 0 0;
#X connect 8 0 3 0;
#X connect 8 0 5 0;
#X connect 9 0 10 1;
#X connect 9 0 11 1;
#X connect 9 0 12 1;
#X connect 10 0 1 0;
#X connect 11 0 4 0;
#X connect 12 0 6 0;
#X connect 14 0 10 0;
#X connect 15 0 11 0;
#X connect 16 0 12 0;
#X restore 28 92 pd tripleRnd;
#X msg 26 270 set 2 0 \$1 \$2 \$3;
#X msg 161 269 set 2 1 \$1 \$2 \$3;
#X msg 298 269 set 2 2 \$1 \$2 \$3;
#X msg 299 190 set 1 2 \$1 \$2 \$3;
#X msg 299 112 set 0 2 \$1 \$2 \$3;
#X msg 161 112 set 0 1 \$1 \$2 \$3;
#X msg 28 114 set 0 0 \$1 \$2 \$3;
#X msg 29 193 set 1 0 \$1 \$2 \$3;
#X msg 161 189 set 1 1 \$1 \$2 \$3;
#X msg 26 337 set 3 0 \$1 \$2 \$3;
#X msg 162 336 set 3 1 \$1 \$2 \$3;
#X msg 298 338 set 3 2 \$1 \$2 \$3;
#X msg 423 111 set 0 3 \$1 \$2 \$3;
#X msg 424 189 set 1 3 \$1 \$2 \$3;
#X msg 424 265 set 2 3 \$1 \$2 \$3;
#X msg 423 335 set 3 3 \$1 \$2 \$3;
#X msg 544 109 set 0 4 \$1 \$2 \$3;
#X msg 545 187 set 1 4 \$1 \$2 \$3;
#X msg 540 263 set 2 4 \$1 \$2 \$3;
#X msg 543 333 set 3 4 \$1 \$2 \$3;
#X msg 28 399 set 4 0 \$1 \$2 \$3;
#X msg 162 392 set 4 1 \$1 \$2 \$3;
#X msg 299 393 set 4 2 \$1 \$2 \$3;
#X msg 424 391 set 4 3 \$1 \$2 \$3;
#X msg 545 389 set 4 4 \$1 \$2 \$3;
#X obj 10 445 outlet;
#X obj 36 15 inlet;
#X obj 36 39 s bang_forme2;
#X obj 248 583;
#N canvas 0 0 353 257 tripleRnd 0;
#X obj 12 63 random 100;
#X obj 12 149 line;
#X obj 12 219 outlet;
#X obj 92 64 random 100;
#X obj 92 145 line;
#X obj 170 64 random 100;
#X obj 170 145 line;
#X obj 12 189 pack f f f;
#X obj 12 12 r bang_forme2;
#X obj 231 9 r line_forme2;
#X obj 12 121 pack 0 2000;
#X obj 92 122 pack 0 2000;
#X obj 170 122 pack 0 2000;
#X obj 58 104;
#X obj 12 90 / 20;
#X obj 92 91 / 20;
#X obj 170 91 / 20;
#X connect 0 0 14 0;
#X connect 1 0 7 0;
#X connect 3 0 15 0;
#X connect 4 0 7 1;
#X connect 5 0 16 0;
#X connect 6 0 7 2;
#X connect 7 0 2 0;
#X connect 8 0 0 0;
#X connect 8 0 3 0;
#X connect 8 0 5 0;
#X connect 9 0 10 1;
#X connect 9 0 11 1;
#X connect 9 0 12 1;
#X connect 10 0 1 0;
#X connect 11 0 4 0;
#X connect 12 0 6 0;
#X connect 14 0 10 0;
#X connect 15 0 11 0;
#X connect 16 0 12 0;
#X restore 29 164 pd tripleRnd;
#N canvas 0 0 353 257 tripleRnd 0;
#X obj 12 63 random 100;
#X obj 12 149 line;
#X obj 12 219 outlet;
#X obj 92 64 random 100;
#X obj 92 145 line;
#X obj 170 64 random 100;
#X obj 170 145 line;
#X obj 12 189 pack f f f;
#X obj 12 12 r bang_forme2;
#X obj 231 9 r line_forme2;
#X obj 12 121 pack 0 2000;
#X obj 92 122 pack 0 2000;
#X obj 170 122 pack 0 2000;
#X obj 58 104;
#X obj 12 90 / 20;
#X obj 92 91 / 20;
#X obj 170 91 / 20;
#X connect 0 0 14 0;
#X connect 1 0 7 0;
#X connect 3 0 15 0;
#X connect 4 0 7 1;
#X connect 5 0 16 0;
#X connect 6 0 7 2;
#X connect 7 0 2 0;
#X connect 8 0 0 0;
#X connect 8 0 3 0;
#X connect 8 0 5 0;
#X connect 9 0 10 1;
#X connect 9 0 11 1;
#X connect 9 0 12 1;
#X connect 10 0 1 0;
#X connect 11 0 4 0;
#X connect 12 0 6 0;
#X connect 14 0 10 0;
#X connect 15 0 11 0;
#X connect 16 0 12 0;
#X restore 29 238 pd tripleRnd;
#N canvas 0 0 353 257 tripleRnd 0;
#X obj 12 63 random 100;
#X obj 12 149 line;
#X obj 12 219 outlet;
#X obj 92 64 random 100;
#X obj 92 145 line;
#X obj 170 64 random 100;
#X obj 170 145 line;
#X obj 12 189 pack f f f;
#X obj 12 12 r bang_forme2;
#X obj 231 9 r line_forme2;
#X obj 12 121 pack 0 2000;
#X obj 92 122 pack 0 2000;
#X obj 170 122 pack 0 2000;
#X obj 58 104;
#X obj 12 90 / 20;
#X obj 92 91 / 20;
#X obj 170 91 / 20;
#X connect 0 0 14 0;
#X connect 1 0 7 0;
#X connect 3 0 15 0;
#X connect 4 0 7 1;
#X connect 5 0 16 0;
#X connect 6 0 7 2;
#X connect 7 0 2 0;
#X connect 8 0 0 0;
#X connect 8 0 3 0;
#X connect 8 0 5 0;
#X connect 9 0 10 1;
#X connect 9 0 11 1;
#X connect 9 0 12 1;
#X connect 10 0 1 0;
#X connect 11 0 4 0;
#X connect 12 0 6 0;
#X connect 14 0 10 0;
#X connect 15 0 11 0;
#X connect 16 0 12 0;
#X restore 29 309 pd tripleRnd;
#N canvas 0 0 353 257 tripleRnd 0;
#X obj 12 63 random 100;
#X obj 12 149 line;
#X obj 12 219 outlet;
#X obj 92 64 random 100;
#X obj 92 145 line;
#X obj 170 64 random 100;
#X obj 170 145 line;
#X obj 12 189 pack f f f;
#X obj 12 12 r bang_forme2;
#X obj 231 9 r line_forme2;
#X obj 12 121 pack 0 2000;
#X obj 92 122 pack 0 2000;
#X obj 170 122 pack 0 2000;
#X obj 58 104;
#X obj 12 90 / 20;
#X obj 92 91 / 20;
#X obj 170 91 / 20;
#X connect 0 0 14 0;
#X connect 1 0 7 0;
#X connect 3 0 15 0;
#X connect 4 0 7 1;
#X connect 5 0 16 0;
#X connect 6 0 7 2;
#X connect 7 0 2 0;
#X connect 8 0 0 0;
#X connect 8 0 3 0;
#X connect 8 0 5 0;
#X connect 9 0 10 1;
#X connect 9 0 11 1;
#X connect 9 0 12 1;
#X connect 10 0 1 0;
#X connect 11 0 4 0;
#X connect 12 0 6 0;
#X connect 14 0 10 0;
#X connect 15 0 11 0;
#X connect 16 0 12 0;
#X restore 26 366 pd tripleRnd;
#N canvas 0 0 353 257 tripleRnd 0;
#X obj 12 63 random 100;
#X obj 12 149 line;
#X obj 12 219 outlet;
#X obj 92 64 random 100;
#X obj 92 145 line;
#X obj 170 64 random 100;
#X obj 170 145 line;
#X obj 12 189 pack f f f;
#X obj 12 12 r bang_forme2;
#X obj 231 9 r line_forme2;
#X obj 12 121 pack 0 2000;
#X obj 92 122 pack 0 2000;
#X obj 170 122 pack 0 2000;
#X obj 58 104;
#X obj 12 90 / 20;
#X obj 92 91 / 20;
#X obj 170 91 / 20;
#X connect 0 0 14 0;
#X connect 1 0 7 0;
#X connect 3 0 15 0;
#X connect 4 0 7 1;
#X connect 5 0 16 0;
#X connect 6 0 7 2;
#X connect 7 0 2 0;
#X connect 8 0 0 0;
#X connect 8 0 3 0;
#X connect 8 0 5 0;
#X connect 9 0 10 1;
#X connect 9 0 11 1;
#X connect 9 0 12 1;
#X connect 10 0 1 0;
#X connect 11 0 4 0;
#X connect 12 0 6 0;
#X connect 14 0 10 0;
#X connect 15 0 11 0;
#X connect 16 0 12 0;
#X restore 161 82 pd tripleRnd;
#N canvas 0 0 353 257 tripleRnd 0;
#X obj 12 63 random 100;
#X obj 12 149 line;
#X obj 12 219 outlet;
#X obj 92 64 random 100;
#X obj 92 145 line;
#X obj 170 64 random 100;
#X obj 170 145 line;
#X obj 12 189 pack f f f;
#X obj 12 12 r bang_forme2;
#X obj 231 9 r line_forme2;
#X obj 12 121 pack 0 2000;
#X obj 92 122 pack 0 2000;
#X obj 170 122 pack 0 2000;
#X obj 58 104;
#X obj 12 90 / 20;
#X obj 92 91 / 20;
#X obj 170 91 / 20;
#X connect 0 0 14 0;
#X connect 1 0 7 0;
#X connect 3 0 15 0;
#X connect 4 0 7 1;
#X connect 5 0 16 0;
#X connect 6 0 7 2;
#X connect 7 0 2 0;
#X connect 8 0 0 0;
#X connect 8 0 3 0;
#X connect 8 0 5 0;
#X connect 9 0 10 1;
#X connect 9 0 11 1;
#X connect 9 0 12 1;
#X connect 10 0 1 0;
#X connect 11 0 4 0;
#X connect 12 0 6 0;
#X connect 14 0 10 0;
#X connect 15 0 11 0;
#X connect 16 0 12 0;
#X restore 299 82 pd tripleRnd;
#N canvas 0 0 353 257 tripleRnd 0;
#X obj 12 63 random 100;
#X obj 12 149 line;
#X obj 12 219 outlet;
#X obj 92 64 random 100;
#X obj 92 145 line;
#X obj 170 64 random 100;
#X obj 170 145 line;
#X obj 12 189 pack f f f;
#X obj 12 12 r bang_forme2;
#X obj 231 9 r line_forme2;
#X obj 12 121 pack 0 2000;
#X obj 92 122 pack 0 2000;
#X obj 170 122 pack 0 2000;
#X obj 58 104;
#X obj 12 90 / 20;
#X obj 92 91 / 20;
#X obj 170 91 / 20;
#X connect 0 0 14 0;
#X connect 1 0 7 0;
#X connect 3 0 15 0;
#X connect 4 0 7 1;
#X connect 5 0 16 0;
#X connect 6 0 7 2;
#X connect 7 0 2 0;
#X connect 8 0 0 0;
#X connect 8 0 3 0;
#X connect 8 0 5 0;
#X connect 9 0 10 1;
#X connect 9 0 11 1;
#X connect 9 0 12 1;
#X connect 10 0 1 0;
#X connect 11 0 4 0;
#X connect 12 0 6 0;
#X connect 14 0 10 0;
#X connect 15 0 11 0;
#X connect 16 0 12 0;
#X restore 423 82 pd tripleRnd;
#N canvas 0 0 353 257 tripleRnd 0;
#X obj 12 63 random 100;
#X obj 12 149 line;
#X obj 12 219 outlet;
#X obj 92 64 random 100;
#X obj 92 145 line;
#X obj 170 64 random 100;
#X obj 170 145 line;
#X obj 12 189 pack f f f;
#X obj 12 12 r bang_forme2;
#X obj 231 9 r line_forme2;
#X obj 12 121 pack 0 2000;
#X obj 92 122 pack 0 2000;
#X obj 170 122 pack 0 2000;
#X obj 58 104;
#X obj 12 90 / 20;
#X obj 92 91 / 20;
#X obj 170 91 / 20;
#X connect 0 0 14 0;
#X connect 1 0 7 0;
#X connect 3 0 15 0;
#X connect 4 0 7 1;
#X connect 5 0 16 0;
#X connect 6 0 7 2;
#X connect 7 0 2 0;
#X connect 8 0 0 0;
#X connect 8 0 3 0;
#X connect 8 0 5 0;
#X connect 9 0 10 1;
#X connect 9 0 11 1;
#X connect 9 0 12 1;
#X connect 10 0 1 0;
#X connect 11 0 4 0;
#X connect 12 0 6 0;
#X connect 14 0 10 0;
#X connect 15 0 11 0;
#X connect 16 0 12 0;
#X restore 558 82 pd tripleRnd;
#N canvas 0 0 353 257 tripleRnd 0;
#X obj 12 63 random 100;
#X obj 12 149 line;
#X obj 12 219 outlet;
#X obj 92 64 random 100;
#X obj 92 145 line;
#X obj 170 64 random 100;
#X obj 170 145 line;
#X obj 12 189 pack f f f;
#X obj 12 12 r bang_forme2;
#X obj 231 9 r line_forme2;
#X obj 12 121 pack 0 2000;
#X obj 92 122 pack 0 2000;
#X obj 170 122 pack 0 2000;
#X obj 58 104;
#X obj 12 90 / 20;
#X obj 92 91 / 20;
#X obj 170 91 / 20;
#X connect 0 0 14 0;
#X connect 1 0 7 0;
#X connect 3 0 15 0;
#X connect 4 0 7 1;
#X connect 5 0 16 0;
#X connect 6 0 7 2;
#X connect 7 0 2 0;
#X connect 8 0 0 0;
#X connect 8 0 3 0;
#X connect 8 0 5 0;
#X connect 9 0 10 1;
#X connect 9 0 11 1;
#X connect 9 0 12 1;
#X connect 10 0 1 0;
#X connect 11 0 4 0;
#X connect 12 0 6 0;
#X connect 14 0 10 0;
#X connect 15 0 11 0;
#X connect 16 0 12 0;
#X restore 161 152 pd tripleRnd;
#N canvas 0 0 353 257 tripleRnd 0;
#X obj 12 63 random 100;
#X obj 12 149 line;
#X obj 12 219 outlet;
#X obj 92 64 random 100;
#X obj 92 145 line;
#X obj 170 64 random 100;
#X obj 170 145 line;
#X obj 12 189 pack f f f;
#X obj 12 12 r bang_forme2;
#X obj 231 9 r line_forme2;
#X obj 12 121 pack 0 2000;
#X obj 92 122 pack 0 2000;
#X obj 170 122 pack 0 2000;
#X obj 58 104;
#X obj 12 90 / 20;
#X obj 92 91 / 20;
#X obj 170 91 / 20;
#X connect 0 0 14 0;
#X connect 1 0 7 0;
#X connect 3 0 15 0;
#X connect 4 0 7 1;
#X connect 5 0 16 0;
#X connect 6 0 7 2;
#X connect 7 0 2 0;
#X connect 8 0 0 0;
#X connect 8 0 3 0;
#X connect 8 0 5 0;
#X connect 9 0 10 1;
#X connect 9 0 11 1;
#X connect 9 0 12 1;
#X connect 10 0 1 0;
#X connect 11 0 4 0;
#X connect 12 0 6 0;
#X connect 14 0 10 0;
#X connect 15 0 11 0;
#X connect 16 0 12 0;
#X restore 161 238 pd tripleRnd;
#N canvas 0 0 353 257 tripleRnd 0;
#X obj 12 63 random 100;
#X obj 12 149 line;
#X obj 12 219 outlet;
#X obj 92 64 random 100;
#X obj 92 145 line;
#X obj 170 64 random 100;
#X obj 170 145 line;
#X obj 12 189 pack f f f;
#X obj 12 12 r bang_forme2;
#X obj 231 9 r line_forme2;
#X obj 12 121 pack 0 2000;
#X obj 92 122 pack 0 2000;
#X obj 170 122 pack 0 2000;
#X obj 58 104;
#X obj 12 90 / 20;
#X obj 92 91 / 20;
#X obj 170 91 / 20;
#X connect 0 0 14 0;
#X connect 1 0 7 0;
#X connect 3 0 15 0;
#X connect 4 0 7 1;
#X connect 5 0 16 0;
#X connect 6 0 7 2;
#X connect 7 0 2 0;
#X connect 8 0 0 0;
#X connect 8 0 3 0;
#X connect 8 0 5 0;
#X connect 9 0 10 1;
#X connect 9 0 11 1;
#X connect 9 0 12 1;
#X connect 10 0 1 0;
#X connect 11 0 4 0;
#X connect 12 0 6 0;
#X connect 14 0 10 0;
#X connect 15 0 11 0;
#X connect 16 0 12 0;
#X restore 162 309 pd tripleRnd;
#N canvas 0 0 353 257 tripleRnd 0;
#X obj 12 63 random 100;
#X obj 12 149 line;
#X obj 12 219 outlet;
#X obj 92 64 random 100;
#X obj 92 145 line;
#X obj 170 64 random 100;
#X obj 170 145 line;
#X obj 12 189 pack f f f;
#X obj 12 12 r bang_forme2;
#X obj 231 9 r line_forme2;
#X obj 12 121 pack 0 2000;
#X obj 92 122 pack 0 2000;
#X obj 170 122 pack 0 2000;
#X obj 58 104;
#X obj 12 90 / 20;
#X obj 92 91 / 20;
#X obj 170 91 / 20;
#X connect 0 0 14 0;
#X connect 1 0 7 0;
#X connect 3 0 15 0;
#X connect 4 0 7 1;
#X connect 5 0 16 0;
#X connect 6 0 7 2;
#X connect 7 0 2 0;
#X connect 8 0 0 0;
#X connect 8 0 3 0;
#X connect 8 0 5 0;
#X connect 9 0 10 1;
#X connect 9 0 11 1;
#X connect 9 0 12 1;
#X connect 10 0 1 0;
#X connect 11 0 4 0;
#X connect 12 0 6 0;
#X connect 14 0 10 0;
#X connect 15 0 11 0;
#X connect 16 0 12 0;
#X restore 162 366 pd tripleRnd;
#N canvas 0 0 353 257 tripleRnd 0;
#X obj 12 63 random 100;
#X obj 12 149 line;
#X obj 12 219 outlet;
#X obj 92 64 random 100;
#X obj 92 145 line;
#X obj 170 64 random 100;
#X obj 170 145 line;
#X obj 12 189 pack f f f;
#X obj 12 12 r bang_forme2;
#X obj 231 9 r line_forme2;
#X obj 12 121 pack 0 2000;
#X obj 92 122 pack 0 2000;
#X obj 170 122 pack 0 2000;
#X obj 58 104;
#X obj 12 90 / 20;
#X obj 92 91 / 20;
#X obj 170 91 / 20;
#X connect 0 0 14 0;
#X connect 1 0 7 0;
#X connect 3 0 15 0;
#X connect 4 0 7 1;
#X connect 5 0 16 0;
#X connect 6 0 7 2;
#X connect 7 0 2 0;
#X connect 8 0 0 0;
#X connect 8 0 3 0;
#X connect 8 0 5 0;
#X connect 9 0 10 1;
#X connect 9 0 11 1;
#X connect 9 0 12 1;
#X connect 10 0 1 0;
#X connect 11 0 4 0;
#X connect 12 0 6 0;
#X connect 14 0 10 0;
#X connect 15 0 11 0;
#X connect 16 0 12 0;
#X restore 298 366 pd tripleRnd;
#N canvas 0 0 353 257 tripleRnd 0;
#X obj 12 63 random 100;
#X obj 12 149 line;
#X obj 12 219 outlet;
#X obj 92 64 random 100;
#X obj 92 145 line;
#X obj 170 64 random 100;
#X obj 170 145 line;
#X obj 12 189 pack f f f;
#X obj 12 12 r bang_forme2;
#X obj 231 9 r line_forme2;
#X obj 12 121 pack 0 2000;
#X obj 92 122 pack 0 2000;
#X obj 170 122 pack 0 2000;
#X obj 58 104;
#X obj 12 90 / 20;
#X obj 92 91 / 20;
#X obj 170 91 / 20;
#X connect 0 0 14 0;
#X connect 1 0 7 0;
#X connect 3 0 15 0;
#X connect 4 0 7 1;
#X connect 5 0 16 0;
#X connect 6 0 7 2;
#X connect 7 0 2 0;
#X connect 8 0 0 0;
#X connect 8 0 3 0;
#X connect 8 0 5 0;
#X connect 9 0 10 1;
#X connect 9 0 11 1;
#X connect 9 0 12 1;
#X connect 10 0 1 0;
#X connect 11 0 4 0;
#X connect 12 0 6 0;
#X connect 14 0 10 0;
#X connect 15 0 11 0;
#X connect 16 0 12 0;
#X restore 424 366 pd tripleRnd;
#N canvas 0 0 353 257 tripleRnd 0;
#X obj 12 63 random 100;
#X obj 12 149 line;
#X obj 12 219 outlet;
#X obj 92 64 random 100;
#X obj 92 145 line;
#X obj 170 64 random 100;
#X obj 170 145 line;
#X obj 12 189 pack f f f;
#X obj 12 12 r bang_forme2;
#X obj 231 9 r line_forme2;
#X obj 12 121 pack 0 2000;
#X obj 92 122 pack 0 2000;
#X obj 170 122 pack 0 2000;
#X obj 58 104;
#X obj 12 90 / 20;
#X obj 92 91 / 20;
#X obj 170 91 / 20;
#X connect 0 0 14 0;
#X connect 1 0 7 0;
#X connect 3 0 15 0;
#X connect 4 0 7 1;
#X connect 5 0 16 0;
#X connect 6 0 7 2;
#X connect 7 0 2 0;
#X connect 8 0 0 0;
#X connect 8 0 3 0;
#X connect 8 0 5 0;
#X connect 9 0 10 1;
#X connect 9 0 11 1;
#X connect 9 0 12 1;
#X connect 10 0 1 0;
#X connect 11 0 4 0;
#X connect 12 0 6 0;
#X connect 14 0 10 0;
#X connect 15 0 11 0;
#X connect 16 0 12 0;
#X restore 557 360 pd tripleRnd;
#N canvas 0 0 353 257 tripleRnd 0;
#X obj 12 63 random 100;
#X obj 12 149 line;
#X obj 12 219 outlet;
#X obj 92 64 random 100;
#X obj 92 145 line;
#X obj 170 64 random 100;
#X obj 170 145 line;
#X obj 12 189 pack f f f;
#X obj 12 12 r bang_forme2;
#X obj 231 9 r line_forme2;
#X obj 12 121 pack 0 2000;
#X obj 92 122 pack 0 2000;
#X obj 170 122 pack 0 2000;
#X obj 58 104;
#X obj 12 90 / 20;
#X obj 92 91 / 20;
#X obj 170 91 / 20;
#X connect 0 0 14 0;
#X connect 1 0 7 0;
#X connect 3 0 15 0;
#X connect 4 0 7 1;
#X connect 5 0 16 0;
#X connect 6 0 7 2;
#X connect 7 0 2 0;
#X connect 8 0 0 0;
#X connect 8 0 3 0;
#X connect 8 0 5 0;
#X connect 9 0 10 1;
#X connect 9 0 11 1;
#X connect 9 0 12 1;
#X connect 10 0 1 0;
#X connect 11 0 4 0;
#X connect 12 0 6 0;
#X connect 14 0 10 0;
#X connect 15 0 11 0;
#X connect 16 0 12 0;
#X restore 298 309 pd tripleRnd;
#N canvas 0 0 353 257 tripleRnd 0;
#X obj 12 63 random 100;
#X obj 12 149 line;
#X obj 12 219 outlet;
#X obj 92 64 random 100;
#X obj 92 145 line;
#X obj 170 64 random 100;
#X obj 170 145 line;
#X obj 12 189 pack f f f;
#X obj 12 12 r bang_forme2;
#X obj 231 9 r line_forme2;
#X obj 12 121 pack 0 2000;
#X obj 92 122 pack 0 2000;
#X obj 170 122 pack 0 2000;
#X obj 58 104;
#X obj 12 90 / 20;
#X obj 92 91 / 20;
#X obj 170 91 / 20;
#X connect 0 0 14 0;
#X connect 1 0 7 0;
#X connect 3 0 15 0;
#X connect 4 0 7 1;
#X connect 5 0 16 0;
#X connect 6 0 7 2;
#X connect 7 0 2 0;
#X connect 8 0 0 0;
#X connect 8 0 3 0;
#X connect 8 0 5 0;
#X connect 9 0 10 1;
#X connect 9 0 11 1;
#X connect 9 0 12 1;
#X connect 10 0 1 0;
#X connect 11 0 4 0;
#X connect 12 0 6 0;
#X connect 14 0 10 0;
#X connect 15 0 11 0;
#X connect 16 0 12 0;
#X restore 434 309 pd tripleRnd;
#N canvas 0 0 353 257 tripleRnd 0;
#X obj 12 63 random 100;
#X obj 12 149 line;
#X obj 12 219 outlet;
#X obj 92 64 random 100;
#X obj 92 145 line;
#X obj 170 64 random 100;
#X obj 170 145 line;
#X obj 12 189 pack f f f;
#X obj 12 12 r bang_forme2;
#X obj 231 9 r line_forme2;
#X obj 12 121 pack 0 2000;
#X obj 92 122 pack 0 2000;
#X obj 170 122 pack 0 2000;
#X obj 58 104;
#X obj 12 90 / 20;
#X obj 92 91 / 20;
#X obj 170 91 / 20;
#X connect 0 0 14 0;
#X connect 1 0 7 0;
#X connect 3 0 15 0;
#X connect 4 0 7 1;
#X connect 5 0 16 0;
#X connect 6 0 7 2;
#X connect 7 0 2 0;
#X connect 8 0 0 0;
#X connect 8 0 3 0;
#X connect 8 0 5 0;
#X connect 9 0 10 1;
#X connect 9 0 11 1;
#X connect 9 0 12 1;
#X connect 10 0 1 0;
#X connect 11 0 4 0;
#X connect 12 0 6 0;
#X connect 14 0 10 0;
#X connect 15 0 11 0;
#X connect 16 0 12 0;
#X restore 553 298 pd tripleRnd;
#N canvas 0 0 353 257 tripleRnd 0;
#X obj 12 63 random 100;
#X obj 12 149 line;
#X obj 12 219 outlet;
#X obj 92 64 random 100;
#X obj 92 145 line;
#X obj 170 64 random 100;
#X obj 170 145 line;
#X obj 12 189 pack f f f;
#X obj 12 12 r bang_forme2;
#X obj 231 9 r line_forme2;
#X obj 12 121 pack 0 2000;
#X obj 92 122 pack 0 2000;
#X obj 170 122 pack 0 2000;
#X obj 58 104;
#X obj 12 90 / 20;
#X obj 92 91 / 20;
#X obj 170 91 / 20;
#X connect 0 0 14 0;
#X connect 1 0 7 0;
#X connect 3 0 15 0;
#X connect 4 0 7 1;
#X connect 5 0 16 0;
#X connect 6 0 7 2;
#X connect 7 0 2 0;
#X connect 8 0 0 0;
#X connect 8 0 3 0;
#X connect 8 0 5 0;
#X connect 9 0 10 1;
#X connect 9 0 11 1;
#X connect 9 0 12 1;
#X connect 10 0 1 0;
#X connect 11 0 4 0;
#X connect 12 0 6 0;
#X connect 14 0 10 0;
#X connect 15 0 11 0;
#X connect 16 0 12 0;
#X restore 298 238 pd tripleRnd;
#N canvas 0 0 353 257 tripleRnd 0;
#X obj 12 63 random 100;
#X obj 12 149 line;
#X obj 12 219 outlet;
#X obj 92 64 random 100;
#X obj 92 145 line;
#X obj 170 64 random 100;
#X obj 170 145 line;
#X obj 12 189 pack f f f;
#X obj 12 12 r bang_forme2;
#X obj 231 9 r line_forme2;
#X obj 12 121 pack 0 2000;
#X obj 92 122 pack 0 2000;
#X obj 170 122 pack 0 2000;
#X obj 58 104;
#X obj 12 90 / 20;
#X obj 92 91 / 20;
#X obj 170 91 / 20;
#X connect 0 0 14 0;
#X connect 1 0 7 0;
#X connect 3 0 15 0;
#X connect 4 0 7 1;
#X connect 5 0 16 0;
#X connect 6 0 7 2;
#X connect 7 0 2 0;
#X connect 8 0 0 0;
#X connect 8 0 3 0;
#X connect 8 0 5 0;
#X connect 9 0 10 1;
#X connect 9 0 11 1;
#X connect 9 0 12 1;
#X connect 10 0 1 0;
#X connect 11 0 4 0;
#X connect 12 0 6 0;
#X connect 14 0 10 0;
#X connect 15 0 11 0;
#X connect 16 0 12 0;
#X restore 435 230 pd tripleRnd;
#N canvas 0 0 353 257 tripleRnd 0;
#X obj 12 63 random 100;
#X obj 12 149 line;
#X obj 12 219 outlet;
#X obj 92 64 random 100;
#X obj 92 145 line;
#X obj 170 64 random 100;
#X obj 170 145 line;
#X obj 12 189 pack f f f;
#X obj 12 12 r bang_forme2;
#X obj 231 9 r line_forme2;
#X obj 12 121 pack 0 2000;
#X obj 92 122 pack 0 2000;
#X obj 170 122 pack 0 2000;
#X obj 58 104;
#X obj 12 90 / 20;
#X obj 92 91 / 20;
#X obj 170 91 / 20;
#X connect 0 0 14 0;
#X connect 1 0 7 0;
#X connect 3 0 15 0;
#X connect 4 0 7 1;
#X connect 5 0 16 0;
#X connect 6 0 7 2;
#X connect 7 0 2 0;
#X connect 8 0 0 0;
#X connect 8 0 3 0;
#X connect 8 0 5 0;
#X connect 9 0 10 1;
#X connect 9 0 11 1;
#X connect 9 0 12 1;
#X connect 10 0 1 0;
#X connect 11 0 4 0;
#X connect 12 0 6 0;
#X connect 14 0 10 0;
#X connect 15 0 11 0;
#X connect 16 0 12 0;
#X restore 572 222 pd tripleRnd;
#N canvas 0 0 353 257 tripleRnd 0;
#X obj 12 63 random 100;
#X obj 12 149 line;
#X obj 12 219 outlet;
#X obj 92 64 random 100;
#X obj 92 145 line;
#X obj 170 64 random 100;
#X obj 170 145 line;
#X obj 12 189 pack f f f;
#X obj 12 12 r bang_forme2;
#X obj 231 9 r line_forme2;
#X obj 12 121 pack 0 2000;
#X obj 92 122 pack 0 2000;
#X obj 170 122 pack 0 2000;
#X obj 58 104;
#X obj 12 90 / 20;
#X obj 92 91 / 20;
#X obj 170 91 / 20;
#X connect 0 0 14 0;
#X connect 1 0 7 0;
#X connect 3 0 15 0;
#X connect 4 0 7 1;
#X connect 5 0 16 0;
#X connect 6 0 7 2;
#X connect 7 0 2 0;
#X connect 8 0 0 0;
#X connect 8 0 3 0;
#X connect 8 0 5 0;
#X connect 9 0 10 1;
#X connect 9 0 11 1;
#X connect 9 0 12 1;
#X connect 10 0 1 0;
#X connect 11 0 4 0;
#X connect 12 0 6 0;
#X connect 14 0 10 0;
#X connect 15 0 11 0;
#X connect 16 0 12 0;
#X restore 299 158 pd tripleRnd;
#N canvas 0 0 353 257 tripleRnd 0;
#X obj 12 63 random 100;
#X obj 12 149 line;
#X obj 12 219 outlet;
#X obj 92 64 random 100;
#X obj 92 145 line;
#X obj 170 64 random 100;
#X obj 170 145 line;
#X obj 12 189 pack f f f;
#X obj 12 12 r bang_forme2;
#X obj 231 9 r line_forme2;
#X obj 12 121 pack 0 2000;
#X obj 92 122 pack 0 2000;
#X obj 170 122 pack 0 2000;
#X obj 58 104;
#X obj 12 90 / 20;
#X obj 92 91 / 20;
#X obj 170 91 / 20;
#X connect 0 0 14 0;
#X connect 1 0 7 0;
#X connect 3 0 15 0;
#X connect 4 0 7 1;
#X connect 5 0 16 0;
#X connect 6 0 7 2;
#X connect 7 0 2 0;
#X connect 8 0 0 0;
#X connect 8 0 3 0;
#X connect 8 0 5 0;
#X connect 9 0 10 1;
#X connect 9 0 11 1;
#X connect 9 0 12 1;
#X connect 10 0 1 0;
#X connect 11 0 4 0;
#X connect 12 0 6 0;
#X connect 14 0 10 0;
#X connect 15 0 11 0;
#X connect 16 0 12 0;
#X restore 424 158 pd tripleRnd;
#N canvas 0 0 353 257 tripleRnd 0;
#X obj 12 63 random 100;
#X obj 12 149 line;
#X obj 12 219 outlet;
#X obj 92 64 random 100;
#X obj 92 145 line;
#X obj 170 64 random 100;
#X obj 170 145 line;
#X obj 12 189 pack f f f;
#X obj 12 12 r bang_forme2;
#X obj 231 9 r line_forme2;
#X obj 12 121 pack 0 2000;
#X obj 92 122 pack 0 2000;
#X obj 170 122 pack 0 2000;
#X obj 58 104;
#X obj 12 90 / 20;
#X obj 92 91 / 20;
#X obj 170 91 / 20;
#X connect 0 0 14 0;
#X connect 1 0 7 0;
#X connect 3 0 15 0;
#X connect 4 0 7 1;
#X connect 5 0 16 0;
#X connect 6 0 7 2;
#X connect 7 0 2 0;
#X connect 8 0 0 0;
#X connect 8 0 3 0;
#X connect 8 0 5 0;
#X connect 9 0 10 1;
#X connect 9 0 11 1;
#X connect 9 0 12 1;
#X connect 10 0 1 0;
#X connect 11 0 4 0;
#X connect 12 0 6 0;
#X connect 14 0 10 0;
#X connect 15 0 11 0;
#X connect 16 0 12 0;
#X restore 569 152 pd tripleRnd;
#X connect 0 0 7 0;
#X connect 1 0 26 0;
#X connect 2 0 26 0;
#X connect 3 0 26 0;
#X connect 4 0 26 0;
#X connect 5 0 26 0;
#X connect 6 0 26 0;
#X connect 7 0 26 0;
#X connect 8 0 26 0;
#X connect 9 0 26 0;
#X connect 10 0 26 0;
#X connect 11 0 26 0;
#X connect 12 0 26 0;
#X connect 13 0 26 0;
#X connect 14 0 26 0;
#X connect 15 0 26 0;
#X connect 16 0 26 0;
#X connect 17 0 26 0;
#X connect 18 0 26 0;
#X connect 19 0 26 0;
#X connect 20 0 26 0;
#X connect 21 0 26 0;
#X connect 22 0 26 0;
#X connect 23 0 26 0;
#X connect 24 0 26 0;
#X connect 25 0 26 0;
#X connect 27 0 28 0;
#X connect 30 0 8 0;
#X connect 31 0 1 0;
#X connect 32 0 10 0;
#X connect 33 0 21 0;
#X connect 34 0 6 0;
#X connect 35 0 5 0;
#X connect 36 0 13 0;
#X connect 37 0 17 0;
#X connect 38 0 9 0;
#X connect 39 0 2 0;
#X connect 40 0 11 0;
#X connect 41 0 22 0;
#X connect 42 0 23 0;
#X connect 43 0 24 0;
#X connect 44 0 25 0;
#X connect 45 0 12 0;
#X connect 46 0 16 0;
#X connect 47 0 20 0;
#X connect 48 0 3 0;
#X connect 49 0 15 0;
#X connect 50 0 19 0;
#X connect 51 0 4 0;
#X connect 52 0 14 0;
#X connect 53 0 18 0;
#X restore 2618 584 pd forme2;
#X obj 2618 547 bng 25 250 50 0 empty empty empty 17 7 0 10 #191919 #ffffff #ffffff;
#X msg 2716 584 draw point;
#X msg 184 205 fullscreen \$1;
#X obj 1173 840 snapshot~;
#X obj 1253 800 metro 10;
#X obj 1255 763 tgl 22 0 empty empty empty 0 -11 0 12 #fcfcfc #000000 #000000 0 1;
#X obj 1253 731 loadbang;
#X obj 1173 800 osc~ 0.1;
#X obj 1173 877 + 1;
#X obj 1173 916 / 2;
#X msg 2893 467 1 0.2 0.8;
#X msg 2148 459 0 0.8 1;
#X msg 1154 322 0.5 0.4 0.8;
#X obj 2056 574 GEMglPointSize 2.5;
#X obj 2821 584 GEMglPointSize 4;
#X obj 116 448 loadbang;
#X obj 526 453 loadbang;
#X obj 1294 260 loadbang;
#X text 74 49 Gem window creation;
#X text 562 49 These bangs set the particle behaviour \; blob - particles spread out from a fixed point \; point - particles vibrate around a fixed point \;;
#X text 1081 52 Circle with varying opacity \; opacity (alpha value) is determined by the 4th argument into color;
#X text 1080 589 Creates sphere object with varying scale \, \; number of sections \, colour and rotation. \; Disable and re-enable DSP after saving to \; begin oscillation.;
#X obj 2618 510 loadbang;
#X msg 1944 574 draw point;
#X obj 1944 538 loadbang;
#X msg 1849 574 grid 150 150;
#X obj 1849 538 loadbang;
#N canvas 253 49 691 493 forme2 0;
#N canvas 0 0 353 257 tripleRnd 0;
#X obj 12 63 random 100;
#X obj 12 149 line;
#X obj 12 219 outlet;
#X obj 92 64 random 100;
#X obj 92 145 line;
#X obj 170 64 random 100;
#X obj 170 145 line;
#X obj 12 189 pack f f f;
#X obj 12 12 r bang_forme2;
#X obj 231 9 r line_forme2;
#X obj 12 121 pack 0 2000;
#X obj 92 122 pack 0 2000;
#X obj 170 122 pack 0 2000;
#X obj 58 104;
#X obj 12 90 / 20;
#X obj 92 91 / 20;
#X obj 170 91 / 20;
#X connect 0 0 14 0;
#X connect 1 0 7 0;
#X connect 3 0 15 0;
#X connect 4 0 7 1;
#X connect 5 0 16 0;
#X connect 6 0 7 2;
#X connect 7 0 2 0;
#X connect 8 0 0 0;
#X connect 8 0 3 0;
#X connect 8 0 5 0;
#X connect 9 0 10 1;
#X connect 9 0 11 1;
#X connect 9 0 12 1;
#X connect 10 0 1 0;
#X connect 11 0 4 0;
#X connect 12 0 6 0;
#X connect 14 0 10 0;
#X connect 15 0 11 0;
#X connect 16 0 12 0;
#X restore 28 92 pd tripleRnd;
#X msg 26 270 set 2 0 \$1 \$2 \$3;
#X msg 161 269 set 2 1 \$1 \$2 \$3;
#X msg 298 269 set 2 2 \$1 \$2 \$3;
#X msg 299 190 set 1 2 \$1 \$2 \$3;
#X msg 299 112 set 0 2 \$1 \$2 \$3;
#X msg 161 112 set 0 1 \$1 \$2 \$3;
#X msg 28 114 set 0 0 \$1 \$2 \$3;
#X msg 29 193 set 1 0 \$1 \$2 \$3;
#X msg 161 189 set 1 1 \$1 \$2 \$3;
#X msg 26 337 set 3 0 \$1 \$2 \$3;
#X msg 162 336 set 3 1 \$1 \$2 \$3;
#X msg 298 338 set 3 2 \$1 \$2 \$3;
#X msg 423 111 set 0 3 \$1 \$2 \$3;
#X msg 424 189 set 1 3 \$1 \$2 \$3;
#X msg 424 265 set 2 3 \$1 \$2 \$3;
#X msg 423 335 set 3 3 \$1 \$2 \$3;
#X msg 544 109 set 0 4 \$1 \$2 \$3;
#X msg 545 187 set 1 4 \$1 \$2 \$3;
#X msg 540 263 set 2 4 \$1 \$2 \$3;
#X msg 543 333 set 3 4 \$1 \$2 \$3;
#X msg 28 399 set 4 0 \$1 \$2 \$3;
#X msg 162 392 set 4 1 \$1 \$2 \$3;
#X msg 299 393 set 4 2 \$1 \$2 \$3;
#X msg 424 391 set 4 3 \$1 \$2 \$3;
#X msg 545 389 set 4 4 \$1 \$2 \$3;
#X obj 10 445 outlet;
#X obj 36 15 inlet;
#X obj 36 39 s bang_forme2;
#X obj 248 583;
#N canvas 0 0 353 257 tripleRnd 0;
#X obj 12 63 random 100;
#X obj 12 149 line;
#X obj 12 219 outlet;
#X obj 92 64 random 100;
#X obj 92 145 line;
#X obj 170 64 random 100;
#X obj 170 145 line;
#X obj 12 189 pack f f f;
#X obj 12 12 r bang_forme2;
#X obj 231 9 r line_forme2;
#X obj 12 121 pack 0 2000;
#X obj 92 122 pack 0 2000;
#X obj 170 122 pack 0 2000;
#X obj 58 104;
#X obj 12 90 / 20;
#X obj 92 91 / 20;
#X obj 170 91 / 20;
#X connect 0 0 14 0;
#X connect 1 0 7 0;
#X connect 3 0 15 0;
#X connect 4 0 7 1;
#X connect 5 0 16 0;
#X connect 6 0 7 2;
#X connect 7 0 2 0;
#X connect 8 0 0 0;
#X connect 8 0 3 0;
#X connect 8 0 5 0;
#X connect 9 0 10 1;
#X connect 9 0 11 1;
#X connect 9 0 12 1;
#X connect 10 0 1 0;
#X connect 11 0 4 0;
#X connect 12 0 6 0;
#X connect 14 0 10 0;
#X connect 15 0 11 0;
#X connect 16 0 12 0;
#X restore 29 164 pd tripleRnd;
#N canvas 0 0 353 257 tripleRnd 0;
#X obj 12 63 random 100;
#X obj 12 149 line;
#X obj 12 219 outlet;
#X obj 92 64 random 100;
#X obj 92 145 line;
#X obj 170 64 random 100;
#X obj 170 145 line;
#X obj 12 189 pack f f f;
#X obj 12 12 r bang_forme2;
#X obj 231 9 r line_forme2;
#X obj 12 121 pack 0 2000;
#X obj 92 122 pack 0 2000;
#X obj 170 122 pack 0 2000;
#X obj 58 104;
#X obj 12 90 / 20;
#X obj 92 91 / 20;
#X obj 170 91 / 20;
#X connect 0 0 14 0;
#X connect 1 0 7 0;
#X connect 3 0 15 0;
#X connect 4 0 7 1;
#X connect 5 0 16 0;
#X connect 6 0 7 2;
#X connect 7 0 2 0;
#X connect 8 0 0 0;
#X connect 8 0 3 0;
#X connect 8 0 5 0;
#X connect 9 0 10 1;
#X connect 9 0 11 1;
#X connect 9 0 12 1;
#X connect 10 0 1 0;
#X connect 11 0 4 0;
#X connect 12 0 6 0;
#X connect 14 0 10 0;
#X connect 15 0 11 0;
#X connect 16 0 12 0;
#X restore 29 238 pd tripleRnd;
#N canvas 0 0 353 257 tripleRnd 0;
#X obj 12 63 random 100;
#X obj 12 149 line;
#X obj 12 219 outlet;
#X obj 92 64 random 100;
#X obj 92 145 line;
#X obj 170 64 random 100;
#X obj 170 145 line;
#X obj 12 189 pack f f f;
#X obj 12 12 r bang_forme2;
#X obj 231 9 r line_forme2;
#X obj 12 121 pack 0 2000;
#X obj 92 122 pack 0 2000;
#X obj 170 122 pack 0 2000;
#X obj 58 104;
#X obj 12 90 / 20;
#X obj 92 91 / 20;
#X obj 170 91 / 20;
#X connect 0 0 14 0;
#X connect 1 0 7 0;
#X connect 3 0 15 0;
#X connect 4 0 7 1;
#X connect 5 0 16 0;
#X connect 6 0 7 2;
#X connect 7 0 2 0;
#X connect 8 0 0 0;
#X connect 8 0 3 0;
#X connect 8 0 5 0;
#X connect 9 0 10 1;
#X connect 9 0 11 1;
#X connect 9 0 12 1;
#X connect 10 0 1 0;
#X connect 11 0 4 0;
#X connect 12 0 6 0;
#X connect 14 0 10 0;
#X connect 15 0 11 0;
#X connect 16 0 12 0;
#X restore 29 309 pd tripleRnd;
#N canvas 0 0 353 257 tripleRnd 0;
#X obj 12 63 random 100;
#X obj 12 149 line;
#X obj 12 219 outlet;
#X obj 92 64 random 100;
#X obj 92 145 line;
#X obj 170 64 random 100;
#X obj 170 145 line;
#X obj 12 189 pack f f f;
#X obj 12 12 r bang_forme2;
#X obj 231 9 r line_forme2;
#X obj 12 121 pack 0 2000;
#X obj 92 122 pack 0 2000;
#X obj 170 122 pack 0 2000;
#X obj 58 104;
#X obj 12 90 / 20;
#X obj 92 91 / 20;
#X obj 170 91 / 20;
#X connect 0 0 14 0;
#X connect 1 0 7 0;
#X connect 3 0 15 0;
#X connect 4 0 7 1;
#X connect 5 0 16 0;
#X connect 6 0 7 2;
#X connect 7 0 2 0;
#X connect 8 0 0 0;
#X connect 8 0 3 0;
#X connect 8 0 5 0;
#X connect 9 0 10 1;
#X connect 9 0 11 1;
#X connect 9 0 12 1;
#X connect 10 0 1 0;
#X connect 11 0 4 0;
#X connect 12 0 6 0;
#X connect 14 0 10 0;
#X connect 15 0 11 0;
#X connect 16 0 12 0;
#X restore 26 366 pd tripleRnd;
#N canvas 0 0 353 257 tripleRnd 0;
#X obj 12 63 random 100;
#X obj 12 149 line;
#X obj 12 219 outlet;
#X obj 92 64 random 100;
#X obj 92 145 line;
#X obj 170 64 random 100;
#X obj 170 145 line;
#X obj 12 189 pack f f f;
#X obj 12 12 r bang_forme2;
#X obj 231 9 r line_forme2;
#X obj 12 121 pack 0 2000;
#X obj 92 122 pack 0 2000;
#X obj 170 122 pack 0 2000;
#X obj 58 104;
#X obj 12 90 / 20;
#X obj 92 91 / 20;
#X obj 170 91 / 20;
#X connect 0 0 14 0;
#X connect 1 0 7 0;
#X connect 3 0 15 0;
#X connect 4 0 7 1;
#X connect 5 0 16 0;
#X connect 6 0 7 2;
#X connect 7 0 2 0;
#X connect 8 0 0 0;
#X connect 8 0 3 0;
#X connect 8 0 5 0;
#X connect 9 0 10 1;
#X connect 9 0 11 1;
#X connect 9 0 12 1;
#X connect 10 0 1 0;
#X connect 11 0 4 0;
#X connect 12 0 6 0;
#X connect 14 0 10 0;
#X connect 15 0 11 0;
#X connect 16 0 12 0;
#X restore 161 82 pd tripleRnd;
#N canvas 0 0 353 257 tripleRnd 0;
#X obj 12 63 random 100;
#X obj 12 149 line;
#X obj 12 219 outlet;
#X obj 92 64 random 100;
#X obj 92 145 line;
#X obj 170 64 random 100;
#X obj 170 145 line;
#X obj 12 189 pack f f f;
#X obj 12 12 r bang_forme2;
#X obj 231 9 r line_forme2;
#X obj 12 121 pack 0 2000;
#X obj 92 122 pack 0 2000;
#X obj 170 122 pack 0 2000;
#X obj 58 104;
#X obj 12 90 / 20;
#X obj 92 91 / 20;
#X obj 170 91 / 20;
#X connect 0 0 14 0;
#X connect 1 0 7 0;
#X connect 3 0 15 0;
#X connect 4 0 7 1;
#X connect 5 0 16 0;
#X connect 6 0 7 2;
#X connect 7 0 2 0;
#X connect 8 0 0 0;
#X connect 8 0 3 0;
#X connect 8 0 5 0;
#X connect 9 0 10 1;
#X connect 9 0 11 1;
#X connect 9 0 12 1;
#X connect 10 0 1 0;
#X connect 11 0 4 0;
#X connect 12 0 6 0;
#X connect 14 0 10 0;
#X connect 15 0 11 0;
#X connect 16 0 12 0;
#X restore 299 82 pd tripleRnd;
#N canvas 0 0 353 257 tripleRnd 0;
#X obj 12 63 random 100;
#X obj 12 149 line;
#X obj 12 219 outlet;
#X obj 92 64 random 100;
#X obj 92 145 line;
#X obj 170 64 random 100;
#X obj 170 145 line;
#X obj 12 189 pack f f f;
#X obj 12 12 r bang_forme2;
#X obj 231 9 r line_forme2;
#X obj 12 121 pack 0 2000;
#X obj 92 122 pack 0 2000;
#X obj 170 122 pack 0 2000;
#X obj 58 104;
#X obj 12 90 / 20;
#X obj 92 91 / 20;
#X obj 170 91 / 20;
#X connect 0 0 14 0;
#X connect 1 0 7 0;
#X connect 3 0 15 0;
#X connect 4 0 7 1;
#X connect 5 0 16 0;
#X connect 6 0 7 2;
#X connect 7 0 2 0;
#X connect 8 0 0 0;
#X connect 8 0 3 0;
#X connect 8 0 5 0;
#X connect 9 0 10 1;
#X connect 9 0 11 1;
#X connect 9 0 12 1;
#X connect 10 0 1 0;
#X connect 11 0 4 0;
#X connect 12 0 6 0;
#X connect 14 0 10 0;
#X connect 15 0 11 0;
#X connect 16 0 12 0;
#X restore 423 82 pd tripleRnd;
#N canvas 0 0 353 257 tripleRnd 0;
#X obj 12 63 random 100;
#X obj 12 149 line;
#X obj 12 219 outlet;
#X obj 92 64 random 100;
#X obj 92 145 line;
#X obj 170 64 random 100;
#X obj 170 145 line;
#X obj 12 189 pack f f f;
#X obj 12 12 r bang_forme2;
#X obj 231 9 r line_forme2;
#X obj 12 121 pack 0 2000;
#X obj 92 122 pack 0 2000;
#X obj 170 122 pack 0 2000;
#X obj 58 104;
#X obj 12 90 / 20;
#X obj 92 91 / 20;
#X obj 170 91 / 20;
#X connect 0 0 14 0;
#X connect 1 0 7 0;
#X connect 3 0 15 0;
#X connect 4 0 7 1;
#X connect 5 0 16 0;
#X connect 6 0 7 2;
#X connect 7 0 2 0;
#X connect 8 0 0 0;
#X connect 8 0 3 0;
#X connect 8 0 5 0;
#X connect 9 0 10 1;
#X connect 9 0 11 1;
#X connect 9 0 12 1;
#X connect 10 0 1 0;
#X connect 11 0 4 0;
#X connect 12 0 6 0;
#X connect 14 0 10 0;
#X connect 15 0 11 0;
#X connect 16 0 12 0;
#X restore 558 82 pd tripleRnd;
#N canvas 0 0 353 257 tripleRnd 0;
#X obj 12 63 random 100;
#X obj 12 149 line;
#X obj 12 219 outlet;
#X obj 92 64 random 100;
#X obj 92 145 line;
#X obj 170 64 random 100;
#X obj 170 145 line;
#X obj 12 189 pack f f f;
#X obj 12 12 r bang_forme2;
#X obj 231 9 r line_forme2;
#X obj 12 121 pack 0 2000;
#X obj 92 122 pack 0 2000;
#X obj 170 122 pack 0 2000;
#X obj 58 104;
#X obj 12 90 / 20;
#X obj 92 91 / 20;
#X obj 170 91 / 20;
#X connect 0 0 14 0;
#X connect 1 0 7 0;
#X connect 3 0 15 0;
#X connect 4 0 7 1;
#X connect 5 0 16 0;
#X connect 6 0 7 2;
#X connect 7 0 2 0;
#X connect 8 0 0 0;
#X connect 8 0 3 0;
#X connect 8 0 5 0;
#X connect 9 0 10 1;
#X connect 9 0 11 1;
#X connect 9 0 12 1;
#X connect 10 0 1 0;
#X connect 11 0 4 0;
#X connect 12 0 6 0;
#X connect 14 0 10 0;
#X connect 15 0 11 0;
#X connect 16 0 12 0;
#X restore 161 152 pd tripleRnd;
#N canvas 0 0 353 257 tripleRnd 0;
#X obj 12 63 random 100;
#X obj 12 149 line;
#X obj 12 219 outlet;
#X obj 92 64 random 100;
#X obj 92 145 line;
#X obj 170 64 random 100;
#X obj 170 145 line;
#X obj 12 189 pack f f f;
#X obj 12 12 r bang_forme2;
#X obj 231 9 r line_forme2;
#X obj 12 121 pack 0 2000;
#X obj 92 122 pack 0 2000;
#X obj 170 122 pack 0 2000;
#X obj 58 104;
#X obj 12 90 / 20;
#X obj 92 91 / 20;
#X obj 170 91 / 20;
#X connect 0 0 14 0;
#X connect 1 0 7 0;
#X connect 3 0 15 0;
#X connect 4 0 7 1;
#X connect 5 0 16 0;
#X connect 6 0 7 2;
#X connect 7 0 2 0;
#X connect 8 0 0 0;
#X connect 8 0 3 0;
#X connect 8 0 5 0;
#X connect 9 0 10 1;
#X connect 9 0 11 1;
#X connect 9 0 12 1;
#X connect 10 0 1 0;
#X connect 11 0 4 0;
#X connect 12 0 6 0;
#X connect 14 0 10 0;
#X connect 15 0 11 0;
#X connect 16 0 12 0;
#X restore 161 238 pd tripleRnd;
#N canvas 0 0 353 257 tripleRnd 0;
#X obj 12 63 random 100;
#X obj 12 149 line;
#X obj 12 219 outlet;
#X obj 92 64 random 100;
#X obj 92 145 line;
#X obj 170 64 random 100;
#X obj 170 145 line;
#X obj 12 189 pack f f f;
#X obj 12 12 r bang_forme2;
#X obj 231 9 r line_forme2;
#X obj 12 121 pack 0 2000;
#X obj 92 122 pack 0 2000;
#X obj 170 122 pack 0 2000;
#X obj 58 104;
#X obj 12 90 / 20;
#X obj 92 91 / 20;
#X obj 170 91 / 20;
#X connect 0 0 14 0;
#X connect 1 0 7 0;
#X connect 3 0 15 0;
#X connect 4 0 7 1;
#X connect 5 0 16 0;
#X connect 6 0 7 2;
#X connect 7 0 2 0;
#X connect 8 0 0 0;
#X connect 8 0 3 0;
#X connect 8 0 5 0;
#X connect 9 0 10 1;
#X connect 9 0 11 1;
#X connect 9 0 12 1;
#X connect 10 0 1 0;
#X connect 11 0 4 0;
#X connect 12 0 6 0;
#X connect 14 0 10 0;
#X connect 15 0 11 0;
#X connect 16 0 12 0;
#X restore 162 309 pd tripleRnd;
#N canvas 0 0 353 257 tripleRnd 0;
#X obj 12 63 random 100;
#X obj 12 149 line;
#X obj 12 219 outlet;
#X obj 92 64 random 100;
#X obj 92 145 line;
#X obj 170 64 random 100;
#X obj 170 145 line;
#X obj 12 189 pack f f f;
#X obj 12 12 r bang_forme2;
#X obj 231 9 r line_forme2;
#X obj 12 121 pack 0 2000;
#X obj 92 122 pack 0 2000;
#X obj 170 122 pack 0 2000;
#X obj 58 104;
#X obj 12 90 / 20;
#X obj 92 91 / 20;
#X obj 170 91 / 20;
#X connect 0 0 14 0;
#X connect 1 0 7 0;
#X connect 3 0 15 0;
#X connect 4 0 7 1;
#X connect 5 0 16 0;
#X connect 6 0 7 2;
#X connect 7 0 2 0;
#X connect 8 0 0 0;
#X connect 8 0 3 0;
#X connect 8 0 5 0;
#X connect 9 0 10 1;
#X connect 9 0 11 1;
#X connect 9 0 12 1;
#X connect 10 0 1 0;
#X connect 11 0 4 0;
#X connect 12 0 6 0;
#X connect 14 0 10 0;
#X connect 15 0 11 0;
#X connect 16 0 12 0;
#X restore 162 366 pd tripleRnd;
#N canvas 0 0 353 257 tripleRnd 0;
#X obj 12 63 random 100;
#X obj 12 149 line;
#X obj 12 219 outlet;
#X obj 92 64 random 100;
#X obj 92 145 line;
#X obj 170 64 random 100;
#X obj 170 145 line;
#X obj 12 189 pack f f f;
#X obj 12 12 r bang_forme2;
#X obj 231 9 r line_forme2;
#X obj 12 121 pack 0 2000;
#X obj 92 122 pack 0 2000;
#X obj 170 122 pack 0 2000;
#X obj 58 104;
#X obj 12 90 / 20;
#X obj 92 91 / 20;
#X obj 170 91 / 20;
#X connect 0 0 14 0;
#X connect 1 0 7 0;
#X connect 3 0 15 0;
#X connect 4 0 7 1;
#X connect 5 0 16 0;
#X connect 6 0 7 2;
#X connect 7 0 2 0;
#X connect 8 0 0 0;
#X connect 8 0 3 0;
#X connect 8 0 5 0;
#X connect 9 0 10 1;
#X connect 9 0 11 1;
#X connect 9 0 12 1;
#X connect 10 0 1 0;
#X connect 11 0 4 0;
#X connect 12 0 6 0;
#X connect 14 0 10 0;
#X connect 15 0 11 0;
#X connect 16 0 12 0;
#X restore 298 366 pd tripleRnd;
#N canvas 0 0 353 257 tripleRnd 0;
#X obj 12 63 random 100;
#X obj 12 149 line;
#X obj 12 219 outlet;
#X obj 92 64 random 100;
#X obj 92 145 line;
#X obj 170 64 random 100;
#X obj 170 145 line;
#X obj 12 189 pack f f f;
#X obj 12 12 r bang_forme2;
#X obj 231 9 r line_forme2;
#X obj 12 121 pack 0 2000;
#X obj 92 122 pack 0 2000;
#X obj 170 122 pack 0 2000;
#X obj 58 104;
#X obj 12 90 / 20;
#X obj 92 91 / 20;
#X obj 170 91 / 20;
#X connect 0 0 14 0;
#X connect 1 0 7 0;
#X connect 3 0 15 0;
#X connect 4 0 7 1;
#X connect 5 0 16 0;
#X connect 6 0 7 2;
#X connect 7 0 2 0;
#X connect 8 0 0 0;
#X connect 8 0 3 0;
#X connect 8 0 5 0;
#X connect 9 0 10 1;
#X connect 9 0 11 1;
#X connect 9 0 12 1;
#X connect 10 0 1 0;
#X connect 11 0 4 0;
#X connect 12 0 6 0;
#X connect 14 0 10 0;
#X connect 15 0 11 0;
#X connect 16 0 12 0;
#X restore 424 366 pd tripleRnd;
#N canvas 0 0 353 257 tripleRnd 0;
#X obj 12 63 random 100;
#X obj 12 149 line;
#X obj 12 219 outlet;
#X obj 92 64 random 100;
#X obj 92 145 line;
#X obj 170 64 random 100;
#X obj 170 145 line;
#X obj 12 189 pack f f f;
#X obj 12 12 r bang_forme2;
#X obj 231 9 r line_forme2;
#X obj 12 121 pack 0 2000;
#X obj 92 122 pack 0 2000;
#X obj 170 122 pack 0 2000;
#X obj 58 104;
#X obj 12 90 / 20;
#X obj 92 91 / 20;
#X obj 170 91 / 20;
#X connect 0 0 14 0;
#X connect 1 0 7 0;
#X connect 3 0 15 0;
#X connect 4 0 7 1;
#X connect 5 0 16 0;
#X connect 6 0 7 2;
#X connect 7 0 2 0;
#X connect 8 0 0 0;
#X connect 8 0 3 0;
#X connect 8 0 5 0;
#X connect 9 0 10 1;
#X connect 9 0 11 1;
#X connect 9 0 12 1;
#X connect 10 0 1 0;
#X connect 11 0 4 0;
#X connect 12 0 6 0;
#X connect 14 0 10 0;
#X connect 15 0 11 0;
#X connect 16 0 12 0;
#X restore 557 360 pd tripleRnd;
#N canvas 0 0 353 257 tripleRnd 0;
#X obj 12 63 random 100;
#X obj 12 149 line;
#X obj 12 219 outlet;
#X obj 92 64 random 100;
#X obj 92 145 line;
#X obj 170 64 random 100;
#X obj 170 145 line;
#X obj 12 189 pack f f f;
#X obj 12 12 r bang_forme2;
#X obj 231 9 r line_forme2;
#X obj 12 121 pack 0 2000;
#X obj 92 122 pack 0 2000;
#X obj 170 122 pack 0 2000;
#X obj 58 104;
#X obj 12 90 / 20;
#X obj 92 91 / 20;
#X obj 170 91 / 20;
#X connect 0 0 14 0;
#X connect 1 0 7 0;
#X connect 3 0 15 0;
#X connect 4 0 7 1;
#X connect 5 0 16 0;
#X connect 6 0 7 2;
#X connect 7 0 2 0;
#X connect 8 0 0 0;
#X connect 8 0 3 0;
#X connect 8 0 5 0;
#X connect 9 0 10 1;
#X connect 9 0 11 1;
#X connect 9 0 12 1;
#X connect 10 0 1 0;
#X connect 11 0 4 0;
#X connect 12 0 6 0;
#X connect 14 0 10 0;
#X connect 15 0 11 0;
#X connect 16 0 12 0;
#X restore 298 309 pd tripleRnd;
#N canvas 0 0 353 257 tripleRnd 0;
#X obj 12 63 random 100;
#X obj 12 149 line;
#X obj 12 219 outlet;
#X obj 92 64 random 100;
#X obj 92 145 line;
#X obj 170 64 random 100;
#X obj 170 145 line;
#X obj 12 189 pack f f f;
#X obj 12 12 r bang_forme2;
#X obj 231 9 r line_forme2;
#X obj 12 121 pack 0 2000;
#X obj 92 122 pack 0 2000;
#X obj 170 122 pack 0 2000;
#X obj 58 104;
#X obj 12 90 / 20;
#X obj 92 91 / 20;
#X obj 170 91 / 20;
#X connect 0 0 14 0;
#X connect 1 0 7 0;
#X connect 3 0 15 0;
#X connect 4 0 7 1;
#X connect 5 0 16 0;
#X connect 6 0 7 2;
#X connect 7 0 2 0;
#X connect 8 0 0 0;
#X connect 8 0 3 0;
#X connect 8 0 5 0;
#X connect 9 0 10 1;
#X connect 9 0 11 1;
#X connect 9 0 12 1;
#X connect 10 0 1 0;
#X connect 11 0 4 0;
#X connect 12 0 6 0;
#X connect 14 0 10 0;
#X connect 15 0 11 0;
#X connect 16 0 12 0;
#X restore 434 309 pd tripleRnd;
#N canvas 0 0 353 257 tripleRnd 0;
#X obj 12 63 random 100;
#X obj 12 149 line;
#X obj 12 219 outlet;
#X obj 92 64 random 100;
#X obj 92 145 line;
#X obj 170 64 random 100;
#X obj 170 145 line;
#X obj 12 189 pack f f f;
#X obj 12 12 r bang_forme2;
#X obj 231 9 r line_forme2;
#X obj 12 121 pack 0 2000;
#X obj 92 122 pack 0 2000;
#X obj 170 122 pack 0 2000;
#X obj 58 104;
#X obj 12 90 / 20;
#X obj 92 91 / 20;
#X obj 170 91 / 20;
#X connect 0 0 14 0;
#X connect 1 0 7 0;
#X connect 3 0 15 0;
#X connect 4 0 7 1;
#X connect 5 0 16 0;
#X connect 6 0 7 2;
#X connect 7 0 2 0;
#X connect 8 0 0 0;
#X connect 8 0 3 0;
#X connect 8 0 5 0;
#X connect 9 0 10 1;
#X connect 9 0 11 1;
#X connect 9 0 12 1;
#X connect 10 0 1 0;
#X connect 11 0 4 0;
#X connect 12 0 6 0;
#X connect 14 0 10 0;
#X connect 15 0 11 0;
#X connect 16 0 12 0;
#X restore 553 298 pd tripleRnd;
#N canvas 0 0 353 257 tripleRnd 0;
#X obj 12 63 random 100;
#X obj 12 149 line;
#X obj 12 219 outlet;
#X obj 92 64 random 100;
#X obj 92 145 line;
#X obj 170 64 random 100;
#X obj 170 145 line;
#X obj 12 189 pack f f f;
#X obj 12 12 r bang_forme2;
#X obj 231 9 r line_forme2;
#X obj 12 121 pack 0 2000;
#X obj 92 122 pack 0 2000;
#X obj 170 122 pack 0 2000;
#X obj 58 104;
#X obj 12 90 / 20;
#X obj 92 91 / 20;
#X obj 170 91 / 20;
#X connect 0 0 14 0;
#X connect 1 0 7 0;
#X connect 3 0 15 0;
#X connect 4 0 7 1;
#X connect 5 0 16 0;
#X connect 6 0 7 2;
#X connect 7 0 2 0;
#X connect 8 0 0 0;
#X connect 8 0 3 0;
#X connect 8 0 5 0;
#X connect 9 0 10 1;
#X connect 9 0 11 1;
#X connect 9 0 12 1;
#X connect 10 0 1 0;
#X connect 11 0 4 0;
#X connect 12 0 6 0;
#X connect 14 0 10 0;
#X connect 15 0 11 0;
#X connect 16 0 12 0;
#X restore 298 238 pd tripleRnd;
#N canvas 0 0 353 257 tripleRnd 0;
#X obj 12 63 random 100;
#X obj 12 149 line;
#X obj 12 219 outlet;
#X obj 92 64 random 100;
#X obj 92 145 line;
#X obj 170 64 random 100;
#X obj 170 145 line;
#X obj 12 189 pack f f f;
#X obj 12 12 r bang_forme2;
#X obj 231 9 r line_forme2;
#X obj 12 121 pack 0 2000;
#X obj 92 122 pack 0 2000;
#X obj 170 122 pack 0 2000;
#X obj 58 104;
#X obj 12 90 / 20;
#X obj 92 91 / 20;
#X obj 170 91 / 20;
#X connect 0 0 14 0;
#X connect 1 0 7 0;
#X connect 3 0 15 0;
#X connect 4 0 7 1;
#X connect 5 0 16 0;
#X connect 6 0 7 2;
#X connect 7 0 2 0;
#X connect 8 0 0 0;
#X connect 8 0 3 0;
#X connect 8 0 5 0;
#X connect 9 0 10 1;
#X connect 9 0 11 1;
#X connect 9 0 12 1;
#X connect 10 0 1 0;
#X connect 11 0 4 0;
#X connect 12 0 6 0;
#X connect 14 0 10 0;
#X connect 15 0 11 0;
#X connect 16 0 12 0;
#X restore 435 230 pd tripleRnd;
#N canvas 0 0 353 257 tripleRnd 0;
#X obj 12 63 random 100;
#X obj 12 149 line;
#X obj 12 219 outlet;
#X obj 92 64 random 100;
#X obj 92 145 line;
#X obj 170 64 random 100;
#X obj 170 145 line;
#X obj 12 189 pack f f f;
#X obj 12 12 r bang_forme2;
#X obj 231 9 r line_forme2;
#X obj 12 121 pack 0 2000;
#X obj 92 122 pack 0 2000;
#X obj 170 122 pack 0 2000;
#X obj 58 104;
#X obj 12 90 / 20;
#X obj 92 91 / 20;
#X obj 170 91 / 20;
#X connect 0 0 14 0;
#X connect 1 0 7 0;
#X connect 3 0 15 0;
#X connect 4 0 7 1;
#X connect 5 0 16 0;
#X connect 6 0 7 2;
#X connect 7 0 2 0;
#X connect 8 0 0 0;
#X connect 8 0 3 0;
#X connect 8 0 5 0;
#X connect 9 0 10 1;
#X connect 9 0 11 1;
#X connect 9 0 12 1;
#X connect 10 0 1 0;
#X connect 11 0 4 0;
#X connect 12 0 6 0;
#X connect 14 0 10 0;
#X connect 15 0 11 0;
#X connect 16 0 12 0;
#X restore 572 222 pd tripleRnd;
#N canvas 0 0 353 257 tripleRnd 0;
#X obj 12 63 random 100;
#X obj 12 149 line;
#X obj 12 219 outlet;
#X obj 92 64 random 100;
#X obj 92 145 line;
#X obj 170 64 random 100;
#X obj 170 145 line;
#X obj 12 189 pack f f f;
#X obj 12 12 r bang_forme2;
#X obj 231 9 r line_forme2;
#X obj 12 121 pack 0 2000;
#X obj 92 122 pack 0 2000;
#X obj 170 122 pack 0 2000;
#X obj 58 104;
#X obj 12 90 / 20;
#X obj 92 91 / 20;
#X obj 170 91 / 20;
#X connect 0 0 14 0;
#X connect 1 0 7 0;
#X connect 3 0 15 0;
#X connect 4 0 7 1;
#X connect 5 0 16 0;
#X connect 6 0 7 2;
#X connect 7 0 2 0;
#X connect 8 0 0 0;
#X connect 8 0 3 0;
#X connect 8 0 5 0;
#X connect 9 0 10 1;
#X connect 9 0 11 1;
#X connect 9 0 12 1;
#X connect 10 0 1 0;
#X connect 11 0 4 0;
#X connect 12 0 6 0;
#X connect 14 0 10 0;
#X connect 15 0 11 0;
#X connect 16 0 12 0;
#X restore 299 158 pd tripleRnd;
#N canvas 0 0 353 257 tripleRnd 0;
#X obj 12 63 random 100;
#X obj 12 149 line;
#X obj 12 219 outlet;
#X obj 92 64 random 100;
#X obj 92 145 line;
#X obj 170 64 random 100;
#X obj 170 145 line;
#X obj 12 189 pack f f f;
#X obj 12 12 r bang_forme2;
#X obj 231 9 r line_forme2;
#X obj 12 121 pack 0 2000;
#X obj 92 122 pack 0 2000;
#X obj 170 122 pack 0 2000;
#X obj 58 104;
#X obj 12 90 / 20;
#X obj 92 91 / 20;
#X obj 170 91 / 20;
#X connect 0 0 14 0;
#X connect 1 0 7 0;
#X connect 3 0 15 0;
#X connect 4 0 7 1;
#X connect 5 0 16 0;
#X connect 6 0 7 2;
#X connect 7 0 2 0;
#X connect 8 0 0 0;
#X connect 8 0 3 0;
#X connect 8 0 5 0;
#X connect 9 0 10 1;
#X connect 9 0 11 1;
#X connect 9 0 12 1;
#X connect 10 0 1 0;
#X connect 11 0 4 0;
#X connect 12 0 6 0;
#X connect 14 0 10 0;
#X connect 15 0 11 0;
#X connect 16 0 12 0;
#X restore 424 158 pd tripleRnd;
#N canvas 0 0 353 257 tripleRnd 0;
#X obj 12 63 random 100;
#X obj 12 149 line;
#X obj 12 219 outlet;
#X obj 92 64 random 100;
#X obj 92 145 line;
#X obj 170 64 random 100;
#X obj 170 145 line;
#X obj 12 189 pack f f f;
#X obj 12 12 r bang_forme2;
#X obj 231 9 r line_forme2;
#X obj 12 121 pack 0 2000;
#X obj 92 122 pack 0 2000;
#X obj 170 122 pack 0 2000;
#X obj 58 104;
#X obj 12 90 / 20;
#X obj 92 91 / 20;
#X obj 170 91 / 20;
#X connect 0 0 14 0;
#X connect 1 0 7 0;
#X connect 3 0 15 0;
#X connect 4 0 7 1;
#X connect 5 0 16 0;
#X connect 6 0 7 2;
#X connect 7 0 2 0;
#X connect 8 0 0 0;
#X connect 8 0 3 0;
#X connect 8 0 5 0;
#X connect 9 0 10 1;
#X connect 9 0 11 1;
#X connect 9 0 12 1;
#X connect 10 0 1 0;
#X connect 11 0 4 0;
#X connect 12 0 6 0;
#X connect 14 0 10 0;
#X connect 15 0 11 0;
#X connect 16 0 12 0;
#X restore 569 152 pd tripleRnd;
#X connect 0 0 7 0;
#X connect 1 0 26 0;
#X connect 2 0 26 0;
#X connect 3 0 26 0;
#X connect 4 0 26 0;
#X connect 5 0 26 0;
#X connect 6 0 26 0;
#X connect 7 0 26 0;
#X connect 8 0 26 0;
#X connect 9 0 26 0;
#X connect 10 0 26 0;
#X connect 11 0 26 0;
#X connect 12 0 26 0;
#X connect 13 0 26 0;
#X connect 14 0 26 0;
#X connect 15 0 26 0;
#X connect 16 0 26 0;
#X connect 17 0 26 0;
#X connect 18 0 26 0;
#X connect 19 0 26 0;
#X connect 20 0 26 0;
#X connect 21 0 26 0;
#X connect 22 0 26 0;
#X connect 23 0 26 0;
#X connect 24 0 26 0;
#X connect 25 0 26 0;
#X connect 27 0 28 0;
#X connect 30 0 8 0;
#X connect 31 0 1 0;
#X connect 32 0 10 0;
#X connect 33 0 21 0;
#X connect 34 0 6 0;
#X connect 35 0 5 0;
#X connect 36 0 13 0;
#X connect 37 0 17 0;
#X connect 38 0 9 0;
#X connect 39 0 2 0;
#X connect 40 0 11 0;
#X connect 41 0 22 0;
#X connect 42 0 23 0;
#X connect 43 0 24 0;
#X connect 44 0 25 0;
#X connect 45 0 12 0;
#X connect 46 0 16 0;
#X connect 47 0 20 0;
#X connect 48 0 3 0;
#X connect 49 0 15 0;
#X connect 50 0 19 0;
#X connect 51 0 4 0;
#X connect 52 0 14 0;
#X connect 53 0 18 0;
#X restore 1765 574 pd forme2;
#X obj 1765 532 bng 25 250 50 0 empty empty empty 17 7 0 10 #191919 #ffffff #ffffff;
#X obj 1765 499 loadbang;
#X obj 2716 547 loadbang;
#X text 1765 52 Creates a 3d curve at z = 0 \; the shape of the curve changes according \; to random parameters given in patch "forme2";
#X text 2256 52 Curve is faded in over 40 seconds \; bang here (left) to begin the fade-in;
#X text 1585 220 Each time notein 1 is detected \, \; a bang below is performed to change \; the shape of both curves;
#X text 2619 52 Creates a 3d curve at z = -3 \; the shape of the curve changes according \; to random parameters given in patch "forme2";
#X text 3012 52 Curve is faded in over 40 seconds \; bang here (left) to begin the fade-in;
#X obj 2214 374 loadbang;
#X obj 2973 362 loadbang;
#X msg 314 217 lighting \$1;
#X obj 318 187 tgl 15 0 empty empty empty 0 -6 0 8 #fcfcfc #000000 #000000 0 1;
#X text 128 375 Triangle particle creation with varying velocity;
#X text 536 375 Circle particle creation with varying velocity;
#X text 318 146 Enable flat universal lighting;
#X msg 2362 203 1 20000;
#X msg 3116 206 1 20000;
#X obj 235 135 loadbang;
#X connect 0 0 158 0;
#X connect 1 0 158 0;
#X connect 3 0 4 0;
#X connect 4 0 5 0;
#X connect 5 0 6 0;
#X connect 6 0 19 0;
#X connect 7 0 4 1;
#X connect 8 0 4 2;
#X connect 9 0 4 3;
#X connect 10 0 6 1;
#X connect 11 0 6 2;
#X connect 12 0 173 0;
#X connect 12 0 172 0;
#X connect 13 0 18 0;
#X connect 14 0 6 3;
#X connect 15 0 17 0;
#X connect 16 0 162 0;
#X connect 17 0 11 0;
#X connect 18 0 5 1;
#X connect 18 0 5 2;
#X connect 18 0 5 3;
#X connect 19 0 153 0;
#X connect 20 0 19 1;
#X connect 21 0 19 2;
#X connect 22 0 19 3;
#X connect 23 0 34 0;
#X connect 25 0 35 0;
#X connect 25 0 60 0;
#X connect 27 0 31 0;
#X connect 29 0 64 0;
#X connect 29 0 32 0;
#X connect 31 0 32 0;
#X connect 32 0 28 0;
#X connect 33 0 3 0;
#X connect 34 0 35 0;
#X connect 35 0 24 0;
#X connect 36 0 12 0;
#X connect 37 0 158 0;
#X connect 38 0 39 0;
#X connect 39 0 56 0;
#X connect 40 0 51 0;
#X connect 41 0 42 0;
#X connect 42 0 68 0;
#X connect 43 0 116 0;
#X connect 44 0 43 1;
#X connect 45 0 43 2;
#X connect 46 0 47 0;
#X connect 47 0 48 0;
#X connect 48 0 38 0;
#X connect 49 0 40 0;
#X connect 50 0 114 0;
#X connect 51 0 62 0;
#X connect 52 0 51 1;
#X connect 53 0 51 2;
#X connect 54 0 51 3;
#X connect 55 0 68 1;
#X connect 56 0 112 0;
#X connect 57 0 59 0;
#X connect 58 0 67 0;
#X connect 59 0 39 0;
#X connect 60 0 26 0;
#X connect 61 0 154 0;
#X connect 62 0 68 0;
#X connect 63 0 62 2;
#X connect 64 0 30 0;
#X connect 65 0 58 0;
#X connect 66 0 57 0;
#X connect 67 0 39 0;
#X connect 69 0 70 0;
#X connect 70 0 86 0;
#X connect 71 0 82 0;
#X connect 72 0 73 0;
#X connect 73 0 95 0;
#X connect 74 0 115 0;
#X connect 75 0 74 1;
#X connect 76 0 74 2;
#X connect 77 0 78 0;
#X connect 78 0 79 0;
#X connect 79 0 69 0;
#X connect 80 0 71 0;
#X connect 81 0 113 0;
#X connect 82 0 90 0;
#X connect 83 0 82 2;
#X connect 84 0 82 3;
#X connect 85 0 95 1;
#X connect 86 0 111 0;
#X connect 87 0 89 0;
#X connect 88 0 92 0;
#X connect 89 0 70 0;
#X connect 90 0 95 0;
#X connect 91 0 90 2;
#X connect 92 0 70 0;
#X connect 93 0 88 0;
#X connect 94 0 87 0;
#X connect 96 0 82 1;
#X connect 97 0 158 0;
#X connect 98 0 25 0;
#X connect 99 0 107 0;
#X connect 100 0 103 1;
#X connect 101 0 103 2;
#X connect 102 0 103 3;
#X connect 103 0 145 0;
#X connect 105 0 104 0;
#X connect 107 0 103 0;
#X connect 108 0 15 0;
#X connect 109 0 105 0;
#X connect 111 0 74 0;
#X connect 112 0 43 0;
#X connect 113 0 80 1;
#X connect 114 0 49 1;
#X connect 115 0 80 0;
#X connect 116 0 49 0;
#X connect 117 0 107 1;
#X connect 118 0 107 2;
#X connect 119 0 107 3;
#X connect 120 0 16 0;
#X connect 121 0 123 0;
#X connect 122 0 163 0;
#X connect 123 0 130 3;
#X connect 124 0 125 0;
#X connect 124 0 127 0;
#X connect 125 0 121 0;
#X connect 126 0 170 0;
#X connect 127 0 122 0;
#X connect 128 0 124 0;
#X connect 129 0 164 0;
#X connect 130 0 129 1;
#X connect 131 0 132 0;
#X connect 132 0 130 0;
#X connect 133 0 212 0;
#X connect 134 0 135 0;
#X connect 135 0 129 0;
#X connect 136 0 137 0;
#X connect 137 0 164 0;
#X connect 138 0 139 0;
#X connect 139 0 141 3;
#X connect 140 0 213 0;
#X connect 141 0 140 1;
#X connect 142 0 143 0;
#X connect 143 0 141 0;
#X connect 144 0 211 0;
#X connect 145 0 140 0;
#X connect 146 0 147 0;
#X connect 147 0 138 0;
#X connect 148 0 243 0;
#X connect 149 0 151 0;
#X connect 149 0 150 0;
#X connect 150 0 148 0;
#X connect 151 0 146 0;
#X connect 154 0 153 0;
#X connect 155 0 68 0;
#X connect 156 0 95 0;
#X connect 157 0 164 0;
#X connect 159 0 174 0;
#X connect 160 0 155 0;
#X connect 161 0 156 0;
#X connect 162 0 15 0;
#X connect 163 0 121 0;
#X connect 165 0 157 0;
#X connect 166 0 153 2;
#X connect 167 0 169 0;
#X connect 168 0 167 0;
#X connect 169 0 166 0;
#X connect 170 0 121 0;
#X connect 171 0 126 0;
#X connect 172 0 13 0;
#X connect 173 0 13 0;
#X connect 174 0 153 0;
#X connect 175 0 181 0;
#X connect 176 0 179 1;
#X connect 177 0 179 2;
#X connect 178 0 179 3;
#X connect 179 0 192 0;
#X connect 181 0 179 0;
#X connect 182 0 181 1;
#X connect 183 0 181 2;
#X connect 184 0 181 3;
#X connect 185 0 186 0;
#X connect 186 0 188 3;
#X connect 187 0 214 0;
#X connect 188 0 187 1;
#X connect 189 0 190 0;
#X connect 190 0 188 0;
#X connect 191 0 210 0;
#X connect 192 0 187 0;
#X connect 193 0 194 0;
#X connect 194 0 185 0;
#X connect 195 0 244 0;
#X connect 196 0 198 0;
#X connect 196 0 197 0;
#X connect 197 0 195 0;
#X connect 198 0 193 0;
#X connect 199 0 180 0;
#X connect 200 0 199 0;
#X connect 201 0 180 0;
#X connect 202 0 158 0;
#X connect 203 0 208 0;
#X connect 204 0 203 0;
#X connect 205 0 204 0;
#X connect 206 0 205 0;
#X connect 207 0 203 0;
#X connect 208 0 209 0;
#X connect 209 0 7 0;
#X connect 210 0 188 0;
#X connect 211 0 141 0;
#X connect 212 0 130 0;
#X connect 213 0 106 0;
#X connect 214 0 180 0;
#X connect 215 0 87 0;
#X connect 216 0 57 0;
#X connect 217 0 131 0;
#X connect 222 0 200 0;
#X connect 223 0 106 0;
#X connect 224 0 223 0;
#X connect 225 0 106 0;
#X connect 226 0 225 0;
#X connect 227 0 106 0;
#X connect 228 0 227 0;
#X connect 229 0 228 0;
#X connect 230 0 201 0;
#X connect 236 0 142 0;
#X connect 237 0 189 0;
#X connect 238 0 158 0;
#X connect 239 0 238 0;
#X connect 243 0 146 0;
#X connect 244 0 193 0;
#X connect 245 0 97 0;
