#N canvas 827 239 527 327 12;
#X declare -lib Gem;
#X declare -lib Gem;
#X msg 2086 1514 create \, 1;
#X msg 2161 1514 0 \, destroy;
#X obj 2086 1483 declare -lib Gem;
#X obj 2095 1797 gemhead;
#X obj 2095 1924 colorRGB;
#X obj 2095 2181 scaleXYZ;
#X obj 2095 2350 rotateXYZ;
#X obj 2111 1860 nbx 4 18 0 1 0 1 empty empty empty 0 -8 0 10 #e4e4e4 #373737 #373737 0.5 256;
#X obj 2177 1860 nbx 4 19 0 1 0 1 empty empty empty 0 -8 0 10 #e4e4e4 #373737 #373737 0.4 256;
#X obj 2244 1832 nbx 4 19 0 1 0 1 empty empty empty 0 -8 0 10 #e4e4e4 #373737 #373737 0.8 256;
#X obj 2152 2299 nbx 4 18 -360 360 0 1 empty empty empty 0 -8 0 10 #e4e4e4 #373737 #373737 -270 256;
#X obj 2300 2330 nbx 4 18 -360 360 0 0 empty empty empty 0 -8 0 10 #e4e4e4 #373737 #373737 0 256;
#X obj 2159 2017 bng 25 250 50 0 empty empty empty 17 7 0 10 #e4e4e4 #4d4d4d #373737;
#X obj 2135 2103 line;
#X obj 2242 2299 nbx 4 18 -360 360 0 0 empty empty empty 0 -8 0 10 #e4e4e4 #373737 #373737 0 256;
#X obj 2354 2233 snapshot~;
#X obj 2454 2142 tgl 21 0 empty empty empty 0 -11 0 12 #fcfcfc #000000 #000000 0 1;
#X obj 2345 2285 * 360;
#X obj 2135 2142 nbx 8 20 0 2.5 0 0 empty empty empty 0 -8 0 10 #e4e4e4 #373737 #373737 0 256;
#X obj 2095 2442 translateXYZ;
#X obj 2107 2389 nbx 4 18 -1e+37 1e+37 0 0 empty empty empty 0 -8 0 10 #e4e4e4 #373737 #373737 0 256;
#X obj 2178 2389 nbx 4 18 -1e+37 1e+37 0 1 empty empty empty 0 -8 0 10 #e4e4e4 #373737 #373737 0.44 256;
#X obj 2232 2389 nbx 5 20 -360 360 0 0 empty empty empty 0 -8 0 10 #e4e4e4 #373737 #373737 0 256;
#X obj 2497 1916 tgl 22 0 empty empty empty 0 -11 0 12 #fcfcfc #000000 #000000 0 1;
#X obj 1933 2398 loadbang;
#X msg 1949 2442 draw line;
#X obj 1471 1779 loadbang;
#X obj 1471 1910 s domain;
#X obj 1569 1816 bng 25 250 50 0 empty empty empty 17 7 0 10 #e4e4e4 #4d4d4d #373737;
#X obj 1566 1910 s arg;
#X obj 1711 1790 loadbang;
#X obj 1711 1921 s domain;
#X obj 1809 1827 bng 25 250 50 0 empty empty empty 17 7 0 10 #e4e4e4 #4d4d4d #373737;
#X obj 1806 1921 s arg;
#X msg 1711 1827 set point;
#X listbox 1682 1880 20 0 0 0 - - - 0;
#X obj 1644 2583 vsl 17 128 0 127 0 0 empty empty empty 0 -9 0 10 #e4e4e4 #4d4d4d #373737 0 1;
#X obj 1638 2444 line;
#X obj 1638 2480 nbx 4 18 -1e+37 1e+37 0 0 empty empty empty 0 -8 0 10 #e4e4e4 #373737 #373737 0 256;
#X obj 1638 2338 notein 1;
#X msg 1638 2408 1 100;
#X obj 1595 2361 bng 25 250 50 0 empty empty empty 17 7 0 10 #e4e4e4 #4d4d4d #373737;
#X obj 1736 2338 notein 2;
#X obj 1736 2370 bng 25 250 50 0 empty empty empty 17 7 0 10 #e4e4e4 #4d4d4d #373737;
#X msg 1736 2408 0 10;
#X msg 1802 2408 0 1 100;
#X obj 1802 2376 delay 0;
#X obj 2147 1713 tgl 21 0 empty empty empty 0 -11 0 12 #fcfcfc #000000 #000000 0 1;
#X msg 1471 1816 set blob;
#X listbox 1437 1864 20 0 0 0 - - - 0;
#X obj 2159 1980 notein 2;
#X obj 2011 1483 tgl 21 0 empty empty empty 0 -11 0 12 #fcfcfc #000000 #000000 0 1;
#X obj 1088 2281 gemhead;
#X obj 1088 2321 part_head;
#X obj 1088 2769 part_render;
#X obj 965 2917 loadbang;
#X msg 965 2960 draw line;
#X obj 1088 2546 part_velocity;
#X obj 1126 2489 r domain;
#X obj 1196 2489 r arg;
#X obj 1106 2150 loadbang;
#X msg 1109 2189 1;
#X obj 1109 2225 tgl 21 0 empty empty empty 0 -11 0 12 #fcfcfc #000000 #000000 0 1;
#X obj 1210 2328 vsl 24 92 0 127 0 0 empty empty empty 0 -9 0 10 #e4e4e4 #4d4d4d #373737 0 1;
#X obj 1199 2150 bng 25 250 50 0 empty empty empty 17 7 0 10 #e4e4e4 #4d4d4d #373737;
#X obj 1199 2222 line;
#X obj 1199 2252 nbx 4 18 -1e+37 1e+37 0 0 empty empty empty 0 -8 0 10 #e4e4e4 #373737 #373737 0 256;
#X obj 1283 2118 delay 110;
#X obj 1290 2160 bng 25 250 50 0 empty empty empty 17 7 0 10 #e4e4e4 #4d4d4d #373737;
#X obj 1088 2708 part_color;
#X obj 1151 2633 loadbang;
#X obj 1091 2865 translateXYZ;
#X obj 1169 2803 nbx 4 18 -1e+37 1e+37 0 1 empty empty empty 0 -8 0 10 #e4e4e4 #373737 #373737 66 256;
#X obj 1221 2830 nbx 4 18 -1e+37 1e+37 0 1 empty empty empty 0 -8 0 10 #e4e4e4 #373737 #373737 -47 256;
#X obj 1265 2865 nbx 5 20 -360 360 0 0 empty empty empty 0 -8 0 10 #e4e4e4 #373737 #373737 0 256;
#X obj 1190 3019 nbx 4 18 -1e+37 1e+37 0 1 empty empty empty 0 -8 0 10 #e4e4e4 #373737 #373737 0.36 256;
#X obj 1088 2377 part_size 0.1;
#X obj 987 2204 bng 25 250 50 0 empty empty empty 17 7 0 10 #e4e4e4 #4d4d4d #373737;
#X obj 896 2221 bng 25 250 50 0 empty empty empty 17 7 0 10 #e4e4e4 #4d4d4d #373737;
#X obj 1199 2099 notein 3;
#X msg 987 2252 speed 0.03;
#X obj 933 2008 notein 9;
#X obj 933 2054 bng 25 250 50 0 empty empty empty 17 7 0 10 #e4e4e4 #4d4d4d #373737;
#X msg 933 2102 speed 0.08;
#X obj 2007 931 tgl 15 0 empty empty empty 0 -6 0 8 #fcfcfc #000000 #000000 0 1;
#X obj 2030 912 tgl 15 0 empty empty empty 0 -6 0 8 #fcfcfc #000000 #000000 0 1;
#X obj 2086 956 tgl 15 0 empty empty empty 0 -6 0 8 #fcfcfc #000000 #000000 0 1;
#X obj 2105 935 tgl 15 0 empty empty empty 0 -6 0 8 #fcfcfc #000000 #000000 0 1;
#X msg 2086 972 left \$1;
#X msg 2105 951 right \$1;
#X obj 1920 969 tgl 15 0 empty empty empty 0 -6 0 8 #fcfcfc #000000 #000000 0 1;
#X obj 1899 991 tgl 15 0 empty empty empty 0 -6 0 8 #fcfcfc #000000 #000000 0 1;
#X msg 1899 1007 up \$1;
#X msg 1920 985 down \$1;
#X msg 2382 1105 reset;
#X msg 2030 929 forward \$1;
#X msg 2007 947 reverse \$1;
#X msg 1911 1101 speed \$1;
#X floatatom 1911 1083 5 0 0 0 - - - 0;
#X floatatom 1912 1044 5 0 0 0 - - - 0;
#X msg 2222 921 lookX \$1;
#X msg 2222 958 lookY \$1;
#X msg 2222 994 lookZ \$1;
#X floatatom 2222 905 5 0 0 0 - - - 0;
#X floatatom 2222 978 5 0 0 0 - - - 0;
#X floatatom 2222 941 5 0 0 0 - - - 0;
#X msg 1912 1062 distance \$1;
#X obj 2015 1154 cnv 15 100 60 empty empty empty 20 12 0 14 #bcbcbc #404040 0;
#N canvas 0 22 450 300 gemwin 0;
#X obj 132 136 gemwin;
#X obj 67 89 outlet;
#X obj 67 10 inlet;
#X msg 67 70 set destroy;
#X msg 142 68 set create;
#X msg 198 112 destroy;
#X msg 132 112 create \, 1;
#X obj 67 41 route create destroy;
#X obj 298 42 loadbang;
#X msg 298 65 lighting 1;
#X connect 2 0 7 0;
#X connect 3 0 1 0;
#X connect 4 0 1 0;
#X connect 5 0 0 0;
#X connect 6 0 0 0;
#X connect 7 0 3 0;
#X connect 7 0 6 0;
#X connect 7 1 4 0;
#X connect 7 1 5 0;
#X connect 7 2 0 0;
#X connect 8 0 9 0;
#X connect 9 0 0 0;
#X restore 2020 1193 pd gemwin;
#X msg 2020 1174 destroy;
#X text 2016 1135 Create window:;
#X msg 2382 1128 bang;
#X obj 2544 1156 gemhead;
#X obj 2345 1267 list prepend view;
#X obj 2345 1290 list trim;
#X obj 2312 1200 camera;
#X obj 2312 1156 t a a;
#X obj 2544 1179 list prepend 0;
#X obj 2515 1011 tgl 18 0 empty empty empty 0 -9 0 10 #fcfcfc #000000 #000000 0 1;
#X obj 2515 1034 t f f;
#X obj 2544 1242 camera;
#X obj 2312 1106 metro 20;
#X obj 2544 1202 route 0 1;
#X text 2560 988 0.."local" mode;
#X text 2561 1003 1.."gemwin" mode;
#X obj 2391 886 world_light;
#X obj 2340 779 gemhead;
#X obj 2340 840 tgl 32 0 empty empty empty 17 7 0 10 #e4e4e4 #4d4d4d #373737 0 1;
#X msg 2495 853 1 1 0;
#X msg 2506 886 1 1 1;
#X obj 1953 883 vsl 24 92 0 127 0 0 empty empty empty 0 -9 0 10 #e4e4e4 #4d4d4d #373737 0 1;
#X obj 1912 697 bng 25 250 50 0 empty empty empty 17 7 0 10 #e4e4e4 #4d4d4d #373737;
#X obj 1912 769 line;
#X obj 1912 799 nbx 4 18 -1e+37 1e+37 0 0 empty empty empty 0 -8 0 10 #e4e4e4 #373737 #373737 0 256;
#X obj 1980 662 delay 110;
#X obj 1980 697 bng 25 250 50 0 empty empty empty 17 7 0 10 #e4e4e4 #4d4d4d #373737;
#X msg 1980 737 4 500;
#X obj 2097 839 vsl 24 92 0 127 0 0 empty empty empty 0 -9 0 10 #e4e4e4 #4d4d4d #373737 0 1;
#X obj 2056 653 bng 25 250 50 0 empty empty empty 17 7 0 10 #e4e4e4 #4d4d4d #373737;
#X obj 2056 725 line;
#X obj 2056 755 nbx 4 18 -1e+37 1e+37 0 0 empty empty empty 0 -8 0 10 #e4e4e4 #373737 #373737 0 256;
#X obj 2124 618 delay 110;
#X obj 2124 653 bng 25 250 50 0 empty empty empty 17 7 0 10 #e4e4e4 #4d4d4d #373737;
#X msg 2124 693 4 500;
#X obj 2056 618 notein 11;
#X msg 2056 693 3.8 10;
#X msg 1912 737 3.5 10;
#X obj 2573 365 snapshot~;
#X obj 2660 360 tgl 21 0 empty empty empty 0 -11 0 12 #fcfcfc #000000 #000000 0 1;
#X obj 2650 408 metro 50;
#X obj 2531 467 nbx 4 18 -360 360 0 0 empty empty empty 0 -8 0 10 #e4e4e4 #373737 #373737 0 256;
#X obj 2547 323 osc~ 0.1;
#X obj 2666 313 loadbang;
#X obj 2664 184 notein 6;
#X obj 2666 216 bng 25 250 50 0 empty empty empty 17 7 0 10 #e4e4e4 #4d4d4d #373737;
#X msg 2666 266 0.16;
#X obj 2588 216 bng 25 250 50 0 empty empty empty 17 7 0 10 #e4e4e4 #4d4d4d #373737;
#X obj 2586 184 notein 5;
#X msg 2588 266 0.1;
#X obj 2762 932 world_light;
#X obj 2762 833 gemhead;
#X obj 2711 886 tgl 32 0 empty empty empty 17 7 0 10 #e4e4e4 #4d4d4d #373737 0 1;
#X msg 2877 932 1 1 1;
#X obj 2857 827 nbx 4 19 -1e+37 1e+37 0 0 empty empty empty 0 -8 0 10 #e4e4e4 #373737 #373737 0 256;
#X obj 2762 865 rotateXYZ 0 0 0;
#X obj 2848 698 vsl 24 92 0 127 0 0 empty empty empty 0 -9 0 10 #e4e4e4 #4d4d4d #373737 0 1;
#X obj 2807 512 bng 25 250 50 0 empty empty empty 17 7 0 10 #e4e4e4 #4d4d4d #373737;
#X obj 2807 584 line;
#X obj 2807 614 nbx 4 18 -1e+37 1e+37 0 0 empty empty empty 0 -8 0 10 #e4e4e4 #373737 #373737 0 256;
#X obj 2875 477 delay 110;
#X obj 2875 512 bng 25 250 50 0 empty empty empty 17 7 0 10 #e4e4e4 #4d4d4d #373737;
#X obj 2391 840 rotateXYZ;
#X obj 2415 791 nbx 4 18 -1e+37 1e+37 0 0 empty empty empty 0 -8 0 10 #e4e4e4 #373737 #373737 0 256;
#X obj 2466 802 nbx 4 18 -1e+37 1e+37 0 0 empty empty empty 0 -8 0 10 #e4e4e4 #373737 #373737 0 256;
#X obj 2521 802 nbx 4 18 -1e+37 1e+37 0 0 empty empty empty 0 -8 0 10 #e4e4e4 #373737 #373737 0 256;
#X obj 2358 712 world_light;
#X obj 2307 605 gemhead;
#X obj 2307 666 tgl 32 0 empty empty empty 17 7 0 10 #e4e4e4 #4d4d4d #373737 0 1;
#X msg 2462 679 1 1 0;
#X msg 2473 712 1 1 1;
#X obj 2358 666 rotateXYZ;
#X obj 2382 628 nbx 4 18 -1e+37 1e+37 0 1 empty empty empty 0 -8 0 10 #e4e4e4 #373737 #373737 -90 256;
#X obj 2433 628 nbx 4 18 -1e+37 1e+37 0 1 empty empty empty 0 -8 0 10 #e4e4e4 #373737 #373737 0 256;
#X obj 2488 628 nbx 4 18 -1e+37 1e+37 0 1 empty empty empty 0 -8 0 10 #e4e4e4 #373737 #373737 0 256;
#X obj 2257 435 gemhead;
#X obj 2257 496 tgl 32 0 empty empty empty 17 7 0 10 #e4e4e4 #4d4d4d #373737 0 1;
#X msg 2425 593 1 1 1;
#X obj 2308 496 rotateXYZ;
#X obj 2332 458 nbx 4 18 -1e+37 1e+37 0 0 empty empty empty 0 -8 0 10 #e4e4e4 #373737 #373737 0 256;
#X obj 2383 458 nbx 4 18 -1e+37 1e+37 0 0 empty empty empty 0 -8 0 10 #e4e4e4 #373737 #373737 0 256;
#X obj 2438 458 nbx 4 18 -1e+37 1e+37 0 0 empty empty empty 0 -8 0 10 #e4e4e4 #373737 #373737 0 256;
#X obj 2564 417 * 360;
#X obj 2403 496 notein 6;
#X obj 2488 536 notein 5;
#X obj 2493 560 bng 25 250 50 0 empty empty empty 17 7 0 10 #e4e4e4 #4d4d4d #373737;
#X obj 2412 520 bng 25 250 50 0 empty empty empty 17 7 0 10 #e4e4e4 #4d4d4d #373737;
#X obj 3002 690 vsl 24 92 0 127 0 0 empty empty empty 0 -9 0 10 #e4e4e4 #4d4d4d #373737 0 1;
#X obj 2961 504 bng 25 250 50 0 empty empty empty 17 7 0 10 #e4e4e4 #4d4d4d #373737;
#X obj 2961 576 line;
#X obj 2961 606 nbx 4 18 -1e+37 1e+37 0 0 empty empty empty 0 -8 0 10 #e4e4e4 #373737 #373737 0 256;
#X obj 3029 469 delay 110;
#X obj 3029 504 bng 25 250 50 0 empty empty empty 17 7 0 10 #e4e4e4 #4d4d4d #373737;
#X msg 2961 544 0 10;
#X msg 2412 550 1 0.15 0.8;
#X msg 3029 544 90 2000;
#X obj 1912 662 notein 13;
#X obj 1807 771 vsl 24 92 0 127 0 0 empty empty empty 0 -9 0 10 #e4e4e4 #4d4d4d #373737 0 1;
#X obj 1766 585 bng 25 250 50 0 empty empty empty 17 7 0 10 #e4e4e4 #4d4d4d #373737;
#X obj 1766 657 line;
#X obj 1766 687 nbx 4 18 -1e+37 1e+37 0 0 empty empty empty 0 -8 0 10 #e4e4e4 #373737 #373737 0 256;
#X obj 1834 550 delay 110;
#X obj 1834 585 bng 25 250 50 0 empty empty empty 17 7 0 10 #e4e4e4 #4d4d4d #373737;
#X msg 2875 552 90 1000;
#X msg 1566 1862 0 0 0 0.5;
#X obj 1965 2483 light;
#X obj 1993 2594 loadbang;
#X msg 1766 625 1 10;
#X msg 1834 625 3.1 500;
#X msg 1199 2190 0.3 20;
#X msg 1290 2200 0.1 100;
#X obj 1091 2960 rotateXYZ;
#X obj 1297 2960 nbx 4 18 -360 360 0 0 empty empty empty 0 -8 0 10 #e4e4e4 #373737 #373737 0 256;
#X obj 1366 2868 snapshot~;
#X obj 1466 2777 tgl 21 0 empty empty empty 0 -11 0 12 #fcfcfc #000000 #000000 0 1;
#X obj 1456 2825 metro 50;
#X obj 1357 2920 * 360;
#X msg 1806 1873 0 0 0 0.1;
#X obj 896 2185 notein 1;
#X obj 987 2168 notein 2;
#X obj 2487 1964 metro 10;
#X msg 896 2269 speed 0.2;
#X obj 1366 2816 osc~ 0.01;
#X obj 1112 3057 circle;
#X obj 1869 1792;
#X obj 468 2350 gemhead;
#X obj 468 2390 part_head;
#X obj 468 2838 part_render;
#X obj 345 2986 loadbang;
#X msg 345 3029 draw line;
#X obj 468 2615 part_velocity;
#X obj 506 2558 r domain;
#X obj 576 2558 r arg;
#X obj 486 2219 loadbang;
#X msg 489 2258 1;
#X obj 489 2294 tgl 21 0 empty empty empty 0 -11 0 12 #fcfcfc #000000 #000000 0 1;
#X obj 590 2397 vsl 24 92 0 127 0 0 empty empty empty 0 -9 0 10 #e4e4e4 #4d4d4d #373737 0 1;
#X obj 579 2219 bng 25 250 50 0 empty empty empty 17 7 0 10 #e4e4e4 #4d4d4d #373737;
#X obj 579 2291 line;
#X obj 579 2321 nbx 4 18 -1e+37 1e+37 0 0 empty empty empty 0 -8 0 10 #e4e4e4 #373737 #373737 0 256;
#X obj 663 2187 delay 110;
#X obj 670 2229 bng 25 250 50 0 empty empty empty 17 7 0 10 #e4e4e4 #4d4d4d #373737;
#X obj 468 2777 part_color;
#X obj 531 2702 loadbang;
#X obj 471 2934 translateXYZ;
#X obj 601 2899 nbx 4 18 -1e+37 1e+37 0 1 empty empty empty 0 -8 0 10 #e4e4e4 #373737 #373737 47.3 256;
#X obj 645 2934 nbx 5 20 -360 360 0 0 empty empty empty 0 -8 0 10 #e4e4e4 #373737 #373737 0 256;
#X obj 570 3088 nbx 4 18 -1e+37 1e+37 0 1 empty empty empty 0 -8 0 10 #e4e4e4 #373737 #373737 0.36 256;
#X obj 468 2446 part_size 0.1;
#X obj 367 2273 bng 25 250 50 0 empty empty empty 17 7 0 10 #e4e4e4 #4d4d4d #373737;
#X obj 276 2290 bng 25 250 50 0 empty empty empty 17 7 0 10 #e4e4e4 #4d4d4d #373737;
#X obj 579 2168 notein 3;
#X msg 367 2321 speed 0.03;
#X obj 313 2077 notein 9;
#X obj 313 2123 bng 25 250 50 0 empty empty empty 17 7 0 10 #e4e4e4 #4d4d4d #373737;
#X msg 313 2171 speed 0.08;
#X msg 579 2259 0.3 20;
#X msg 670 2269 0.1 100;
#X obj 471 3029 rotateXYZ;
#X obj 677 3029 nbx 4 18 -360 360 0 0 empty empty empty 0 -8 0 10 #e4e4e4 #373737 #373737 0 256;
#X msg 276 2338 speed 0.2;
#X obj 276 2254 notein 1;
#X obj 367 2237 notein 2;
#X obj 492 3126 triangle;
#X obj 590 2855 nbx 4 18 -1e+37 1e+37 0 1 empty empty empty 0 -8 0 10 #e4e4e4 #373737 #373737 -66 256;
#X msg 2178 1549 dimen 1080 1920;
#X obj 2807 477 notein 1;
#X obj 2961 469 notein 12;
#X msg 2866 899 0.1 0.5 0.9;
#X obj 1766 550 notein 11;
#X msg 2807 552 0 25;
#X obj 2308 542 world_light;
#X obj 1569 1773 loadbang;
#X text 2910 1465 Class: geometric object;
#X obj 2778 1499 cnv 15 450 100 empty empty empty 20 12 0 14 #e0e0e0 #404040 0;
#X obj 2778 1647 cnv 15 450 220 empty empty empty 20 12 0 14 #e0e0e0 #404040 0;
#X text 2782 1637 Inlets:;
#X obj 2778 1608 cnv 15 450 30 empty empty empty 20 12 0 14 #bcbcbc #404040 0;
#X text 2787 1595 Arguments:;
#X text 2797 1652 Inlet 1: gemlist;
#X text 2779 1824 Outlets:;
#X text 2793 1836 Outlet 1: gemlist;
#X text 2911 1447 Synopsis: [curve3d];
#X obj 3240 1498 cnv 15 480 500 empty empty empty 20 12 0 14 #e0e0e0 #404040 0;
#X obj 3610 1919 cnv 15 100 60 empty empty empty 20 12 0 14 #bcbcbc #404040 0;
#N canvas 0 0 455 304 gemwin 0;
#X obj 132 182 gemwin;
#X obj 67 89 outlet;
#X obj 67 10 inlet;
#X obj 67 41 route create;
#X msg 67 70 set destroy;
#X msg 142 68 set create;
#X msg 198 112 destroy;
#X msg 132 112 create \, 1;
#X obj 294 56 gemhead;
#X obj 294 76 world_light;
#X msg 207 155 lighting 1;
#X obj 207 134 loadbang;
#X connect 2 0 3 0;
#X connect 3 0 4 0;
#X connect 3 0 7 0;
#X connect 3 1 5 0;
#X connect 3 1 6 0;
#X connect 4 0 1 0;
#X connect 5 0 1 0;
#X connect 6 0 0 0;
#X connect 7 0 0 0;
#X connect 8 0 9 0;
#X connect 10 0 0 0;
#X connect 11 0 10 0;
#X restore 3626 1958 pd gemwin;
#X msg 3626 1939 destroy;
#X text 3622 1906 Create window:;
#X obj 3561 1509 cnv 15 150 150 empty empty empty 20 12 0 14 #14e814 #404040 0;
#X obj 3561 1669 cnv 15 150 150 empty empty empty 20 12 0 14 #14e814 #404040 0;
#X obj 3251 1509 cnv 15 300 310 empty empty empty 20 12 0 14 #14e814 #404040 0;
#X msg 3284 1610 draw line;
#X msg 3284 1590 draw fill;
#X msg 3284 1630 draw point;
#X msg 3301 1735 width 1;
#X msg 3301 1756 width 4;
#X msg 3284 1651 draw line1;
#X msg 3284 1672 draw line2;
#X msg 3284 1693 draw line3;
#X msg 3284 1714 draw line4;
#X msg 3422 1604 draw control_line;
#X msg 3422 1625 draw control_line1;
#X msg 3422 1646 draw control_line2;
#X msg 3422 1667 draw control_fill;
#X msg 3422 1688 draw control_point;
#X msg 3599 1546 res 2 2;
#X msg 3594 1704 grid 2 10;
#X msg 3599 1567 res 3 3;
#X msg 3594 1725 grid 10 10;
#X msg 3599 1588 res 5 5;
#X msg 3594 1746 grid 20 20;
#X text 3357 1515 draw style;
#X text 3271 1547 draw the curve;
#X obj 3389 1778 s curve3d;
#X obj 3575 1633 s curve3d;
#X obj 3572 1791 s curve3d;
#X obj 3255 1779 s curve3d;
#X text 3425 1562 of the curve;
#X text 3412 1548 draw control point;
#X obj 3251 1833 cnv 15 300 150 empty empty empty 20 12 0 14 #14e814 #404040 0;
#X obj 3822 1877 gemhead;
#X floatatom 3850 1920 5 0 0 0 - - - 0;
#X floatatom 3885 1920 5 0 0 0 - - - 0;
#X floatatom 3921 1920 5 0 0 0 - - - 0;
#X obj 3822 1941 rotateXYZ 0 0 0;
#X obj 3743 2235 r curve3d, f 11;
#X text 3574 1514 control matrix;
#X text 3569 1501 resolution of the;
#X text 3570 1662 resolution of the;
#X text 3591 1673 curve grid;
#X text 2793 1812 Inlet 2: not used;
#X text 2797 1666 Inlet 1: message: draw [line|fill|point|...];
#X obj 2778 1878 cnv 15 450 120 empty empty empty 20 12 0 14 #bcbcbc #404040 0;
#N canvas 253 49 691 493 forme2 0;
#N canvas 0 0 353 257 tripleRnd 0;
#X obj 12 63 random 100;
#X obj 12 149 line;
#X obj 12 219 outlet;
#X obj 92 64 random 100;
#X obj 92 145 line;
#X obj 170 64 random 100;
#X obj 170 145 line;
#X obj 12 189 pack f f f;
#X obj 12 12 r bang_forme2;
#X obj 231 9 r line_forme2;
#X obj 12 121 pack 0 2000;
#X obj 92 122 pack 0 2000;
#X obj 170 122 pack 0 2000;
#X obj 58 104;
#X obj 12 90 / 20;
#X obj 92 91 / 20;
#X obj 170 91 / 20;
#X connect 0 0 14 0;
#X connect 1 0 7 0;
#X connect 3 0 15 0;
#X connect 4 0 7 1;
#X connect 5 0 16 0;
#X connect 6 0 7 2;
#X connect 7 0 2 0;
#X connect 8 0 0 0;
#X connect 8 0 3 0;
#X connect 8 0 5 0;
#X connect 9 0 10 1;
#X connect 9 0 11 1;
#X connect 9 0 12 1;
#X connect 10 0 1 0;
#X connect 11 0 4 0;
#X connect 12 0 6 0;
#X connect 14 0 10 0;
#X connect 15 0 11 0;
#X connect 16 0 12 0;
#X restore 28 92 pd tripleRnd;
#X msg 26 270 set 2 0 \$1 \$2 \$3;
#X msg 161 269 set 2 1 \$1 \$2 \$3;
#X msg 298 269 set 2 2 \$1 \$2 \$3;
#X msg 299 190 set 1 2 \$1 \$2 \$3;
#X msg 299 112 set 0 2 \$1 \$2 \$3;
#X msg 161 112 set 0 1 \$1 \$2 \$3;
#X msg 28 114 set 0 0 \$1 \$2 \$3;
#X msg 29 193 set 1 0 \$1 \$2 \$3;
#X msg 161 189 set 1 1 \$1 \$2 \$3;
#X msg 26 337 set 3 0 \$1 \$2 \$3;
#X msg 162 336 set 3 1 \$1 \$2 \$3;
#X msg 298 338 set 3 2 \$1 \$2 \$3;
#X msg 423 111 set 0 3 \$1 \$2 \$3;
#X msg 424 189 set 1 3 \$1 \$2 \$3;
#X msg 424 265 set 2 3 \$1 \$2 \$3;
#X msg 423 335 set 3 3 \$1 \$2 \$3;
#X msg 544 109 set 0 4 \$1 \$2 \$3;
#X msg 545 187 set 1 4 \$1 \$2 \$3;
#X msg 540 263 set 2 4 \$1 \$2 \$3;
#X msg 543 333 set 3 4 \$1 \$2 \$3;
#X msg 28 399 set 4 0 \$1 \$2 \$3;
#X msg 162 392 set 4 1 \$1 \$2 \$3;
#X msg 299 393 set 4 2 \$1 \$2 \$3;
#X msg 424 391 set 4 3 \$1 \$2 \$3;
#X msg 545 389 set 4 4 \$1 \$2 \$3;
#X obj 10 445 outlet;
#X obj 36 15 inlet;
#X obj 36 39 s bang_forme2;
#X obj 248 583;
#N canvas 0 0 353 257 tripleRnd 0;
#X obj 12 63 random 100;
#X obj 12 149 line;
#X obj 12 219 outlet;
#X obj 92 64 random 100;
#X obj 92 145 line;
#X obj 170 64 random 100;
#X obj 170 145 line;
#X obj 12 189 pack f f f;
#X obj 12 12 r bang_forme2;
#X obj 231 9 r line_forme2;
#X obj 12 121 pack 0 2000;
#X obj 92 122 pack 0 2000;
#X obj 170 122 pack 0 2000;
#X obj 58 104;
#X obj 12 90 / 20;
#X obj 92 91 / 20;
#X obj 170 91 / 20;
#X connect 0 0 14 0;
#X connect 1 0 7 0;
#X connect 3 0 15 0;
#X connect 4 0 7 1;
#X connect 5 0 16 0;
#X connect 6 0 7 2;
#X connect 7 0 2 0;
#X connect 8 0 0 0;
#X connect 8 0 3 0;
#X connect 8 0 5 0;
#X connect 9 0 10 1;
#X connect 9 0 11 1;
#X connect 9 0 12 1;
#X connect 10 0 1 0;
#X connect 11 0 4 0;
#X connect 12 0 6 0;
#X connect 14 0 10 0;
#X connect 15 0 11 0;
#X connect 16 0 12 0;
#X restore 29 164 pd tripleRnd;
#N canvas 0 0 353 257 tripleRnd 0;
#X obj 12 63 random 100;
#X obj 12 149 line;
#X obj 12 219 outlet;
#X obj 92 64 random 100;
#X obj 92 145 line;
#X obj 170 64 random 100;
#X obj 170 145 line;
#X obj 12 189 pack f f f;
#X obj 12 12 r bang_forme2;
#X obj 231 9 r line_forme2;
#X obj 12 121 pack 0 2000;
#X obj 92 122 pack 0 2000;
#X obj 170 122 pack 0 2000;
#X obj 58 104;
#X obj 12 90 / 20;
#X obj 92 91 / 20;
#X obj 170 91 / 20;
#X connect 0 0 14 0;
#X connect 1 0 7 0;
#X connect 3 0 15 0;
#X connect 4 0 7 1;
#X connect 5 0 16 0;
#X connect 6 0 7 2;
#X connect 7 0 2 0;
#X connect 8 0 0 0;
#X connect 8 0 3 0;
#X connect 8 0 5 0;
#X connect 9 0 10 1;
#X connect 9 0 11 1;
#X connect 9 0 12 1;
#X connect 10 0 1 0;
#X connect 11 0 4 0;
#X connect 12 0 6 0;
#X connect 14 0 10 0;
#X connect 15 0 11 0;
#X connect 16 0 12 0;
#X restore 29 238 pd tripleRnd;
#N canvas 0 0 353 257 tripleRnd 0;
#X obj 12 63 random 100;
#X obj 12 149 line;
#X obj 12 219 outlet;
#X obj 92 64 random 100;
#X obj 92 145 line;
#X obj 170 64 random 100;
#X obj 170 145 line;
#X obj 12 189 pack f f f;
#X obj 12 12 r bang_forme2;
#X obj 231 9 r line_forme2;
#X obj 12 121 pack 0 2000;
#X obj 92 122 pack 0 2000;
#X obj 170 122 pack 0 2000;
#X obj 58 104;
#X obj 12 90 / 20;
#X obj 92 91 / 20;
#X obj 170 91 / 20;
#X connect 0 0 14 0;
#X connect 1 0 7 0;
#X connect 3 0 15 0;
#X connect 4 0 7 1;
#X connect 5 0 16 0;
#X connect 6 0 7 2;
#X connect 7 0 2 0;
#X connect 8 0 0 0;
#X connect 8 0 3 0;
#X connect 8 0 5 0;
#X connect 9 0 10 1;
#X connect 9 0 11 1;
#X connect 9 0 12 1;
#X connect 10 0 1 0;
#X connect 11 0 4 0;
#X connect 12 0 6 0;
#X connect 14 0 10 0;
#X connect 15 0 11 0;
#X connect 16 0 12 0;
#X restore 29 309 pd tripleRnd;
#N canvas 0 0 353 257 tripleRnd 0;
#X obj 12 63 random 100;
#X obj 12 149 line;
#X obj 12 219 outlet;
#X obj 92 64 random 100;
#X obj 92 145 line;
#X obj 170 64 random 100;
#X obj 170 145 line;
#X obj 12 189 pack f f f;
#X obj 12 12 r bang_forme2;
#X obj 231 9 r line_forme2;
#X obj 12 121 pack 0 2000;
#X obj 92 122 pack 0 2000;
#X obj 170 122 pack 0 2000;
#X obj 58 104;
#X obj 12 90 / 20;
#X obj 92 91 / 20;
#X obj 170 91 / 20;
#X connect 0 0 14 0;
#X connect 1 0 7 0;
#X connect 3 0 15 0;
#X connect 4 0 7 1;
#X connect 5 0 16 0;
#X connect 6 0 7 2;
#X connect 7 0 2 0;
#X connect 8 0 0 0;
#X connect 8 0 3 0;
#X connect 8 0 5 0;
#X connect 9 0 10 1;
#X connect 9 0 11 1;
#X connect 9 0 12 1;
#X connect 10 0 1 0;
#X connect 11 0 4 0;
#X connect 12 0 6 0;
#X connect 14 0 10 0;
#X connect 15 0 11 0;
#X connect 16 0 12 0;
#X restore 26 366 pd tripleRnd;
#N canvas 0 0 353 257 tripleRnd 0;
#X obj 12 63 random 100;
#X obj 12 149 line;
#X obj 12 219 outlet;
#X obj 92 64 random 100;
#X obj 92 145 line;
#X obj 170 64 random 100;
#X obj 170 145 line;
#X obj 12 189 pack f f f;
#X obj 12 12 r bang_forme2;
#X obj 231 9 r line_forme2;
#X obj 12 121 pack 0 2000;
#X obj 92 122 pack 0 2000;
#X obj 170 122 pack 0 2000;
#X obj 58 104;
#X obj 12 90 / 20;
#X obj 92 91 / 20;
#X obj 170 91 / 20;
#X connect 0 0 14 0;
#X connect 1 0 7 0;
#X connect 3 0 15 0;
#X connect 4 0 7 1;
#X connect 5 0 16 0;
#X connect 6 0 7 2;
#X connect 7 0 2 0;
#X connect 8 0 0 0;
#X connect 8 0 3 0;
#X connect 8 0 5 0;
#X connect 9 0 10 1;
#X connect 9 0 11 1;
#X connect 9 0 12 1;
#X connect 10 0 1 0;
#X connect 11 0 4 0;
#X connect 12 0 6 0;
#X connect 14 0 10 0;
#X connect 15 0 11 0;
#X connect 16 0 12 0;
#X restore 161 82 pd tripleRnd;
#N canvas 0 0 353 257 tripleRnd 0;
#X obj 12 63 random 100;
#X obj 12 149 line;
#X obj 12 219 outlet;
#X obj 92 64 random 100;
#X obj 92 145 line;
#X obj 170 64 random 100;
#X obj 170 145 line;
#X obj 12 189 pack f f f;
#X obj 12 12 r bang_forme2;
#X obj 231 9 r line_forme2;
#X obj 12 121 pack 0 2000;
#X obj 92 122 pack 0 2000;
#X obj 170 122 pack 0 2000;
#X obj 58 104;
#X obj 12 90 / 20;
#X obj 92 91 / 20;
#X obj 170 91 / 20;
#X connect 0 0 14 0;
#X connect 1 0 7 0;
#X connect 3 0 15 0;
#X connect 4 0 7 1;
#X connect 5 0 16 0;
#X connect 6 0 7 2;
#X connect 7 0 2 0;
#X connect 8 0 0 0;
#X connect 8 0 3 0;
#X connect 8 0 5 0;
#X connect 9 0 10 1;
#X connect 9 0 11 1;
#X connect 9 0 12 1;
#X connect 10 0 1 0;
#X connect 11 0 4 0;
#X connect 12 0 6 0;
#X connect 14 0 10 0;
#X connect 15 0 11 0;
#X connect 16 0 12 0;
#X restore 299 82 pd tripleRnd;
#N canvas 0 0 353 257 tripleRnd 0;
#X obj 12 63 random 100;
#X obj 12 149 line;
#X obj 12 219 outlet;
#X obj 92 64 random 100;
#X obj 92 145 line;
#X obj 170 64 random 100;
#X obj 170 145 line;
#X obj 12 189 pack f f f;
#X obj 12 12 r bang_forme2;
#X obj 231 9 r line_forme2;
#X obj 12 121 pack 0 2000;
#X obj 92 122 pack 0 2000;
#X obj 170 122 pack 0 2000;
#X obj 58 104;
#X obj 12 90 / 20;
#X obj 92 91 / 20;
#X obj 170 91 / 20;
#X connect 0 0 14 0;
#X connect 1 0 7 0;
#X connect 3 0 15 0;
#X connect 4 0 7 1;
#X connect 5 0 16 0;
#X connect 6 0 7 2;
#X connect 7 0 2 0;
#X connect 8 0 0 0;
#X connect 8 0 3 0;
#X connect 8 0 5 0;
#X connect 9 0 10 1;
#X connect 9 0 11 1;
#X connect 9 0 12 1;
#X connect 10 0 1 0;
#X connect 11 0 4 0;
#X connect 12 0 6 0;
#X connect 14 0 10 0;
#X connect 15 0 11 0;
#X connect 16 0 12 0;
#X restore 423 82 pd tripleRnd;
#N canvas 0 0 353 257 tripleRnd 0;
#X obj 12 63 random 100;
#X obj 12 149 line;
#X obj 12 219 outlet;
#X obj 92 64 random 100;
#X obj 92 145 line;
#X obj 170 64 random 100;
#X obj 170 145 line;
#X obj 12 189 pack f f f;
#X obj 12 12 r bang_forme2;
#X obj 231 9 r line_forme2;
#X obj 12 121 pack 0 2000;
#X obj 92 122 pack 0 2000;
#X obj 170 122 pack 0 2000;
#X obj 58 104;
#X obj 12 90 / 20;
#X obj 92 91 / 20;
#X obj 170 91 / 20;
#X connect 0 0 14 0;
#X connect 1 0 7 0;
#X connect 3 0 15 0;
#X connect 4 0 7 1;
#X connect 5 0 16 0;
#X connect 6 0 7 2;
#X connect 7 0 2 0;
#X connect 8 0 0 0;
#X connect 8 0 3 0;
#X connect 8 0 5 0;
#X connect 9 0 10 1;
#X connect 9 0 11 1;
#X connect 9 0 12 1;
#X connect 10 0 1 0;
#X connect 11 0 4 0;
#X connect 12 0 6 0;
#X connect 14 0 10 0;
#X connect 15 0 11 0;
#X connect 16 0 12 0;
#X restore 558 82 pd tripleRnd;
#N canvas 0 0 353 257 tripleRnd 0;
#X obj 12 63 random 100;
#X obj 12 149 line;
#X obj 12 219 outlet;
#X obj 92 64 random 100;
#X obj 92 145 line;
#X obj 170 64 random 100;
#X obj 170 145 line;
#X obj 12 189 pack f f f;
#X obj 12 12 r bang_forme2;
#X obj 231 9 r line_forme2;
#X obj 12 121 pack 0 2000;
#X obj 92 122 pack 0 2000;
#X obj 170 122 pack 0 2000;
#X obj 58 104;
#X obj 12 90 / 20;
#X obj 92 91 / 20;
#X obj 170 91 / 20;
#X connect 0 0 14 0;
#X connect 1 0 7 0;
#X connect 3 0 15 0;
#X connect 4 0 7 1;
#X connect 5 0 16 0;
#X connect 6 0 7 2;
#X connect 7 0 2 0;
#X connect 8 0 0 0;
#X connect 8 0 3 0;
#X connect 8 0 5 0;
#X connect 9 0 10 1;
#X connect 9 0 11 1;
#X connect 9 0 12 1;
#X connect 10 0 1 0;
#X connect 11 0 4 0;
#X connect 12 0 6 0;
#X connect 14 0 10 0;
#X connect 15 0 11 0;
#X connect 16 0 12 0;
#X restore 161 152 pd tripleRnd;
#N canvas 0 0 353 257 tripleRnd 0;
#X obj 12 63 random 100;
#X obj 12 149 line;
#X obj 12 219 outlet;
#X obj 92 64 random 100;
#X obj 92 145 line;
#X obj 170 64 random 100;
#X obj 170 145 line;
#X obj 12 189 pack f f f;
#X obj 12 12 r bang_forme2;
#X obj 231 9 r line_forme2;
#X obj 12 121 pack 0 2000;
#X obj 92 122 pack 0 2000;
#X obj 170 122 pack 0 2000;
#X obj 58 104;
#X obj 12 90 / 20;
#X obj 92 91 / 20;
#X obj 170 91 / 20;
#X connect 0 0 14 0;
#X connect 1 0 7 0;
#X connect 3 0 15 0;
#X connect 4 0 7 1;
#X connect 5 0 16 0;
#X connect 6 0 7 2;
#X connect 7 0 2 0;
#X connect 8 0 0 0;
#X connect 8 0 3 0;
#X connect 8 0 5 0;
#X connect 9 0 10 1;
#X connect 9 0 11 1;
#X connect 9 0 12 1;
#X connect 10 0 1 0;
#X connect 11 0 4 0;
#X connect 12 0 6 0;
#X connect 14 0 10 0;
#X connect 15 0 11 0;
#X connect 16 0 12 0;
#X restore 161 238 pd tripleRnd;
#N canvas 0 0 353 257 tripleRnd 0;
#X obj 12 63 random 100;
#X obj 12 149 line;
#X obj 12 219 outlet;
#X obj 92 64 random 100;
#X obj 92 145 line;
#X obj 170 64 random 100;
#X obj 170 145 line;
#X obj 12 189 pack f f f;
#X obj 12 12 r bang_forme2;
#X obj 231 9 r line_forme2;
#X obj 12 121 pack 0 2000;
#X obj 92 122 pack 0 2000;
#X obj 170 122 pack 0 2000;
#X obj 58 104;
#X obj 12 90 / 20;
#X obj 92 91 / 20;
#X obj 170 91 / 20;
#X connect 0 0 14 0;
#X connect 1 0 7 0;
#X connect 3 0 15 0;
#X connect 4 0 7 1;
#X connect 5 0 16 0;
#X connect 6 0 7 2;
#X connect 7 0 2 0;
#X connect 8 0 0 0;
#X connect 8 0 3 0;
#X connect 8 0 5 0;
#X connect 9 0 10 1;
#X connect 9 0 11 1;
#X connect 9 0 12 1;
#X connect 10 0 1 0;
#X connect 11 0 4 0;
#X connect 12 0 6 0;
#X connect 14 0 10 0;
#X connect 15 0 11 0;
#X connect 16 0 12 0;
#X restore 162 309 pd tripleRnd;
#N canvas 0 0 353 257 tripleRnd 0;
#X obj 12 63 random 100;
#X obj 12 149 line;
#X obj 12 219 outlet;
#X obj 92 64 random 100;
#X obj 92 145 line;
#X obj 170 64 random 100;
#X obj 170 145 line;
#X obj 12 189 pack f f f;
#X obj 12 12 r bang_forme2;
#X obj 231 9 r line_forme2;
#X obj 12 121 pack 0 2000;
#X obj 92 122 pack 0 2000;
#X obj 170 122 pack 0 2000;
#X obj 58 104;
#X obj 12 90 / 20;
#X obj 92 91 / 20;
#X obj 170 91 / 20;
#X connect 0 0 14 0;
#X connect 1 0 7 0;
#X connect 3 0 15 0;
#X connect 4 0 7 1;
#X connect 5 0 16 0;
#X connect 6 0 7 2;
#X connect 7 0 2 0;
#X connect 8 0 0 0;
#X connect 8 0 3 0;
#X connect 8 0 5 0;
#X connect 9 0 10 1;
#X connect 9 0 11 1;
#X connect 9 0 12 1;
#X connect 10 0 1 0;
#X connect 11 0 4 0;
#X connect 12 0 6 0;
#X connect 14 0 10 0;
#X connect 15 0 11 0;
#X connect 16 0 12 0;
#X restore 162 366 pd tripleRnd;
#N canvas 0 0 353 257 tripleRnd 0;
#X obj 12 63 random 100;
#X obj 12 149 line;
#X obj 12 219 outlet;
#X obj 92 64 random 100;
#X obj 92 145 line;
#X obj 170 64 random 100;
#X obj 170 145 line;
#X obj 12 189 pack f f f;
#X obj 12 12 r bang_forme2;
#X obj 231 9 r line_forme2;
#X obj 12 121 pack 0 2000;
#X obj 92 122 pack 0 2000;
#X obj 170 122 pack 0 2000;
#X obj 58 104;
#X obj 12 90 / 20;
#X obj 92 91 / 20;
#X obj 170 91 / 20;
#X connect 0 0 14 0;
#X connect 1 0 7 0;
#X connect 3 0 15 0;
#X connect 4 0 7 1;
#X connect 5 0 16 0;
#X connect 6 0 7 2;
#X connect 7 0 2 0;
#X connect 8 0 0 0;
#X connect 8 0 3 0;
#X connect 8 0 5 0;
#X connect 9 0 10 1;
#X connect 9 0 11 1;
#X connect 9 0 12 1;
#X connect 10 0 1 0;
#X connect 11 0 4 0;
#X connect 12 0 6 0;
#X connect 14 0 10 0;
#X connect 15 0 11 0;
#X connect 16 0 12 0;
#X restore 298 366 pd tripleRnd;
#N canvas 0 0 353 257 tripleRnd 0;
#X obj 12 63 random 100;
#X obj 12 149 line;
#X obj 12 219 outlet;
#X obj 92 64 random 100;
#X obj 92 145 line;
#X obj 170 64 random 100;
#X obj 170 145 line;
#X obj 12 189 pack f f f;
#X obj 12 12 r bang_forme2;
#X obj 231 9 r line_forme2;
#X obj 12 121 pack 0 2000;
#X obj 92 122 pack 0 2000;
#X obj 170 122 pack 0 2000;
#X obj 58 104;
#X obj 12 90 / 20;
#X obj 92 91 / 20;
#X obj 170 91 / 20;
#X connect 0 0 14 0;
#X connect 1 0 7 0;
#X connect 3 0 15 0;
#X connect 4 0 7 1;
#X connect 5 0 16 0;
#X connect 6 0 7 2;
#X connect 7 0 2 0;
#X connect 8 0 0 0;
#X connect 8 0 3 0;
#X connect 8 0 5 0;
#X connect 9 0 10 1;
#X connect 9 0 11 1;
#X connect 9 0 12 1;
#X connect 10 0 1 0;
#X connect 11 0 4 0;
#X connect 12 0 6 0;
#X connect 14 0 10 0;
#X connect 15 0 11 0;
#X connect 16 0 12 0;
#X restore 424 366 pd tripleRnd;
#N canvas 0 0 353 257 tripleRnd 0;
#X obj 12 63 random 100;
#X obj 12 149 line;
#X obj 12 219 outlet;
#X obj 92 64 random 100;
#X obj 92 145 line;
#X obj 170 64 random 100;
#X obj 170 145 line;
#X obj 12 189 pack f f f;
#X obj 12 12 r bang_forme2;
#X obj 231 9 r line_forme2;
#X obj 12 121 pack 0 2000;
#X obj 92 122 pack 0 2000;
#X obj 170 122 pack 0 2000;
#X obj 58 104;
#X obj 12 90 / 20;
#X obj 92 91 / 20;
#X obj 170 91 / 20;
#X connect 0 0 14 0;
#X connect 1 0 7 0;
#X connect 3 0 15 0;
#X connect 4 0 7 1;
#X connect 5 0 16 0;
#X connect 6 0 7 2;
#X connect 7 0 2 0;
#X connect 8 0 0 0;
#X connect 8 0 3 0;
#X connect 8 0 5 0;
#X connect 9 0 10 1;
#X connect 9 0 11 1;
#X connect 9 0 12 1;
#X connect 10 0 1 0;
#X connect 11 0 4 0;
#X connect 12 0 6 0;
#X connect 14 0 10 0;
#X connect 15 0 11 0;
#X connect 16 0 12 0;
#X restore 557 360 pd tripleRnd;
#N canvas 0 0 353 257 tripleRnd 0;
#X obj 12 63 random 100;
#X obj 12 149 line;
#X obj 12 219 outlet;
#X obj 92 64 random 100;
#X obj 92 145 line;
#X obj 170 64 random 100;
#X obj 170 145 line;
#X obj 12 189 pack f f f;
#X obj 12 12 r bang_forme2;
#X obj 231 9 r line_forme2;
#X obj 12 121 pack 0 2000;
#X obj 92 122 pack 0 2000;
#X obj 170 122 pack 0 2000;
#X obj 58 104;
#X obj 12 90 / 20;
#X obj 92 91 / 20;
#X obj 170 91 / 20;
#X connect 0 0 14 0;
#X connect 1 0 7 0;
#X connect 3 0 15 0;
#X connect 4 0 7 1;
#X connect 5 0 16 0;
#X connect 6 0 7 2;
#X connect 7 0 2 0;
#X connect 8 0 0 0;
#X connect 8 0 3 0;
#X connect 8 0 5 0;
#X connect 9 0 10 1;
#X connect 9 0 11 1;
#X connect 9 0 12 1;
#X connect 10 0 1 0;
#X connect 11 0 4 0;
#X connect 12 0 6 0;
#X connect 14 0 10 0;
#X connect 15 0 11 0;
#X connect 16 0 12 0;
#X restore 298 309 pd tripleRnd;
#N canvas 0 0 353 257 tripleRnd 0;
#X obj 12 63 random 100;
#X obj 12 149 line;
#X obj 12 219 outlet;
#X obj 92 64 random 100;
#X obj 92 145 line;
#X obj 170 64 random 100;
#X obj 170 145 line;
#X obj 12 189 pack f f f;
#X obj 12 12 r bang_forme2;
#X obj 231 9 r line_forme2;
#X obj 12 121 pack 0 2000;
#X obj 92 122 pack 0 2000;
#X obj 170 122 pack 0 2000;
#X obj 58 104;
#X obj 12 90 / 20;
#X obj 92 91 / 20;
#X obj 170 91 / 20;
#X connect 0 0 14 0;
#X connect 1 0 7 0;
#X connect 3 0 15 0;
#X connect 4 0 7 1;
#X connect 5 0 16 0;
#X connect 6 0 7 2;
#X connect 7 0 2 0;
#X connect 8 0 0 0;
#X connect 8 0 3 0;
#X connect 8 0 5 0;
#X connect 9 0 10 1;
#X connect 9 0 11 1;
#X connect 9 0 12 1;
#X connect 10 0 1 0;
#X connect 11 0 4 0;
#X connect 12 0 6 0;
#X connect 14 0 10 0;
#X connect 15 0 11 0;
#X connect 16 0 12 0;
#X restore 434 309 pd tripleRnd;
#N canvas 0 0 353 257 tripleRnd 0;
#X obj 12 63 random 100;
#X obj 12 149 line;
#X obj 12 219 outlet;
#X obj 92 64 random 100;
#X obj 92 145 line;
#X obj 170 64 random 100;
#X obj 170 145 line;
#X obj 12 189 pack f f f;
#X obj 12 12 r bang_forme2;
#X obj 231 9 r line_forme2;
#X obj 12 121 pack 0 2000;
#X obj 92 122 pack 0 2000;
#X obj 170 122 pack 0 2000;
#X obj 58 104;
#X obj 12 90 / 20;
#X obj 92 91 / 20;
#X obj 170 91 / 20;
#X connect 0 0 14 0;
#X connect 1 0 7 0;
#X connect 3 0 15 0;
#X connect 4 0 7 1;
#X connect 5 0 16 0;
#X connect 6 0 7 2;
#X connect 7 0 2 0;
#X connect 8 0 0 0;
#X connect 8 0 3 0;
#X connect 8 0 5 0;
#X connect 9 0 10 1;
#X connect 9 0 11 1;
#X connect 9 0 12 1;
#X connect 10 0 1 0;
#X connect 11 0 4 0;
#X connect 12 0 6 0;
#X connect 14 0 10 0;
#X connect 15 0 11 0;
#X connect 16 0 12 0;
#X restore 553 298 pd tripleRnd;
#N canvas 0 0 353 257 tripleRnd 0;
#X obj 12 63 random 100;
#X obj 12 149 line;
#X obj 12 219 outlet;
#X obj 92 64 random 100;
#X obj 92 145 line;
#X obj 170 64 random 100;
#X obj 170 145 line;
#X obj 12 189 pack f f f;
#X obj 12 12 r bang_forme2;
#X obj 231 9 r line_forme2;
#X obj 12 121 pack 0 2000;
#X obj 92 122 pack 0 2000;
#X obj 170 122 pack 0 2000;
#X obj 58 104;
#X obj 12 90 / 20;
#X obj 92 91 / 20;
#X obj 170 91 / 20;
#X connect 0 0 14 0;
#X connect 1 0 7 0;
#X connect 3 0 15 0;
#X connect 4 0 7 1;
#X connect 5 0 16 0;
#X connect 6 0 7 2;
#X connect 7 0 2 0;
#X connect 8 0 0 0;
#X connect 8 0 3 0;
#X connect 8 0 5 0;
#X connect 9 0 10 1;
#X connect 9 0 11 1;
#X connect 9 0 12 1;
#X connect 10 0 1 0;
#X connect 11 0 4 0;
#X connect 12 0 6 0;
#X connect 14 0 10 0;
#X connect 15 0 11 0;
#X connect 16 0 12 0;
#X restore 298 238 pd tripleRnd;
#N canvas 0 0 353 257 tripleRnd 0;
#X obj 12 63 random 100;
#X obj 12 149 line;
#X obj 12 219 outlet;
#X obj 92 64 random 100;
#X obj 92 145 line;
#X obj 170 64 random 100;
#X obj 170 145 line;
#X obj 12 189 pack f f f;
#X obj 12 12 r bang_forme2;
#X obj 231 9 r line_forme2;
#X obj 12 121 pack 0 2000;
#X obj 92 122 pack 0 2000;
#X obj 170 122 pack 0 2000;
#X obj 58 104;
#X obj 12 90 / 20;
#X obj 92 91 / 20;
#X obj 170 91 / 20;
#X connect 0 0 14 0;
#X connect 1 0 7 0;
#X connect 3 0 15 0;
#X connect 4 0 7 1;
#X connect 5 0 16 0;
#X connect 6 0 7 2;
#X connect 7 0 2 0;
#X connect 8 0 0 0;
#X connect 8 0 3 0;
#X connect 8 0 5 0;
#X connect 9 0 10 1;
#X connect 9 0 11 1;
#X connect 9 0 12 1;
#X connect 10 0 1 0;
#X connect 11 0 4 0;
#X connect 12 0 6 0;
#X connect 14 0 10 0;
#X connect 15 0 11 0;
#X connect 16 0 12 0;
#X restore 435 230 pd tripleRnd;
#N canvas 0 0 353 257 tripleRnd 0;
#X obj 12 63 random 100;
#X obj 12 149 line;
#X obj 12 219 outlet;
#X obj 92 64 random 100;
#X obj 92 145 line;
#X obj 170 64 random 100;
#X obj 170 145 line;
#X obj 12 189 pack f f f;
#X obj 12 12 r bang_forme2;
#X obj 231 9 r line_forme2;
#X obj 12 121 pack 0 2000;
#X obj 92 122 pack 0 2000;
#X obj 170 122 pack 0 2000;
#X obj 58 104;
#X obj 12 90 / 20;
#X obj 92 91 / 20;
#X obj 170 91 / 20;
#X connect 0 0 14 0;
#X connect 1 0 7 0;
#X connect 3 0 15 0;
#X connect 4 0 7 1;
#X connect 5 0 16 0;
#X connect 6 0 7 2;
#X connect 7 0 2 0;
#X connect 8 0 0 0;
#X connect 8 0 3 0;
#X connect 8 0 5 0;
#X connect 9 0 10 1;
#X connect 9 0 11 1;
#X connect 9 0 12 1;
#X connect 10 0 1 0;
#X connect 11 0 4 0;
#X connect 12 0 6 0;
#X connect 14 0 10 0;
#X connect 15 0 11 0;
#X connect 16 0 12 0;
#X restore 572 222 pd tripleRnd;
#N canvas 0 0 353 257 tripleRnd 0;
#X obj 12 63 random 100;
#X obj 12 149 line;
#X obj 12 219 outlet;
#X obj 92 64 random 100;
#X obj 92 145 line;
#X obj 170 64 random 100;
#X obj 170 145 line;
#X obj 12 189 pack f f f;
#X obj 12 12 r bang_forme2;
#X obj 231 9 r line_forme2;
#X obj 12 121 pack 0 2000;
#X obj 92 122 pack 0 2000;
#X obj 170 122 pack 0 2000;
#X obj 58 104;
#X obj 12 90 / 20;
#X obj 92 91 / 20;
#X obj 170 91 / 20;
#X connect 0 0 14 0;
#X connect 1 0 7 0;
#X connect 3 0 15 0;
#X connect 4 0 7 1;
#X connect 5 0 16 0;
#X connect 6 0 7 2;
#X connect 7 0 2 0;
#X connect 8 0 0 0;
#X connect 8 0 3 0;
#X connect 8 0 5 0;
#X connect 9 0 10 1;
#X connect 9 0 11 1;
#X connect 9 0 12 1;
#X connect 10 0 1 0;
#X connect 11 0 4 0;
#X connect 12 0 6 0;
#X connect 14 0 10 0;
#X connect 15 0 11 0;
#X connect 16 0 12 0;
#X restore 299 158 pd tripleRnd;
#N canvas 0 0 353 257 tripleRnd 0;
#X obj 12 63 random 100;
#X obj 12 149 line;
#X obj 12 219 outlet;
#X obj 92 64 random 100;
#X obj 92 145 line;
#X obj 170 64 random 100;
#X obj 170 145 line;
#X obj 12 189 pack f f f;
#X obj 12 12 r bang_forme2;
#X obj 231 9 r line_forme2;
#X obj 12 121 pack 0 2000;
#X obj 92 122 pack 0 2000;
#X obj 170 122 pack 0 2000;
#X obj 58 104;
#X obj 12 90 / 20;
#X obj 92 91 / 20;
#X obj 170 91 / 20;
#X connect 0 0 14 0;
#X connect 1 0 7 0;
#X connect 3 0 15 0;
#X connect 4 0 7 1;
#X connect 5 0 16 0;
#X connect 6 0 7 2;
#X connect 7 0 2 0;
#X connect 8 0 0 0;
#X connect 8 0 3 0;
#X connect 8 0 5 0;
#X connect 9 0 10 1;
#X connect 9 0 11 1;
#X connect 9 0 12 1;
#X connect 10 0 1 0;
#X connect 11 0 4 0;
#X connect 12 0 6 0;
#X connect 14 0 10 0;
#X connect 15 0 11 0;
#X connect 16 0 12 0;
#X restore 424 158 pd tripleRnd;
#N canvas 0 0 353 257 tripleRnd 0;
#X obj 12 63 random 100;
#X obj 12 149 line;
#X obj 12 219 outlet;
#X obj 92 64 random 100;
#X obj 92 145 line;
#X obj 170 64 random 100;
#X obj 170 145 line;
#X obj 12 189 pack f f f;
#X obj 12 12 r bang_forme2;
#X obj 231 9 r line_forme2;
#X obj 12 121 pack 0 2000;
#X obj 92 122 pack 0 2000;
#X obj 170 122 pack 0 2000;
#X obj 58 104;
#X obj 12 90 / 20;
#X obj 92 91 / 20;
#X obj 170 91 / 20;
#X connect 0 0 14 0;
#X connect 1 0 7 0;
#X connect 3 0 15 0;
#X connect 4 0 7 1;
#X connect 5 0 16 0;
#X connect 6 0 7 2;
#X connect 7 0 2 0;
#X connect 8 0 0 0;
#X connect 8 0 3 0;
#X connect 8 0 5 0;
#X connect 9 0 10 1;
#X connect 9 0 11 1;
#X connect 9 0 12 1;
#X connect 10 0 1 0;
#X connect 11 0 4 0;
#X connect 12 0 6 0;
#X connect 14 0 10 0;
#X connect 15 0 11 0;
#X connect 16 0 12 0;
#X restore 569 152 pd tripleRnd;
#X connect 0 0 7 0;
#X connect 1 0 26 0;
#X connect 2 0 26 0;
#X connect 3 0 26 0;
#X connect 4 0 26 0;
#X connect 5 0 26 0;
#X connect 6 0 26 0;
#X connect 7 0 26 0;
#X connect 8 0 26 0;
#X connect 9 0 26 0;
#X connect 10 0 26 0;
#X connect 11 0 26 0;
#X connect 12 0 26 0;
#X connect 13 0 26 0;
#X connect 14 0 26 0;
#X connect 15 0 26 0;
#X connect 16 0 26 0;
#X connect 17 0 26 0;
#X connect 18 0 26 0;
#X connect 19 0 26 0;
#X connect 20 0 26 0;
#X connect 21 0 26 0;
#X connect 22 0 26 0;
#X connect 23 0 26 0;
#X connect 24 0 26 0;
#X connect 25 0 26 0;
#X connect 27 0 28 0;
#X connect 30 0 8 0;
#X connect 31 0 1 0;
#X connect 32 0 10 0;
#X connect 33 0 21 0;
#X connect 34 0 6 0;
#X connect 35 0 5 0;
#X connect 36 0 13 0;
#X connect 37 0 17 0;
#X connect 38 0 9 0;
#X connect 39 0 2 0;
#X connect 40 0 11 0;
#X connect 41 0 22 0;
#X connect 42 0 23 0;
#X connect 43 0 24 0;
#X connect 44 0 25 0;
#X connect 45 0 12 0;
#X connect 46 0 16 0;
#X connect 47 0 20 0;
#X connect 48 0 3 0;
#X connect 49 0 15 0;
#X connect 50 0 19 0;
#X connect 51 0 4 0;
#X connect 52 0 14 0;
#X connect 53 0 18 0;
#X restore 2901 1944 pd forme2;
#X obj 2901 1925 bng 15 250 50 0 empty empty empty 0 -6 0 8 #fcfcfc #000000 #000000;
#X obj 2822 1925 bng 15 250 50 0 empty empty empty 0 -6 0 8 #fcfcfc #000000 #000000;
#N canvas 253 49 697 499 forme1 0;
#X obj 76 418 outlet;
#X obj 36 15 inlet;
#N canvas 0 0 251 239 Rnd 0;
#X obj 12 63 random 100;
#X obj 12 121 pack 0 1000;
#X obj 12 149 line;
#X obj 12 173 outlet;
#X obj 12 90 / 20;
#X obj 12 12 r bang_forme3;
#X obj 105 11 r line_forme3;
#X connect 0 0 4 0;
#X connect 1 0 2 0;
#X connect 2 0 3 0;
#X connect 4 0 1 0;
#X connect 5 0 0 0;
#X connect 6 0 1 1;
#X restore 28 92 pd Rnd;
#X msg 28 114 set 0 0 0 0 \$1;
#X msg 126 115 set 0 1 0 1 \$1;
#X msg 227 116 set 0 2 0 2 \$1;
#X msg 323 117 set 0 3 0 3 \$1;
#X msg 419 116 set 0 4 0 4 \$1;
#X msg 47 159 set 1 0 1 0 \$1;
#X msg 145 160 set 1 1 1 1 \$1;
#X msg 246 161 set 1 2 1 2 \$1;
#X msg 342 162 set 1 3 1 3 \$1;
#X msg 438 161 set 1 4 1 4 \$1;
#X msg 68 202 set 2 0 2 0 \$1;
#X msg 166 203 set 2 1 2 1 \$1;
#X msg 267 204 set 2 2 2 2 \$1;
#X msg 363 205 set 2 3 2 3 \$1;
#X msg 459 204 set 2 4 2 4 \$1;
#X msg 97 249 set 3 0 3 0 \$1;
#X msg 195 250 set 3 1 3 1 \$1;
#X msg 297 251 set 3 2 3 2 \$1;
#X msg 393 252 set 3 3 3 3 \$1;
#X msg 488 251 set 3 4 3 4 \$1;
#X msg 121 296 set 4 0 4 0 \$1;
#X msg 219 297 set 4 1 4 1 \$1;
#X msg 320 298 set 4 2 4 2 \$1;
#X msg 416 299 set 4 3 4 3 \$1;
#X msg 512 298 set 4 4 4 4 \$1;
#X obj 36 39 s bang_forme3;
#N canvas 0 0 249 237 Rnd 0;
#X obj 12 63 random 100;
#X obj 12 121 pack 0 1000;
#X obj 12 149 line;
#X obj 12 173 outlet;
#X obj 12 90 / 20;
#X obj 12 12 r bang_forme3;
#X obj 105 11 r line_forme3;
#X connect 0 0 4 0;
#X connect 1 0 2 0;
#X connect 2 0 3 0;
#X connect 4 0 1 0;
#X connect 5 0 0 0;
#X connect 6 0 1 1;
#X restore 127 92 pd Rnd;
#N canvas 0 0 251 239 Rnd 0;
#X obj 12 63 random 100;
#X obj 12 121 pack 0 1000;
#X obj 12 149 line;
#X obj 12 173 outlet;
#X obj 12 90 / 20;
#X obj 12 12 r bang_forme3;
#X obj 105 11 r line_forme3;
#X connect 0 0 4 0;
#X connect 1 0 2 0;
#X connect 2 0 3 0;
#X connect 4 0 1 0;
#X connect 5 0 0 0;
#X connect 6 0 1 1;
#X restore 227 93 pd Rnd;
#N canvas 0 0 249 237 Rnd 0;
#X obj 12 63 random 100;
#X obj 12 121 pack 0 1000;
#X obj 12 149 line;
#X obj 12 173 outlet;
#X obj 12 90 / 20;
#X obj 12 12 r bang_forme3;
#X obj 105 11 r line_forme3;
#X connect 0 0 4 0;
#X connect 1 0 2 0;
#X connect 2 0 3 0;
#X connect 4 0 1 0;
#X connect 5 0 0 0;
#X connect 6 0 1 1;
#X restore 326 93 pd Rnd;
#N canvas 0 0 249 237 Rnd 0;
#X obj 12 63 random 100;
#X obj 12 121 pack 0 1000;
#X obj 12 149 line;
#X obj 12 173 outlet;
#X obj 12 90 / 20;
#X obj 12 12 r bang_forme3;
#X obj 105 11 r line_forme3;
#X connect 0 0 4 0;
#X connect 1 0 2 0;
#X connect 2 0 3 0;
#X connect 4 0 1 0;
#X connect 5 0 0 0;
#X connect 6 0 1 1;
#X restore 420 94 pd Rnd;
#N canvas 0 0 249 237 Rnd 0;
#X obj 12 63 random 100;
#X obj 12 121 pack 0 1000;
#X obj 12 149 line;
#X obj 12 173 outlet;
#X obj 12 90 / 20;
#X obj 12 12 r bang_forme3;
#X obj 105 11 r line_forme3;
#X connect 0 0 4 0;
#X connect 1 0 2 0;
#X connect 2 0 3 0;
#X connect 4 0 1 0;
#X connect 5 0 0 0;
#X connect 6 0 1 1;
#X restore 48 138 pd Rnd;
#N canvas 0 0 249 237 Rnd 0;
#X obj 12 63 random 100;
#X obj 12 121 pack 0 1000;
#X obj 12 149 line;
#X obj 12 173 outlet;
#X obj 12 90 / 20;
#X obj 12 12 r bang_forme3;
#X obj 105 11 r line_forme3;
#X connect 0 0 4 0;
#X connect 1 0 2 0;
#X connect 2 0 3 0;
#X connect 4 0 1 0;
#X connect 5 0 0 0;
#X connect 6 0 1 1;
#X restore 147 138 pd Rnd;
#N canvas 0 0 249 237 Rnd 0;
#X obj 12 63 random 100;
#X obj 12 121 pack 0 1000;
#X obj 12 149 line;
#X obj 12 173 outlet;
#X obj 12 90 / 20;
#X obj 12 12 r bang_forme3;
#X obj 105 11 r line_forme3;
#X connect 0 0 4 0;
#X connect 1 0 2 0;
#X connect 2 0 3 0;
#X connect 4 0 1 0;
#X connect 5 0 0 0;
#X connect 6 0 1 1;
#X restore 247 139 pd Rnd;
#N canvas 0 0 249 237 Rnd 0;
#X obj 12 63 random 100;
#X obj 12 121 pack 0 1000;
#X obj 12 149 line;
#X obj 12 173 outlet;
#X obj 12 90 / 20;
#X obj 12 12 r bang_forme3;
#X obj 105 11 r line_forme3;
#X connect 0 0 4 0;
#X connect 1 0 2 0;
#X connect 2 0 3 0;
#X connect 4 0 1 0;
#X connect 5 0 0 0;
#X connect 6 0 1 1;
#X restore 346 139 pd Rnd;
#N canvas 0 0 249 237 Rnd 0;
#X obj 12 63 random 100;
#X obj 12 121 pack 0 1000;
#X obj 12 149 line;
#X obj 12 173 outlet;
#X obj 12 90 / 20;
#X obj 12 12 r bang_forme3;
#X obj 105 11 r line_forme3;
#X connect 0 0 4 0;
#X connect 1 0 2 0;
#X connect 2 0 3 0;
#X connect 4 0 1 0;
#X connect 5 0 0 0;
#X connect 6 0 1 1;
#X restore 440 140 pd Rnd;
#N canvas 0 0 249 237 Rnd 0;
#X obj 12 63 random 100;
#X obj 12 121 pack 0 1000;
#X obj 12 149 line;
#X obj 12 173 outlet;
#X obj 12 90 / 20;
#X obj 12 12 r bang_forme3;
#X obj 105 11 r line_forme3;
#X connect 0 0 4 0;
#X connect 1 0 2 0;
#X connect 2 0 3 0;
#X connect 4 0 1 0;
#X connect 5 0 0 0;
#X connect 6 0 1 1;
#X restore 68 181 pd Rnd;
#N canvas 0 0 249 237 Rnd 0;
#X obj 12 63 random 100;
#X obj 12 121 pack 0 1000;
#X obj 12 149 line;
#X obj 12 173 outlet;
#X obj 12 90 / 20;
#X obj 12 12 r bang_forme3;
#X obj 105 11 r line_forme3;
#X connect 0 0 4 0;
#X connect 1 0 2 0;
#X connect 2 0 3 0;
#X connect 4 0 1 0;
#X connect 5 0 0 0;
#X connect 6 0 1 1;
#X restore 167 181 pd Rnd;
#N canvas 0 0 249 237 Rnd 0;
#X obj 12 63 random 100;
#X obj 12 121 pack 0 1000;
#X obj 12 149 line;
#X obj 12 173 outlet;
#X obj 12 90 / 20;
#X obj 12 12 r bang_forme3;
#X obj 105 11 r line_forme3;
#X connect 0 0 4 0;
#X connect 1 0 2 0;
#X connect 2 0 3 0;
#X connect 4 0 1 0;
#X connect 5 0 0 0;
#X connect 6 0 1 1;
#X restore 267 182 pd Rnd;
#N canvas 0 0 249 237 Rnd 0;
#X obj 12 63 random 100;
#X obj 12 121 pack 0 1000;
#X obj 12 149 line;
#X obj 12 173 outlet;
#X obj 12 90 / 20;
#X obj 12 12 r bang_forme3;
#X obj 105 11 r line_forme3;
#X connect 0 0 4 0;
#X connect 1 0 2 0;
#X connect 2 0 3 0;
#X connect 4 0 1 0;
#X connect 5 0 0 0;
#X connect 6 0 1 1;
#X restore 366 182 pd Rnd;
#N canvas 0 0 249 237 Rnd 0;
#X obj 12 63 random 100;
#X obj 12 121 pack 0 1000;
#X obj 12 149 line;
#X obj 12 173 outlet;
#X obj 12 90 / 20;
#X obj 12 12 r bang_forme3;
#X obj 105 11 r line_forme3;
#X connect 0 0 4 0;
#X connect 1 0 2 0;
#X connect 2 0 3 0;
#X connect 4 0 1 0;
#X connect 5 0 0 0;
#X connect 6 0 1 1;
#X restore 460 183 pd Rnd;
#N canvas 0 0 249 237 Rnd 0;
#X obj 12 63 random 100;
#X obj 12 121 pack 0 1000;
#X obj 12 149 line;
#X obj 12 173 outlet;
#X obj 12 90 / 20;
#X obj 12 12 r bang_forme3;
#X obj 105 11 r line_forme3;
#X connect 0 0 4 0;
#X connect 1 0 2 0;
#X connect 2 0 3 0;
#X connect 4 0 1 0;
#X connect 5 0 0 0;
#X connect 6 0 1 1;
#X restore 97 227 pd Rnd;
#N canvas 0 0 249 237 Rnd 0;
#X obj 12 63 random 100;
#X obj 12 121 pack 0 1000;
#X obj 12 149 line;
#X obj 12 173 outlet;
#X obj 12 90 / 20;
#X obj 12 12 r bang_forme3;
#X obj 105 11 r line_forme3;
#X connect 0 0 4 0;
#X connect 1 0 2 0;
#X connect 2 0 3 0;
#X connect 4 0 1 0;
#X connect 5 0 0 0;
#X connect 6 0 1 1;
#X restore 196 227 pd Rnd;
#N canvas 0 0 249 237 Rnd 0;
#X obj 12 63 random 100;
#X obj 12 121 pack 0 1000;
#X obj 12 149 line;
#X obj 12 173 outlet;
#X obj 12 90 / 20;
#X obj 12 12 r bang_forme3;
#X obj 105 11 r line_forme3;
#X connect 0 0 4 0;
#X connect 1 0 2 0;
#X connect 2 0 3 0;
#X connect 4 0 1 0;
#X connect 5 0 0 0;
#X connect 6 0 1 1;
#X restore 296 228 pd Rnd;
#N canvas 0 0 249 237 Rnd 0;
#X obj 12 63 random 100;
#X obj 12 121 pack 0 1000;
#X obj 12 149 line;
#X obj 12 173 outlet;
#X obj 12 90 / 20;
#X obj 12 12 r bang_forme3;
#X obj 105 11 r line_forme3;
#X connect 0 0 4 0;
#X connect 1 0 2 0;
#X connect 2 0 3 0;
#X connect 4 0 1 0;
#X connect 5 0 0 0;
#X connect 6 0 1 1;
#X restore 395 228 pd Rnd;
#N canvas 0 0 249 237 Rnd 0;
#X obj 12 63 random 100;
#X obj 12 121 pack 0 1000;
#X obj 12 149 line;
#X obj 12 173 outlet;
#X obj 12 90 / 20;
#X obj 12 12 r bang_forme3;
#X obj 105 11 r line_forme3;
#X connect 0 0 4 0;
#X connect 1 0 2 0;
#X connect 2 0 3 0;
#X connect 4 0 1 0;
#X connect 5 0 0 0;
#X connect 6 0 1 1;
#X restore 489 229 pd Rnd;
#N canvas 0 0 249 237 Rnd 0;
#X obj 12 63 random 100;
#X obj 12 121 pack 0 1000;
#X obj 12 149 line;
#X obj 12 173 outlet;
#X obj 12 90 / 20;
#X obj 12 12 r bang_forme3;
#X obj 105 11 r line_forme3;
#X connect 0 0 4 0;
#X connect 1 0 2 0;
#X connect 2 0 3 0;
#X connect 4 0 1 0;
#X connect 5 0 0 0;
#X connect 6 0 1 1;
#X restore 121 275 pd Rnd;
#N canvas 0 0 249 237 Rnd 0;
#X obj 12 63 random 100;
#X obj 12 121 pack 0 1000;
#X obj 12 149 line;
#X obj 12 173 outlet;
#X obj 12 90 / 20;
#X obj 12 12 r bang_forme3;
#X obj 105 11 r line_forme3;
#X connect 0 0 4 0;
#X connect 1 0 2 0;
#X connect 2 0 3 0;
#X connect 4 0 1 0;
#X connect 5 0 0 0;
#X connect 6 0 1 1;
#X restore 220 275 pd Rnd;
#N canvas 0 0 249 237 Rnd 0;
#X obj 12 63 random 100;
#X obj 12 121 pack 0 1000;
#X obj 12 149 line;
#X obj 12 173 outlet;
#X obj 12 90 / 20;
#X obj 12 12 r bang_forme3;
#X obj 105 11 r line_forme3;
#X connect 0 0 4 0;
#X connect 1 0 2 0;
#X connect 2 0 3 0;
#X connect 4 0 1 0;
#X connect 5 0 0 0;
#X connect 6 0 1 1;
#X restore 320 276 pd Rnd;
#N canvas 0 0 249 237 Rnd 0;
#X obj 12 63 random 100;
#X obj 12 121 pack 0 1000;
#X obj 12 149 line;
#X obj 12 173 outlet;
#X obj 12 90 / 20;
#X obj 12 12 r bang_forme3;
#X obj 105 11 r line_forme3;
#X connect 0 0 4 0;
#X connect 1 0 2 0;
#X connect 2 0 3 0;
#X connect 4 0 1 0;
#X connect 5 0 0 0;
#X connect 6 0 1 1;
#X restore 419 276 pd Rnd;
#N canvas 0 0 249 237 Rnd 0;
#X obj 12 63 random 100;
#X obj 12 121 pack 0 1000;
#X obj 12 149 line;
#X obj 12 173 outlet;
#X obj 12 90 / 20;
#X obj 12 12 r bang_forme3;
#X obj 105 11 r line_forme3;
#X connect 0 0 4 0;
#X connect 1 0 2 0;
#X connect 2 0 3 0;
#X connect 4 0 1 0;
#X connect 5 0 0 0;
#X connect 6 0 1 1;
#X restore 513 277 pd Rnd;
#X connect 1 0 28 0;
#X connect 2 0 3 0;
#X connect 3 0 0 0;
#X connect 4 0 0 0;
#X connect 5 0 0 0;
#X connect 6 0 0 0;
#X connect 7 0 0 0;
#X connect 8 0 0 0;
#X connect 9 0 0 0;
#X connect 10 0 0 0;
#X connect 11 0 0 0;
#X connect 12 0 0 0;
#X connect 13 0 0 0;
#X connect 14 0 0 0;
#X connect 15 0 0 0;
#X connect 16 0 0 0;
#X connect 17 0 0 0;
#X connect 18 0 0 0;
#X connect 19 0 0 0;
#X connect 20 0 0 0;
#X connect 21 0 0 0;
#X connect 22 0 0 0;
#X connect 23 0 0 0;
#X connect 24 0 0 0;
#X connect 25 0 0 0;
#X connect 26 0 0 0;
#X connect 27 0 0 0;
#X connect 29 0 4 0;
#X connect 30 0 5 0;
#X connect 31 0 6 0;
#X connect 32 0 7 0;
#X connect 33 0 8 0;
#X connect 34 0 9 0;
#X connect 35 0 10 0;
#X connect 36 0 11 0;
#X connect 37 0 12 0;
#X connect 38 0 13 0;
#X connect 39 0 14 0;
#X connect 40 0 15 0;
#X connect 41 0 16 0;
#X connect 42 0 17 0;
#X connect 43 0 18 0;
#X connect 44 0 19 0;
#X connect 45 0 20 0;
#X connect 46 0 21 0;
#X connect 47 0 22 0;
#X connect 48 0 23 0;
#X connect 49 0 24 0;
#X connect 50 0 25 0;
#X connect 51 0 26 0;
#X connect 52 0 27 0;
#X restore 2822 1944 pd forme1;
#X text 2842 1912 shape1;
#X text 2921 1912 shape2;
#X obj 2822 1904 loadbang;
#X floatatom 2979 1899 5 0 0 0 - - - 0;
#X msg 2979 1941 set 3 2 \$1 \$2 \$3;
#X floatatom 3012 1899 5 0 0 0 - - - 0;
#N canvas 0 0 173 130 pak 0;
#X obj 73 39 t b f;
#X obj 108 39 t b f;
#X obj 38 19 inlet;
#X obj 38 69 pack f f f;
#X obj 38 90 outlet;
#X obj 73 19 inlet;
#X obj 108 19 inlet;
#X connect 0 0 3 0;
#X connect 0 1 3 1;
#X connect 1 0 3 0;
#X connect 1 1 3 2;
#X connect 2 0 3 0;
#X connect 3 0 4 0;
#X connect 5 0 0 0;
#X connect 6 0 1 0;
#X restore 2979 1919 pd pak f f f;
#X floatatom 3046 1899 5 0 0 0 - - - 0;
#X obj 2979 1967 s examples_shape;
#X obj 2901 1967 s curve3d;
#X obj 2822 1967 s curve3d;
#X text 2778 1491 Description: Renders a 3d bezier curve.;
#X text 2833 1606 size of the control matrix (default : 2 2);
#X obj 3805 2300 curve3d 5 5;
#X text 3041 1426 Create a 3D bezier curve \, using a matrix of control points;
#X text 2796 1759 Inlet 1 : message: set Mx My X Y Z;
#X text 2796 1719 Inlet 1: message: grid X Y;
#X text 2796 1682 Inlet 1: message: res X Y;
#X text 2818 1695 This message is use for changing the size of the control matrix (X \, Y are 2 int);
#X text 2817 1733 This message is use for changing the subdivision of the displayed curve (X Y are 2 int);
#X text 2818 1772 This message can be use to set the position of a control point. (Mx \, My : position of the point in the matrix. X \, Y \, Z : position of this control point;
#X text 2786 1870 examples :;
#X text 2794 1510 The curve3d object renders a curve at the current position with current color or texture. The shape of the curve is controlled from a matrix. Note that control points are not necessarily part of the curve.;
#X obj 3613 1443 declare -lib Gem;
#X obj 3822 1898 translateXYZ 0 0 0;
#X msg 3599 1609 res 6 6;
#X obj 3456 1885 nbx 4 18 0 1 0 1 empty empty empty 0 -8 0 10 #e4e4e4 #373737 #373737 0 256;
#X obj 3522 1885 nbx 4 19 0 1 0 1 empty empty empty 0 -8 0 10 #e4e4e4 #373737 #373737 1 256;
#X obj 3594 1878 nbx 4 19 0 1 0 1 empty empty empty 0 -8 0 10 #e4e4e4 #373737 #373737 1 256;
#X obj 2354 2181 osc~ 0.014;
#X obj 2605 1744 notein 1;
#X obj 2672 1823;
#X obj 468 2513 part_source 20;
#X obj 1088 2444 part_source 20;
#X msg 531 2734 1 1 1;
#X msg 1151 2665 1 1 1;
#X obj 468 2669 part_killold 12;
#X obj 1088 2600 part_killold 12;
#X obj 3818 1797 nbx 4 18 -1e+37 1e+37 0 1 empty empty empty 0 -8 0 10 #191919 #ffffff #ffffff -2.5 256;
#X obj 3875 1806 nbx 4 18 -1e+37 1e+37 0 1 empty empty empty 0 -8 0 10 #191919 #ffffff #ffffff -2.5 256;
#X obj 3951 1802 nbx 4 18 -1e+37 1e+37 0 1 empty empty empty 0 -8 0 10 #191919 #ffffff #ffffff 0 256;
#X obj 2495 2046 loadbang;
#X obj 2517 1835 loadbang;
#X msg 3637 1760 grid 150 150;
#X obj 3704 1677 loadbang;
#X obj 2979 2443 line;
#X obj 3046 2375 bng 25 250 50 0 empty empty empty 17 7 0 10 #e4e4e4 #4d4d4d #373737;
#X obj 2979 2476 nbx 4 18 -1e+37 1e+37 0 0 empty empty empty 0 -8 0 10 #e4e4e4 #373737 #373737 0 256;
#X obj 2979 2375 bng 25 250 50 0 empty empty empty 17 7 0 10 #e4e4e4 #4d4d4d #373737;
#X msg 2979 2413 0 10;
#X obj 3117 2375 bng 25 250 50 0 empty empty empty 17 7 0 10 #e4e4e4 #4d4d4d #373737;
#X obj 3046 2342 delay 10;
#X obj 2979 2342 notein 1;
#X obj 2887 2603 color;
#X obj 2919 2565 pack f f f f;
#X obj 2991 2503 tgl 25 0 empty empty empty 17 7 0 10 #e4e4e4 #4d4d4d #373737 0 1;
#X obj 2991 2538 metro 50;
#X obj 2899 2503 loadbang;
#X obj 2820 2531 gemhead;
#X obj 2852 2565 alpha 1;
#X obj 2806 2603 loadbang;
#X msg 2806 2637 draw line;
#X obj 4029 1842 vsl 24 92 0 127 0 0 empty empty empty 0 -9 0 10 #e4e4e4 #4d4d4d #373737 0 1;
#X obj 4006 1975 nbx 4 18 -1e+37 1e+37 0 0 empty empty empty 0 -8 0 10 #e4e4e4 #373737 #373737 0 256;
#X obj 3838 2087 color;
#X obj 3897 2133 pack f f f f;
#X obj 3962 2038 tgl 25 0 empty empty empty 17 7 0 10 #e4e4e4 #4d4d4d #373737 0 1;
#X obj 3962 2083 metro 50;
#X obj 3883 2047 loadbang;
#X obj 3827 2025 alpha 1;
#X obj 4063 1638;
#X obj 4029 1718 line;
#X obj 4029 1748 nbx 4 18 -1e+37 1e+37 0 0 empty empty empty 0 -8 0 10 #e4e4e4 #373737 #373737 0 256;
#X obj 4097 1646 bng 25 250 50 0 empty empty empty 17 7 0 10 #e4e4e4 #4d4d4d #373737;
#X obj 4029 1646 bng 25 250 50 0 empty empty empty 17 7 0 10 #e4e4e4 #4d4d4d #373737;
#X obj 4097 1611 delay 10;
#X msg 4029 1686 0 10;
#X msg 2095 1602 gemwin FSAA 8;
#X obj 2095 2677 sphere;
#X msg 1993 2628 draw line;
#X msg 1310 3038 width 2.5;
#X msg 694 3102 width 2.5;
#X msg 2948 2637 width 2.5;
#X msg 4097 1686 1 40000;
#X obj 2403 1980 snapshot~;
#X obj 2086 1577 gemwin 60;
#X obj 1903 2594 loadbang;
#X obj 1310 3001 loadbang;
#X obj 694 3065 loadbang;
#X obj 2387 2037 * 360;
#X obj 2415 1916 osc~ 0.03;
#X obj 2444 2190 metro 20;
#X msg 3032 2413 0.75 500;
#X obj 2887 2665 circle;
#X obj 2948 2603 loadbang;
#X obj 2114 2639 nbx 4 18 -1e+37 1e+37 0 0 empty empty empty 0 -8 0 10 #191919 #ffffff #ffffff 0 256;
#X obj 2114 2565 bng 25 250 50 0 empty empty empty 17 7 0 10 #e4e4e4 #4d4d4d #373737;
#X obj 2114 2528 notein 2;
#X obj 2114 2607 random 20;
#X msg 3117 2413 0;
#X obj 3117 2342 notein 2;
#X msg 2184 2066 2.5 1200;
#X msg 2135 2066 0.8;
#X msg 1917 2628 width 3;
#X obj 4324 1837 gemhead;
#X floatatom 4352 1880 5 0 0 0 - - - 0;
#X floatatom 4387 1880 5 0 0 0 - - - 0;
#X floatatom 4423 1880 5 0 0 0 - - - 0;
#X obj 4324 1901 rotateXYZ 0 0 0;
#X obj 4307 2260 curve3d 5 5;
#X obj 4324 1858 translateXYZ 0 0 0;
#X obj 4320 1757 nbx 4 18 -1e+37 1e+37 0 1 empty empty empty 0 -8 0 10 #191919 #ffffff #ffffff -2.5 256;
#X obj 4377 1766 nbx 4 18 -1e+37 1e+37 0 1 empty empty empty 0 -8 0 10 #191919 #ffffff #ffffff -2.5 256;
#X obj 4453 1762 nbx 4 18 -1e+37 1e+37 0 1 empty empty empty 0 -8 0 10 #191919 #ffffff #ffffff -3 256;
#X obj 4531 1802 vsl 24 92 0 127 0 0 empty empty empty 0 -9 0 10 #e4e4e4 #4d4d4d #373737 0 1;
#X obj 4508 1942 nbx 4 18 -1e+37 1e+37 0 0 empty empty empty 0 -8 0 10 #e4e4e4 #373737 #373737 0 256;
#X obj 4340 2047 color;
#X obj 4399 2093 pack f f f f;
#X obj 4464 1998 tgl 25 0 empty empty empty 17 7 0 10 #e4e4e4 #4d4d4d #373737 0 1;
#X obj 4464 2043 metro 50;
#X obj 4385 2007 loadbang;
#X obj 4329 1985 alpha 1;
#X obj 4565 1598;
#X obj 4531 1678 line;
#X obj 4531 1708 nbx 4 18 -1e+37 1e+37 0 0 empty empty empty 0 -8 0 10 #e4e4e4 #373737 #373737 0 256;
#X obj 4599 1606 bng 25 250 50 0 empty empty empty 17 7 0 10 #e4e4e4 #4d4d4d #373737;
#X obj 4531 1606 bng 25 250 50 0 empty empty empty 17 7 0 10 #e4e4e4 #4d4d4d #373737;
#X obj 4599 1571 delay 10;
#X msg 4531 1646 0 10;
#X msg 4599 1646 1 40000;
#N canvas 253 49 691 493 forme2 0;
#N canvas 0 0 353 257 tripleRnd 0;
#X obj 12 63 random 100;
#X obj 12 149 line;
#X obj 12 219 outlet;
#X obj 92 64 random 100;
#X obj 92 145 line;
#X obj 170 64 random 100;
#X obj 170 145 line;
#X obj 12 189 pack f f f;
#X obj 12 12 r bang_forme2;
#X obj 231 9 r line_forme2;
#X obj 12 121 pack 0 2000;
#X obj 92 122 pack 0 2000;
#X obj 170 122 pack 0 2000;
#X obj 58 104;
#X obj 12 90 / 20;
#X obj 92 91 / 20;
#X obj 170 91 / 20;
#X connect 0 0 14 0;
#X connect 1 0 7 0;
#X connect 3 0 15 0;
#X connect 4 0 7 1;
#X connect 5 0 16 0;
#X connect 6 0 7 2;
#X connect 7 0 2 0;
#X connect 8 0 0 0;
#X connect 8 0 3 0;
#X connect 8 0 5 0;
#X connect 9 0 10 1;
#X connect 9 0 11 1;
#X connect 9 0 12 1;
#X connect 10 0 1 0;
#X connect 11 0 4 0;
#X connect 12 0 6 0;
#X connect 14 0 10 0;
#X connect 15 0 11 0;
#X connect 16 0 12 0;
#X restore 28 92 pd tripleRnd;
#X msg 26 270 set 2 0 \$1 \$2 \$3;
#X msg 161 269 set 2 1 \$1 \$2 \$3;
#X msg 298 269 set 2 2 \$1 \$2 \$3;
#X msg 299 190 set 1 2 \$1 \$2 \$3;
#X msg 299 112 set 0 2 \$1 \$2 \$3;
#X msg 161 112 set 0 1 \$1 \$2 \$3;
#X msg 28 114 set 0 0 \$1 \$2 \$3;
#X msg 29 193 set 1 0 \$1 \$2 \$3;
#X msg 161 189 set 1 1 \$1 \$2 \$3;
#X msg 26 337 set 3 0 \$1 \$2 \$3;
#X msg 162 336 set 3 1 \$1 \$2 \$3;
#X msg 298 338 set 3 2 \$1 \$2 \$3;
#X msg 423 111 set 0 3 \$1 \$2 \$3;
#X msg 424 189 set 1 3 \$1 \$2 \$3;
#X msg 424 265 set 2 3 \$1 \$2 \$3;
#X msg 423 335 set 3 3 \$1 \$2 \$3;
#X msg 544 109 set 0 4 \$1 \$2 \$3;
#X msg 545 187 set 1 4 \$1 \$2 \$3;
#X msg 540 263 set 2 4 \$1 \$2 \$3;
#X msg 543 333 set 3 4 \$1 \$2 \$3;
#X msg 28 399 set 4 0 \$1 \$2 \$3;
#X msg 162 392 set 4 1 \$1 \$2 \$3;
#X msg 299 393 set 4 2 \$1 \$2 \$3;
#X msg 424 391 set 4 3 \$1 \$2 \$3;
#X msg 545 389 set 4 4 \$1 \$2 \$3;
#X obj 10 445 outlet;
#X obj 36 15 inlet;
#X obj 36 39 s bang_forme2;
#X obj 248 583;
#N canvas 0 0 353 257 tripleRnd 0;
#X obj 12 63 random 100;
#X obj 12 149 line;
#X obj 12 219 outlet;
#X obj 92 64 random 100;
#X obj 92 145 line;
#X obj 170 64 random 100;
#X obj 170 145 line;
#X obj 12 189 pack f f f;
#X obj 12 12 r bang_forme2;
#X obj 231 9 r line_forme2;
#X obj 12 121 pack 0 2000;
#X obj 92 122 pack 0 2000;
#X obj 170 122 pack 0 2000;
#X obj 58 104;
#X obj 12 90 / 20;
#X obj 92 91 / 20;
#X obj 170 91 / 20;
#X connect 0 0 14 0;
#X connect 1 0 7 0;
#X connect 3 0 15 0;
#X connect 4 0 7 1;
#X connect 5 0 16 0;
#X connect 6 0 7 2;
#X connect 7 0 2 0;
#X connect 8 0 0 0;
#X connect 8 0 3 0;
#X connect 8 0 5 0;
#X connect 9 0 10 1;
#X connect 9 0 11 1;
#X connect 9 0 12 1;
#X connect 10 0 1 0;
#X connect 11 0 4 0;
#X connect 12 0 6 0;
#X connect 14 0 10 0;
#X connect 15 0 11 0;
#X connect 16 0 12 0;
#X restore 29 164 pd tripleRnd;
#N canvas 0 0 353 257 tripleRnd 0;
#X obj 12 63 random 100;
#X obj 12 149 line;
#X obj 12 219 outlet;
#X obj 92 64 random 100;
#X obj 92 145 line;
#X obj 170 64 random 100;
#X obj 170 145 line;
#X obj 12 189 pack f f f;
#X obj 12 12 r bang_forme2;
#X obj 231 9 r line_forme2;
#X obj 12 121 pack 0 2000;
#X obj 92 122 pack 0 2000;
#X obj 170 122 pack 0 2000;
#X obj 58 104;
#X obj 12 90 / 20;
#X obj 92 91 / 20;
#X obj 170 91 / 20;
#X connect 0 0 14 0;
#X connect 1 0 7 0;
#X connect 3 0 15 0;
#X connect 4 0 7 1;
#X connect 5 0 16 0;
#X connect 6 0 7 2;
#X connect 7 0 2 0;
#X connect 8 0 0 0;
#X connect 8 0 3 0;
#X connect 8 0 5 0;
#X connect 9 0 10 1;
#X connect 9 0 11 1;
#X connect 9 0 12 1;
#X connect 10 0 1 0;
#X connect 11 0 4 0;
#X connect 12 0 6 0;
#X connect 14 0 10 0;
#X connect 15 0 11 0;
#X connect 16 0 12 0;
#X restore 29 238 pd tripleRnd;
#N canvas 0 0 353 257 tripleRnd 0;
#X obj 12 63 random 100;
#X obj 12 149 line;
#X obj 12 219 outlet;
#X obj 92 64 random 100;
#X obj 92 145 line;
#X obj 170 64 random 100;
#X obj 170 145 line;
#X obj 12 189 pack f f f;
#X obj 12 12 r bang_forme2;
#X obj 231 9 r line_forme2;
#X obj 12 121 pack 0 2000;
#X obj 92 122 pack 0 2000;
#X obj 170 122 pack 0 2000;
#X obj 58 104;
#X obj 12 90 / 20;
#X obj 92 91 / 20;
#X obj 170 91 / 20;
#X connect 0 0 14 0;
#X connect 1 0 7 0;
#X connect 3 0 15 0;
#X connect 4 0 7 1;
#X connect 5 0 16 0;
#X connect 6 0 7 2;
#X connect 7 0 2 0;
#X connect 8 0 0 0;
#X connect 8 0 3 0;
#X connect 8 0 5 0;
#X connect 9 0 10 1;
#X connect 9 0 11 1;
#X connect 9 0 12 1;
#X connect 10 0 1 0;
#X connect 11 0 4 0;
#X connect 12 0 6 0;
#X connect 14 0 10 0;
#X connect 15 0 11 0;
#X connect 16 0 12 0;
#X restore 29 309 pd tripleRnd;
#N canvas 0 0 353 257 tripleRnd 0;
#X obj 12 63 random 100;
#X obj 12 149 line;
#X obj 12 219 outlet;
#X obj 92 64 random 100;
#X obj 92 145 line;
#X obj 170 64 random 100;
#X obj 170 145 line;
#X obj 12 189 pack f f f;
#X obj 12 12 r bang_forme2;
#X obj 231 9 r line_forme2;
#X obj 12 121 pack 0 2000;
#X obj 92 122 pack 0 2000;
#X obj 170 122 pack 0 2000;
#X obj 58 104;
#X obj 12 90 / 20;
#X obj 92 91 / 20;
#X obj 170 91 / 20;
#X connect 0 0 14 0;
#X connect 1 0 7 0;
#X connect 3 0 15 0;
#X connect 4 0 7 1;
#X connect 5 0 16 0;
#X connect 6 0 7 2;
#X connect 7 0 2 0;
#X connect 8 0 0 0;
#X connect 8 0 3 0;
#X connect 8 0 5 0;
#X connect 9 0 10 1;
#X connect 9 0 11 1;
#X connect 9 0 12 1;
#X connect 10 0 1 0;
#X connect 11 0 4 0;
#X connect 12 0 6 0;
#X connect 14 0 10 0;
#X connect 15 0 11 0;
#X connect 16 0 12 0;
#X restore 26 366 pd tripleRnd;
#N canvas 0 0 353 257 tripleRnd 0;
#X obj 12 63 random 100;
#X obj 12 149 line;
#X obj 12 219 outlet;
#X obj 92 64 random 100;
#X obj 92 145 line;
#X obj 170 64 random 100;
#X obj 170 145 line;
#X obj 12 189 pack f f f;
#X obj 12 12 r bang_forme2;
#X obj 231 9 r line_forme2;
#X obj 12 121 pack 0 2000;
#X obj 92 122 pack 0 2000;
#X obj 170 122 pack 0 2000;
#X obj 58 104;
#X obj 12 90 / 20;
#X obj 92 91 / 20;
#X obj 170 91 / 20;
#X connect 0 0 14 0;
#X connect 1 0 7 0;
#X connect 3 0 15 0;
#X connect 4 0 7 1;
#X connect 5 0 16 0;
#X connect 6 0 7 2;
#X connect 7 0 2 0;
#X connect 8 0 0 0;
#X connect 8 0 3 0;
#X connect 8 0 5 0;
#X connect 9 0 10 1;
#X connect 9 0 11 1;
#X connect 9 0 12 1;
#X connect 10 0 1 0;
#X connect 11 0 4 0;
#X connect 12 0 6 0;
#X connect 14 0 10 0;
#X connect 15 0 11 0;
#X connect 16 0 12 0;
#X restore 161 82 pd tripleRnd;
#N canvas 0 0 353 257 tripleRnd 0;
#X obj 12 63 random 100;
#X obj 12 149 line;
#X obj 12 219 outlet;
#X obj 92 64 random 100;
#X obj 92 145 line;
#X obj 170 64 random 100;
#X obj 170 145 line;
#X obj 12 189 pack f f f;
#X obj 12 12 r bang_forme2;
#X obj 231 9 r line_forme2;
#X obj 12 121 pack 0 2000;
#X obj 92 122 pack 0 2000;
#X obj 170 122 pack 0 2000;
#X obj 58 104;
#X obj 12 90 / 20;
#X obj 92 91 / 20;
#X obj 170 91 / 20;
#X connect 0 0 14 0;
#X connect 1 0 7 0;
#X connect 3 0 15 0;
#X connect 4 0 7 1;
#X connect 5 0 16 0;
#X connect 6 0 7 2;
#X connect 7 0 2 0;
#X connect 8 0 0 0;
#X connect 8 0 3 0;
#X connect 8 0 5 0;
#X connect 9 0 10 1;
#X connect 9 0 11 1;
#X connect 9 0 12 1;
#X connect 10 0 1 0;
#X connect 11 0 4 0;
#X connect 12 0 6 0;
#X connect 14 0 10 0;
#X connect 15 0 11 0;
#X connect 16 0 12 0;
#X restore 299 82 pd tripleRnd;
#N canvas 0 0 353 257 tripleRnd 0;
#X obj 12 63 random 100;
#X obj 12 149 line;
#X obj 12 219 outlet;
#X obj 92 64 random 100;
#X obj 92 145 line;
#X obj 170 64 random 100;
#X obj 170 145 line;
#X obj 12 189 pack f f f;
#X obj 12 12 r bang_forme2;
#X obj 231 9 r line_forme2;
#X obj 12 121 pack 0 2000;
#X obj 92 122 pack 0 2000;
#X obj 170 122 pack 0 2000;
#X obj 58 104;
#X obj 12 90 / 20;
#X obj 92 91 / 20;
#X obj 170 91 / 20;
#X connect 0 0 14 0;
#X connect 1 0 7 0;
#X connect 3 0 15 0;
#X connect 4 0 7 1;
#X connect 5 0 16 0;
#X connect 6 0 7 2;
#X connect 7 0 2 0;
#X connect 8 0 0 0;
#X connect 8 0 3 0;
#X connect 8 0 5 0;
#X connect 9 0 10 1;
#X connect 9 0 11 1;
#X connect 9 0 12 1;
#X connect 10 0 1 0;
#X connect 11 0 4 0;
#X connect 12 0 6 0;
#X connect 14 0 10 0;
#X connect 15 0 11 0;
#X connect 16 0 12 0;
#X restore 423 82 pd tripleRnd;
#N canvas 0 0 353 257 tripleRnd 0;
#X obj 12 63 random 100;
#X obj 12 149 line;
#X obj 12 219 outlet;
#X obj 92 64 random 100;
#X obj 92 145 line;
#X obj 170 64 random 100;
#X obj 170 145 line;
#X obj 12 189 pack f f f;
#X obj 12 12 r bang_forme2;
#X obj 231 9 r line_forme2;
#X obj 12 121 pack 0 2000;
#X obj 92 122 pack 0 2000;
#X obj 170 122 pack 0 2000;
#X obj 58 104;
#X obj 12 90 / 20;
#X obj 92 91 / 20;
#X obj 170 91 / 20;
#X connect 0 0 14 0;
#X connect 1 0 7 0;
#X connect 3 0 15 0;
#X connect 4 0 7 1;
#X connect 5 0 16 0;
#X connect 6 0 7 2;
#X connect 7 0 2 0;
#X connect 8 0 0 0;
#X connect 8 0 3 0;
#X connect 8 0 5 0;
#X connect 9 0 10 1;
#X connect 9 0 11 1;
#X connect 9 0 12 1;
#X connect 10 0 1 0;
#X connect 11 0 4 0;
#X connect 12 0 6 0;
#X connect 14 0 10 0;
#X connect 15 0 11 0;
#X connect 16 0 12 0;
#X restore 558 82 pd tripleRnd;
#N canvas 0 0 353 257 tripleRnd 0;
#X obj 12 63 random 100;
#X obj 12 149 line;
#X obj 12 219 outlet;
#X obj 92 64 random 100;
#X obj 92 145 line;
#X obj 170 64 random 100;
#X obj 170 145 line;
#X obj 12 189 pack f f f;
#X obj 12 12 r bang_forme2;
#X obj 231 9 r line_forme2;
#X obj 12 121 pack 0 2000;
#X obj 92 122 pack 0 2000;
#X obj 170 122 pack 0 2000;
#X obj 58 104;
#X obj 12 90 / 20;
#X obj 92 91 / 20;
#X obj 170 91 / 20;
#X connect 0 0 14 0;
#X connect 1 0 7 0;
#X connect 3 0 15 0;
#X connect 4 0 7 1;
#X connect 5 0 16 0;
#X connect 6 0 7 2;
#X connect 7 0 2 0;
#X connect 8 0 0 0;
#X connect 8 0 3 0;
#X connect 8 0 5 0;
#X connect 9 0 10 1;
#X connect 9 0 11 1;
#X connect 9 0 12 1;
#X connect 10 0 1 0;
#X connect 11 0 4 0;
#X connect 12 0 6 0;
#X connect 14 0 10 0;
#X connect 15 0 11 0;
#X connect 16 0 12 0;
#X restore 161 152 pd tripleRnd;
#N canvas 0 0 353 257 tripleRnd 0;
#X obj 12 63 random 100;
#X obj 12 149 line;
#X obj 12 219 outlet;
#X obj 92 64 random 100;
#X obj 92 145 line;
#X obj 170 64 random 100;
#X obj 170 145 line;
#X obj 12 189 pack f f f;
#X obj 12 12 r bang_forme2;
#X obj 231 9 r line_forme2;
#X obj 12 121 pack 0 2000;
#X obj 92 122 pack 0 2000;
#X obj 170 122 pack 0 2000;
#X obj 58 104;
#X obj 12 90 / 20;
#X obj 92 91 / 20;
#X obj 170 91 / 20;
#X connect 0 0 14 0;
#X connect 1 0 7 0;
#X connect 3 0 15 0;
#X connect 4 0 7 1;
#X connect 5 0 16 0;
#X connect 6 0 7 2;
#X connect 7 0 2 0;
#X connect 8 0 0 0;
#X connect 8 0 3 0;
#X connect 8 0 5 0;
#X connect 9 0 10 1;
#X connect 9 0 11 1;
#X connect 9 0 12 1;
#X connect 10 0 1 0;
#X connect 11 0 4 0;
#X connect 12 0 6 0;
#X connect 14 0 10 0;
#X connect 15 0 11 0;
#X connect 16 0 12 0;
#X restore 161 238 pd tripleRnd;
#N canvas 0 0 353 257 tripleRnd 0;
#X obj 12 63 random 100;
#X obj 12 149 line;
#X obj 12 219 outlet;
#X obj 92 64 random 100;
#X obj 92 145 line;
#X obj 170 64 random 100;
#X obj 170 145 line;
#X obj 12 189 pack f f f;
#X obj 12 12 r bang_forme2;
#X obj 231 9 r line_forme2;
#X obj 12 121 pack 0 2000;
#X obj 92 122 pack 0 2000;
#X obj 170 122 pack 0 2000;
#X obj 58 104;
#X obj 12 90 / 20;
#X obj 92 91 / 20;
#X obj 170 91 / 20;
#X connect 0 0 14 0;
#X connect 1 0 7 0;
#X connect 3 0 15 0;
#X connect 4 0 7 1;
#X connect 5 0 16 0;
#X connect 6 0 7 2;
#X connect 7 0 2 0;
#X connect 8 0 0 0;
#X connect 8 0 3 0;
#X connect 8 0 5 0;
#X connect 9 0 10 1;
#X connect 9 0 11 1;
#X connect 9 0 12 1;
#X connect 10 0 1 0;
#X connect 11 0 4 0;
#X connect 12 0 6 0;
#X connect 14 0 10 0;
#X connect 15 0 11 0;
#X connect 16 0 12 0;
#X restore 162 309 pd tripleRnd;
#N canvas 0 0 353 257 tripleRnd 0;
#X obj 12 63 random 100;
#X obj 12 149 line;
#X obj 12 219 outlet;
#X obj 92 64 random 100;
#X obj 92 145 line;
#X obj 170 64 random 100;
#X obj 170 145 line;
#X obj 12 189 pack f f f;
#X obj 12 12 r bang_forme2;
#X obj 231 9 r line_forme2;
#X obj 12 121 pack 0 2000;
#X obj 92 122 pack 0 2000;
#X obj 170 122 pack 0 2000;
#X obj 58 104;
#X obj 12 90 / 20;
#X obj 92 91 / 20;
#X obj 170 91 / 20;
#X connect 0 0 14 0;
#X connect 1 0 7 0;
#X connect 3 0 15 0;
#X connect 4 0 7 1;
#X connect 5 0 16 0;
#X connect 6 0 7 2;
#X connect 7 0 2 0;
#X connect 8 0 0 0;
#X connect 8 0 3 0;
#X connect 8 0 5 0;
#X connect 9 0 10 1;
#X connect 9 0 11 1;
#X connect 9 0 12 1;
#X connect 10 0 1 0;
#X connect 11 0 4 0;
#X connect 12 0 6 0;
#X connect 14 0 10 0;
#X connect 15 0 11 0;
#X connect 16 0 12 0;
#X restore 162 366 pd tripleRnd;
#N canvas 0 0 353 257 tripleRnd 0;
#X obj 12 63 random 100;
#X obj 12 149 line;
#X obj 12 219 outlet;
#X obj 92 64 random 100;
#X obj 92 145 line;
#X obj 170 64 random 100;
#X obj 170 145 line;
#X obj 12 189 pack f f f;
#X obj 12 12 r bang_forme2;
#X obj 231 9 r line_forme2;
#X obj 12 121 pack 0 2000;
#X obj 92 122 pack 0 2000;
#X obj 170 122 pack 0 2000;
#X obj 58 104;
#X obj 12 90 / 20;
#X obj 92 91 / 20;
#X obj 170 91 / 20;
#X connect 0 0 14 0;
#X connect 1 0 7 0;
#X connect 3 0 15 0;
#X connect 4 0 7 1;
#X connect 5 0 16 0;
#X connect 6 0 7 2;
#X connect 7 0 2 0;
#X connect 8 0 0 0;
#X connect 8 0 3 0;
#X connect 8 0 5 0;
#X connect 9 0 10 1;
#X connect 9 0 11 1;
#X connect 9 0 12 1;
#X connect 10 0 1 0;
#X connect 11 0 4 0;
#X connect 12 0 6 0;
#X connect 14 0 10 0;
#X connect 15 0 11 0;
#X connect 16 0 12 0;
#X restore 298 366 pd tripleRnd;
#N canvas 0 0 353 257 tripleRnd 0;
#X obj 12 63 random 100;
#X obj 12 149 line;
#X obj 12 219 outlet;
#X obj 92 64 random 100;
#X obj 92 145 line;
#X obj 170 64 random 100;
#X obj 170 145 line;
#X obj 12 189 pack f f f;
#X obj 12 12 r bang_forme2;
#X obj 231 9 r line_forme2;
#X obj 12 121 pack 0 2000;
#X obj 92 122 pack 0 2000;
#X obj 170 122 pack 0 2000;
#X obj 58 104;
#X obj 12 90 / 20;
#X obj 92 91 / 20;
#X obj 170 91 / 20;
#X connect 0 0 14 0;
#X connect 1 0 7 0;
#X connect 3 0 15 0;
#X connect 4 0 7 1;
#X connect 5 0 16 0;
#X connect 6 0 7 2;
#X connect 7 0 2 0;
#X connect 8 0 0 0;
#X connect 8 0 3 0;
#X connect 8 0 5 0;
#X connect 9 0 10 1;
#X connect 9 0 11 1;
#X connect 9 0 12 1;
#X connect 10 0 1 0;
#X connect 11 0 4 0;
#X connect 12 0 6 0;
#X connect 14 0 10 0;
#X connect 15 0 11 0;
#X connect 16 0 12 0;
#X restore 424 366 pd tripleRnd;
#N canvas 0 0 353 257 tripleRnd 0;
#X obj 12 63 random 100;
#X obj 12 149 line;
#X obj 12 219 outlet;
#X obj 92 64 random 100;
#X obj 92 145 line;
#X obj 170 64 random 100;
#X obj 170 145 line;
#X obj 12 189 pack f f f;
#X obj 12 12 r bang_forme2;
#X obj 231 9 r line_forme2;
#X obj 12 121 pack 0 2000;
#X obj 92 122 pack 0 2000;
#X obj 170 122 pack 0 2000;
#X obj 58 104;
#X obj 12 90 / 20;
#X obj 92 91 / 20;
#X obj 170 91 / 20;
#X connect 0 0 14 0;
#X connect 1 0 7 0;
#X connect 3 0 15 0;
#X connect 4 0 7 1;
#X connect 5 0 16 0;
#X connect 6 0 7 2;
#X connect 7 0 2 0;
#X connect 8 0 0 0;
#X connect 8 0 3 0;
#X connect 8 0 5 0;
#X connect 9 0 10 1;
#X connect 9 0 11 1;
#X connect 9 0 12 1;
#X connect 10 0 1 0;
#X connect 11 0 4 0;
#X connect 12 0 6 0;
#X connect 14 0 10 0;
#X connect 15 0 11 0;
#X connect 16 0 12 0;
#X restore 557 360 pd tripleRnd;
#N canvas 0 0 353 257 tripleRnd 0;
#X obj 12 63 random 100;
#X obj 12 149 line;
#X obj 12 219 outlet;
#X obj 92 64 random 100;
#X obj 92 145 line;
#X obj 170 64 random 100;
#X obj 170 145 line;
#X obj 12 189 pack f f f;
#X obj 12 12 r bang_forme2;
#X obj 231 9 r line_forme2;
#X obj 12 121 pack 0 2000;
#X obj 92 122 pack 0 2000;
#X obj 170 122 pack 0 2000;
#X obj 58 104;
#X obj 12 90 / 20;
#X obj 92 91 / 20;
#X obj 170 91 / 20;
#X connect 0 0 14 0;
#X connect 1 0 7 0;
#X connect 3 0 15 0;
#X connect 4 0 7 1;
#X connect 5 0 16 0;
#X connect 6 0 7 2;
#X connect 7 0 2 0;
#X connect 8 0 0 0;
#X connect 8 0 3 0;
#X connect 8 0 5 0;
#X connect 9 0 10 1;
#X connect 9 0 11 1;
#X connect 9 0 12 1;
#X connect 10 0 1 0;
#X connect 11 0 4 0;
#X connect 12 0 6 0;
#X connect 14 0 10 0;
#X connect 15 0 11 0;
#X connect 16 0 12 0;
#X restore 298 309 pd tripleRnd;
#N canvas 0 0 353 257 tripleRnd 0;
#X obj 12 63 random 100;
#X obj 12 149 line;
#X obj 12 219 outlet;
#X obj 92 64 random 100;
#X obj 92 145 line;
#X obj 170 64 random 100;
#X obj 170 145 line;
#X obj 12 189 pack f f f;
#X obj 12 12 r bang_forme2;
#X obj 231 9 r line_forme2;
#X obj 12 121 pack 0 2000;
#X obj 92 122 pack 0 2000;
#X obj 170 122 pack 0 2000;
#X obj 58 104;
#X obj 12 90 / 20;
#X obj 92 91 / 20;
#X obj 170 91 / 20;
#X connect 0 0 14 0;
#X connect 1 0 7 0;
#X connect 3 0 15 0;
#X connect 4 0 7 1;
#X connect 5 0 16 0;
#X connect 6 0 7 2;
#X connect 7 0 2 0;
#X connect 8 0 0 0;
#X connect 8 0 3 0;
#X connect 8 0 5 0;
#X connect 9 0 10 1;
#X connect 9 0 11 1;
#X connect 9 0 12 1;
#X connect 10 0 1 0;
#X connect 11 0 4 0;
#X connect 12 0 6 0;
#X connect 14 0 10 0;
#X connect 15 0 11 0;
#X connect 16 0 12 0;
#X restore 434 309 pd tripleRnd;
#N canvas 0 0 353 257 tripleRnd 0;
#X obj 12 63 random 100;
#X obj 12 149 line;
#X obj 12 219 outlet;
#X obj 92 64 random 100;
#X obj 92 145 line;
#X obj 170 64 random 100;
#X obj 170 145 line;
#X obj 12 189 pack f f f;
#X obj 12 12 r bang_forme2;
#X obj 231 9 r line_forme2;
#X obj 12 121 pack 0 2000;
#X obj 92 122 pack 0 2000;
#X obj 170 122 pack 0 2000;
#X obj 58 104;
#X obj 12 90 / 20;
#X obj 92 91 / 20;
#X obj 170 91 / 20;
#X connect 0 0 14 0;
#X connect 1 0 7 0;
#X connect 3 0 15 0;
#X connect 4 0 7 1;
#X connect 5 0 16 0;
#X connect 6 0 7 2;
#X connect 7 0 2 0;
#X connect 8 0 0 0;
#X connect 8 0 3 0;
#X connect 8 0 5 0;
#X connect 9 0 10 1;
#X connect 9 0 11 1;
#X connect 9 0 12 1;
#X connect 10 0 1 0;
#X connect 11 0 4 0;
#X connect 12 0 6 0;
#X connect 14 0 10 0;
#X connect 15 0 11 0;
#X connect 16 0 12 0;
#X restore 553 298 pd tripleRnd;
#N canvas 0 0 353 257 tripleRnd 0;
#X obj 12 63 random 100;
#X obj 12 149 line;
#X obj 12 219 outlet;
#X obj 92 64 random 100;
#X obj 92 145 line;
#X obj 170 64 random 100;
#X obj 170 145 line;
#X obj 12 189 pack f f f;
#X obj 12 12 r bang_forme2;
#X obj 231 9 r line_forme2;
#X obj 12 121 pack 0 2000;
#X obj 92 122 pack 0 2000;
#X obj 170 122 pack 0 2000;
#X obj 58 104;
#X obj 12 90 / 20;
#X obj 92 91 / 20;
#X obj 170 91 / 20;
#X connect 0 0 14 0;
#X connect 1 0 7 0;
#X connect 3 0 15 0;
#X connect 4 0 7 1;
#X connect 5 0 16 0;
#X connect 6 0 7 2;
#X connect 7 0 2 0;
#X connect 8 0 0 0;
#X connect 8 0 3 0;
#X connect 8 0 5 0;
#X connect 9 0 10 1;
#X connect 9 0 11 1;
#X connect 9 0 12 1;
#X connect 10 0 1 0;
#X connect 11 0 4 0;
#X connect 12 0 6 0;
#X connect 14 0 10 0;
#X connect 15 0 11 0;
#X connect 16 0 12 0;
#X restore 298 238 pd tripleRnd;
#N canvas 0 0 353 257 tripleRnd 0;
#X obj 12 63 random 100;
#X obj 12 149 line;
#X obj 12 219 outlet;
#X obj 92 64 random 100;
#X obj 92 145 line;
#X obj 170 64 random 100;
#X obj 170 145 line;
#X obj 12 189 pack f f f;
#X obj 12 12 r bang_forme2;
#X obj 231 9 r line_forme2;
#X obj 12 121 pack 0 2000;
#X obj 92 122 pack 0 2000;
#X obj 170 122 pack 0 2000;
#X obj 58 104;
#X obj 12 90 / 20;
#X obj 92 91 / 20;
#X obj 170 91 / 20;
#X connect 0 0 14 0;
#X connect 1 0 7 0;
#X connect 3 0 15 0;
#X connect 4 0 7 1;
#X connect 5 0 16 0;
#X connect 6 0 7 2;
#X connect 7 0 2 0;
#X connect 8 0 0 0;
#X connect 8 0 3 0;
#X connect 8 0 5 0;
#X connect 9 0 10 1;
#X connect 9 0 11 1;
#X connect 9 0 12 1;
#X connect 10 0 1 0;
#X connect 11 0 4 0;
#X connect 12 0 6 0;
#X connect 14 0 10 0;
#X connect 15 0 11 0;
#X connect 16 0 12 0;
#X restore 435 230 pd tripleRnd;
#N canvas 0 0 353 257 tripleRnd 0;
#X obj 12 63 random 100;
#X obj 12 149 line;
#X obj 12 219 outlet;
#X obj 92 64 random 100;
#X obj 92 145 line;
#X obj 170 64 random 100;
#X obj 170 145 line;
#X obj 12 189 pack f f f;
#X obj 12 12 r bang_forme2;
#X obj 231 9 r line_forme2;
#X obj 12 121 pack 0 2000;
#X obj 92 122 pack 0 2000;
#X obj 170 122 pack 0 2000;
#X obj 58 104;
#X obj 12 90 / 20;
#X obj 92 91 / 20;
#X obj 170 91 / 20;
#X connect 0 0 14 0;
#X connect 1 0 7 0;
#X connect 3 0 15 0;
#X connect 4 0 7 1;
#X connect 5 0 16 0;
#X connect 6 0 7 2;
#X connect 7 0 2 0;
#X connect 8 0 0 0;
#X connect 8 0 3 0;
#X connect 8 0 5 0;
#X connect 9 0 10 1;
#X connect 9 0 11 1;
#X connect 9 0 12 1;
#X connect 10 0 1 0;
#X connect 11 0 4 0;
#X connect 12 0 6 0;
#X connect 14 0 10 0;
#X connect 15 0 11 0;
#X connect 16 0 12 0;
#X restore 572 222 pd tripleRnd;
#N canvas 0 0 353 257 tripleRnd 0;
#X obj 12 63 random 100;
#X obj 12 149 line;
#X obj 12 219 outlet;
#X obj 92 64 random 100;
#X obj 92 145 line;
#X obj 170 64 random 100;
#X obj 170 145 line;
#X obj 12 189 pack f f f;
#X obj 12 12 r bang_forme2;
#X obj 231 9 r line_forme2;
#X obj 12 121 pack 0 2000;
#X obj 92 122 pack 0 2000;
#X obj 170 122 pack 0 2000;
#X obj 58 104;
#X obj 12 90 / 20;
#X obj 92 91 / 20;
#X obj 170 91 / 20;
#X connect 0 0 14 0;
#X connect 1 0 7 0;
#X connect 3 0 15 0;
#X connect 4 0 7 1;
#X connect 5 0 16 0;
#X connect 6 0 7 2;
#X connect 7 0 2 0;
#X connect 8 0 0 0;
#X connect 8 0 3 0;
#X connect 8 0 5 0;
#X connect 9 0 10 1;
#X connect 9 0 11 1;
#X connect 9 0 12 1;
#X connect 10 0 1 0;
#X connect 11 0 4 0;
#X connect 12 0 6 0;
#X connect 14 0 10 0;
#X connect 15 0 11 0;
#X connect 16 0 12 0;
#X restore 299 158 pd tripleRnd;
#N canvas 0 0 353 257 tripleRnd 0;
#X obj 12 63 random 100;
#X obj 12 149 line;
#X obj 12 219 outlet;
#X obj 92 64 random 100;
#X obj 92 145 line;
#X obj 170 64 random 100;
#X obj 170 145 line;
#X obj 12 189 pack f f f;
#X obj 12 12 r bang_forme2;
#X obj 231 9 r line_forme2;
#X obj 12 121 pack 0 2000;
#X obj 92 122 pack 0 2000;
#X obj 170 122 pack 0 2000;
#X obj 58 104;
#X obj 12 90 / 20;
#X obj 92 91 / 20;
#X obj 170 91 / 20;
#X connect 0 0 14 0;
#X connect 1 0 7 0;
#X connect 3 0 15 0;
#X connect 4 0 7 1;
#X connect 5 0 16 0;
#X connect 6 0 7 2;
#X connect 7 0 2 0;
#X connect 8 0 0 0;
#X connect 8 0 3 0;
#X connect 8 0 5 0;
#X connect 9 0 10 1;
#X connect 9 0 11 1;
#X connect 9 0 12 1;
#X connect 10 0 1 0;
#X connect 11 0 4 0;
#X connect 12 0 6 0;
#X connect 14 0 10 0;
#X connect 15 0 11 0;
#X connect 16 0 12 0;
#X restore 424 158 pd tripleRnd;
#N canvas 0 0 353 257 tripleRnd 0;
#X obj 12 63 random 100;
#X obj 12 149 line;
#X obj 12 219 outlet;
#X obj 92 64 random 100;
#X obj 92 145 line;
#X obj 170 64 random 100;
#X obj 170 145 line;
#X obj 12 189 pack f f f;
#X obj 12 12 r bang_forme2;
#X obj 231 9 r line_forme2;
#X obj 12 121 pack 0 2000;
#X obj 92 122 pack 0 2000;
#X obj 170 122 pack 0 2000;
#X obj 58 104;
#X obj 12 90 / 20;
#X obj 92 91 / 20;
#X obj 170 91 / 20;
#X connect 0 0 14 0;
#X connect 1 0 7 0;
#X connect 3 0 15 0;
#X connect 4 0 7 1;
#X connect 5 0 16 0;
#X connect 6 0 7 2;
#X connect 7 0 2 0;
#X connect 8 0 0 0;
#X connect 8 0 3 0;
#X connect 8 0 5 0;
#X connect 9 0 10 1;
#X connect 9 0 11 1;
#X connect 9 0 12 1;
#X connect 10 0 1 0;
#X connect 11 0 4 0;
#X connect 12 0 6 0;
#X connect 14 0 10 0;
#X connect 15 0 11 0;
#X connect 16 0 12 0;
#X restore 569 152 pd tripleRnd;
#X connect 0 0 7 0;
#X connect 1 0 26 0;
#X connect 2 0 26 0;
#X connect 3 0 26 0;
#X connect 4 0 26 0;
#X connect 5 0 26 0;
#X connect 6 0 26 0;
#X connect 7 0 26 0;
#X connect 8 0 26 0;
#X connect 9 0 26 0;
#X connect 10 0 26 0;
#X connect 11 0 26 0;
#X connect 12 0 26 0;
#X connect 13 0 26 0;
#X connect 14 0 26 0;
#X connect 15 0 26 0;
#X connect 16 0 26 0;
#X connect 17 0 26 0;
#X connect 18 0 26 0;
#X connect 19 0 26 0;
#X connect 20 0 26 0;
#X connect 21 0 26 0;
#X connect 22 0 26 0;
#X connect 23 0 26 0;
#X connect 24 0 26 0;
#X connect 25 0 26 0;
#X connect 27 0 28 0;
#X connect 30 0 8 0;
#X connect 31 0 1 0;
#X connect 32 0 10 0;
#X connect 33 0 21 0;
#X connect 34 0 6 0;
#X connect 35 0 5 0;
#X connect 36 0 13 0;
#X connect 37 0 17 0;
#X connect 38 0 9 0;
#X connect 39 0 2 0;
#X connect 40 0 11 0;
#X connect 41 0 22 0;
#X connect 42 0 23 0;
#X connect 43 0 24 0;
#X connect 44 0 25 0;
#X connect 45 0 12 0;
#X connect 46 0 16 0;
#X connect 47 0 20 0;
#X connect 48 0 3 0;
#X connect 49 0 15 0;
#X connect 50 0 19 0;
#X connect 51 0 4 0;
#X connect 52 0 14 0;
#X connect 53 0 18 0;
#X restore 4245 2133 pd forme2;
#X obj 4251 2068 bng 25 250 50 0 empty empty empty 17 7 0 10 #191919 #ffffff #ffffff;
#X msg 4182 2235 draw point;
#X msg 2297 1598 fullscreen \$1;
#X obj 2238 1793 snapshot~;
#X obj 2334 1744 metro 10;
#X obj 2354 1699 tgl 22 0 empty empty empty 0 -11 0 12 #fcfcfc #000000 #000000 0 1;
#X obj 2352 1656 loadbang;
#X obj 2238 1723 osc~ 0.1;
#X obj 2177 1815 + 1;
#X obj 2133 1832 / 2;
#X msg 4399 2043 1 0.2 0.8;
#X msg 3897 2083 0 0.8 1;
#X msg 2899 2531 0.5 0.4 0.8;
#X obj 3838 2188 GEMglPointSize 2.5;
#X obj 4340 2148 GEMglPointSize 4;
#X connect 0 0 431 0;
#X connect 1 0 431 0;
#X connect 3 0 4 0;
#X connect 4 0 5 0;
#X connect 5 0 6 0;
#X connect 6 0 19 0;
#X connect 7 0 4 1;
#X connect 8 0 4 2;
#X connect 9 0 4 3;
#X connect 10 0 6 1;
#X connect 11 0 6 2;
#X connect 12 0 448 0;
#X connect 12 0 447 0;
#X connect 13 0 18 0;
#X connect 14 0 6 3;
#X connect 15 0 17 0;
#X connect 16 0 437 0;
#X connect 17 0 11 0;
#X connect 18 0 5 1;
#X connect 18 0 5 2;
#X connect 18 0 5 3;
#X connect 19 0 214 0;
#X connect 19 0 424 0;
#X connect 20 0 19 1;
#X connect 21 0 19 2;
#X connect 22 0 19 3;
#X connect 23 0 229 0;
#X connect 24 0 25 0;
#X connect 25 0 214 0;
#X connect 26 0 48 0;
#X connect 28 0 49 0;
#X connect 28 0 213 0;
#X connect 30 0 34 0;
#X connect 32 0 226 0;
#X connect 32 0 35 0;
#X connect 34 0 35 0;
#X connect 35 0 31 0;
#X connect 37 0 38 0;
#X connect 38 0 36 0;
#X connect 39 0 41 0;
#X connect 40 0 37 0;
#X connect 41 0 40 0;
#X connect 42 0 43 0;
#X connect 43 0 44 0;
#X connect 43 0 46 0;
#X connect 44 0 37 0;
#X connect 45 0 37 0;
#X connect 46 0 45 0;
#X connect 47 0 3 0;
#X connect 48 0 49 0;
#X connect 49 0 27 0;
#X connect 50 0 12 0;
#X connect 51 0 431 0;
#X connect 52 0 53 0;
#X connect 53 0 76 0;
#X connect 54 0 71 0;
#X connect 55 0 56 0;
#X connect 56 0 232 0;
#X connect 57 0 383 0;
#X connect 58 0 57 1;
#X connect 59 0 57 2;
#X connect 60 0 61 0;
#X connect 61 0 62 0;
#X connect 62 0 52 0;
#X connect 63 0 76 1;
#X connect 64 0 218 0;
#X connect 64 0 67 0;
#X connect 65 0 66 0;
#X connect 66 0 63 0;
#X connect 67 0 68 0;
#X connect 68 0 219 0;
#X connect 69 0 54 0;
#X connect 70 0 381 0;
#X connect 71 0 220 0;
#X connect 72 0 71 1;
#X connect 73 0 71 2;
#X connect 74 0 71 3;
#X connect 75 0 232 1;
#X connect 76 0 379 0;
#X connect 77 0 80 0;
#X connect 78 0 230 0;
#X connect 79 0 64 0;
#X connect 80 0 53 0;
#X connect 81 0 82 0;
#X connect 82 0 83 0;
#X connect 83 0 53 0;
#X connect 84 0 96 0;
#X connect 85 0 95 0;
#X connect 86 0 88 0;
#X connect 87 0 89 0;
#X connect 88 0 116 0;
#X connect 89 0 116 0;
#X connect 90 0 93 0;
#X connect 91 0 92 0;
#X connect 92 0 116 0;
#X connect 93 0 116 0;
#X connect 94 0 116 0;
#X connect 95 0 116 0;
#X connect 96 0 116 0;
#X connect 97 0 116 0;
#X connect 98 0 97 0;
#X connect 99 0 106 0;
#X connect 100 0 116 0;
#X connect 101 0 116 0;
#X connect 102 0 116 0;
#X connect 103 0 100 0;
#X connect 104 0 102 0;
#X connect 105 0 101 0;
#X connect 106 0 116 0;
#X connect 108 0 109 0;
#X connect 109 0 108 0;
#X connect 111 0 116 0;
#X connect 112 0 117 0;
#X connect 113 0 114 0;
#X connect 114 0 108 0;
#X connect 115 1 113 0;
#X connect 116 0 115 0;
#X connect 116 1 120 0;
#X connect 117 0 122 0;
#X connect 118 0 119 0;
#X connect 119 0 121 0;
#X connect 119 1 117 1;
#X connect 121 0 116 0;
#X connect 122 0 120 0;
#X connect 126 0 171 0;
#X connect 127 0 125 0;
#X connect 128 0 125 1;
#X connect 129 0 125 1;
#X connect 130 0 99 0;
#X connect 131 0 146 0;
#X connect 131 0 134 0;
#X connect 132 0 133 0;
#X connect 133 0 130 0;
#X connect 134 0 135 0;
#X connect 135 0 136 0;
#X connect 136 0 132 0;
#X connect 137 0 99 0;
#X connect 138 0 145 0;
#X connect 138 0 141 0;
#X connect 139 0 140 0;
#X connect 140 0 137 0;
#X connect 141 0 142 0;
#X connect 142 0 143 0;
#X connect 143 0 139 0;
#X connect 144 0 138 0;
#X connect 145 0 139 0;
#X connect 146 0 132 0;
#X connect 147 0 191 0;
#X connect 148 0 149 0;
#X connect 149 0 147 0;
#X connect 150 0 189 0;
#X connect 151 0 147 0;
#X connect 152 0 148 0;
#X connect 153 0 154 0;
#X connect 154 0 155 0;
#X connect 155 0 151 0;
#X connect 156 0 158 0;
#X connect 157 0 156 0;
#X connect 158 0 151 0;
#X connect 160 0 164 0;
#X connect 161 0 159 0;
#X connect 162 0 159 1;
#X connect 163 0 164 1;
#X connect 164 0 159 0;
#X connect 165 0 163 0;
#X connect 166 0 279 0;
#X connect 166 0 169 0;
#X connect 167 0 168 0;
#X connect 168 0 165 0;
#X connect 169 0 170 0;
#X connect 170 0 212 0;
#X connect 171 0 125 0;
#X connect 172 0 171 1;
#X connect 173 0 171 2;
#X connect 174 0 171 3;
#X connect 176 0 180 0;
#X connect 177 0 175 0;
#X connect 178 0 175 1;
#X connect 179 0 175 1;
#X connect 180 0 175 0;
#X connect 181 0 180 1;
#X connect 182 0 180 2;
#X connect 183 0 180 3;
#X connect 184 0 187 0;
#X connect 185 0 280 0;
#X connect 186 0 280 1;
#X connect 187 0 280 0;
#X connect 188 0 187 1;
#X connect 189 0 187 2;
#X connect 190 0 187 3;
#X connect 191 0 150 0;
#X connect 192 0 195 0;
#X connect 193 0 194 0;
#X connect 194 0 186 0;
#X connect 195 0 203 0;
#X connect 196 0 163 0;
#X connect 197 0 202 0;
#X connect 197 0 200 0;
#X connect 198 0 199 0;
#X connect 199 0 196 0;
#X connect 200 0 201 0;
#X connect 201 0 204 0;
#X connect 202 0 198 0;
#X connect 203 0 280 1;
#X connect 204 0 198 0;
#X connect 205 0 131 0;
#X connect 206 0 99 0;
#X connect 207 0 216 0;
#X connect 207 0 210 0;
#X connect 208 0 209 0;
#X connect 209 0 206 0;
#X connect 210 0 211 0;
#X connect 211 0 217 0;
#X connect 212 0 167 0;
#X connect 213 0 29 0;
#X connect 215 0 425 0;
#X connect 216 0 208 0;
#X connect 217 0 208 0;
#X connect 218 0 65 0;
#X connect 219 0 65 0;
#X connect 220 0 232 0;
#X connect 221 0 220 2;
#X connect 222 0 225 0;
#X connect 223 0 224 0;
#X connect 224 0 222 0;
#X connect 226 0 33 0;
#X connect 227 0 78 0;
#X connect 228 0 77 0;
#X connect 229 0 430 0;
#X connect 230 0 53 0;
#X connect 231 0 222 0;
#X connect 234 0 235 0;
#X connect 235 0 257 0;
#X connect 236 0 253 0;
#X connect 237 0 238 0;
#X connect 238 0 272 0;
#X connect 239 0 382 0;
#X connect 240 0 239 1;
#X connect 241 0 239 2;
#X connect 242 0 243 0;
#X connect 243 0 244 0;
#X connect 244 0 234 0;
#X connect 245 0 257 1;
#X connect 246 0 265 0;
#X connect 246 0 249 0;
#X connect 247 0 248 0;
#X connect 248 0 245 0;
#X connect 249 0 250 0;
#X connect 250 0 266 0;
#X connect 251 0 236 0;
#X connect 252 0 380 0;
#X connect 253 0 267 0;
#X connect 254 0 253 2;
#X connect 255 0 253 3;
#X connect 256 0 272 1;
#X connect 257 0 378 0;
#X connect 258 0 261 0;
#X connect 259 0 269 0;
#X connect 260 0 246 0;
#X connect 261 0 235 0;
#X connect 262 0 263 0;
#X connect 263 0 264 0;
#X connect 264 0 235 0;
#X connect 265 0 247 0;
#X connect 266 0 247 0;
#X connect 267 0 272 0;
#X connect 268 0 267 2;
#X connect 269 0 235 0;
#X connect 270 0 259 0;
#X connect 271 0 258 0;
#X connect 273 0 253 1;
#X connect 274 0 431 0;
#X connect 275 0 166 0;
#X connect 276 0 197 0;
#X connect 277 0 159 1;
#X connect 278 0 207 0;
#X connect 279 0 167 0;
#X connect 281 0 28 0;
#X connect 294 0 295 0;
#X connect 295 0 294 0;
#X connect 300 0 325 0;
#X connect 301 0 325 0;
#X connect 302 0 325 0;
#X connect 303 0 325 0;
#X connect 304 0 325 0;
#X connect 305 0 325 0;
#X connect 306 0 325 0;
#X connect 307 0 325 0;
#X connect 308 0 325 0;
#X connect 309 0 322 0;
#X connect 310 0 322 0;
#X connect 311 0 322 0;
#X connect 312 0 322 0;
#X connect 313 0 322 0;
#X connect 314 0 323 0;
#X connect 315 0 324 0;
#X connect 316 0 323 0;
#X connect 317 0 324 0;
#X connect 318 0 323 0;
#X connect 319 0 324 0;
#X connect 329 0 370 0;
#X connect 330 0 333 1;
#X connect 331 0 333 2;
#X connect 332 0 333 3;
#X connect 333 0 415 0;
#X connect 334 0 359 0;
#X connect 342 0 355 0;
#X connect 343 0 342 0;
#X connect 344 0 345 0;
#X connect 345 0 356 0;
#X connect 348 0 344 0;
#X connect 349 0 352 0;
#X connect 350 0 354 0;
#X connect 351 0 352 1;
#X connect 352 0 350 0;
#X connect 353 0 352 2;
#X connect 370 0 333 0;
#X connect 371 0 323 0;
#X connect 375 0 15 0;
#X connect 376 0 343 0;
#X connect 378 0 239 0;
#X connect 379 0 57 0;
#X connect 380 0 251 1;
#X connect 381 0 69 1;
#X connect 382 0 251 0;
#X connect 383 0 69 0;
#X connect 384 0 370 1;
#X connect 385 0 370 2;
#X connect 386 0 370 3;
#X connect 387 0 16 0;
#X connect 388 0 23 0;
#X connect 389 0 324 0;
#X connect 390 0 389 0;
#X connect 391 0 393 0;
#X connect 392 0 438 0;
#X connect 393 0 400 3;
#X connect 394 0 395 0;
#X connect 394 0 397 0;
#X connect 395 0 391 0;
#X connect 396 0 445 0;
#X connect 397 0 392 0;
#X connect 398 0 394 0;
#X connect 399 0 439 0;
#X connect 400 0 399 1;
#X connect 401 0 402 0;
#X connect 402 0 400 0;
#X connect 403 0 489 0;
#X connect 404 0 405 0;
#X connect 405 0 399 0;
#X connect 406 0 407 0;
#X connect 407 0 439 0;
#X connect 408 0 409 0;
#X connect 409 0 411 3;
#X connect 410 0 490 0;
#X connect 411 0 410 1;
#X connect 412 0 413 0;
#X connect 413 0 411 0;
#X connect 414 0 488 0;
#X connect 415 0 410 0;
#X connect 417 0 418 0;
#X connect 418 0 408 0;
#X connect 419 0 429 0;
#X connect 420 0 422 0;
#X connect 420 0 421 0;
#X connect 421 0 419 0;
#X connect 422 0 417 0;
#X connect 425 0 424 0;
#X connect 426 0 232 0;
#X connect 427 0 272 0;
#X connect 428 0 439 0;
#X connect 429 0 417 0;
#X connect 430 0 435 0;
#X connect 432 0 449 0;
#X connect 433 0 426 0;
#X connect 434 0 427 0;
#X connect 436 0 430 0;
#X connect 437 0 15 0;
#X connect 438 0 391 0;
#X connect 440 0 428 0;
#X connect 441 0 424 2;
#X connect 442 0 444 0;
#X connect 443 0 442 0;
#X connect 444 0 441 0;
#X connect 445 0 391 0;
#X connect 446 0 396 0;
#X connect 447 0 13 0;
#X connect 448 0 13 0;
#X connect 449 0 424 0;
#X connect 450 0 456 0;
#X connect 451 0 454 1;
#X connect 452 0 454 2;
#X connect 453 0 454 3;
#X connect 454 0 467 0;
#X connect 456 0 454 0;
#X connect 457 0 456 1;
#X connect 458 0 456 2;
#X connect 459 0 456 3;
#X connect 460 0 461 0;
#X connect 461 0 463 3;
#X connect 462 0 491 0;
#X connect 463 0 462 1;
#X connect 464 0 465 0;
#X connect 465 0 463 0;
#X connect 466 0 487 0;
#X connect 467 0 462 0;
#X connect 469 0 470 0;
#X connect 470 0 460 0;
#X connect 471 0 475 0;
#X connect 472 0 474 0;
#X connect 472 0 473 0;
#X connect 473 0 471 0;
#X connect 474 0 469 0;
#X connect 475 0 469 0;
#X connect 476 0 455 0;
#X connect 477 0 476 0;
#X connect 478 0 455 0;
#X connect 479 0 431 0;
#X connect 480 0 485 0;
#X connect 481 0 480 0;
#X connect 482 0 481 0;
#X connect 483 0 482 0;
#X connect 484 0 480 0;
#X connect 485 0 486 0;
#X connect 486 0 7 0;
#X connect 487 0 463 0;
#X connect 488 0 411 0;
#X connect 489 0 400 0;
#X connect 490 0 359 0;
#X connect 491 0 455 0;
